{
.appVersion = "934";
copyright = "Copyright (c) 2014, Impallari Type (www.impallari.com)";
customParameters = (
{
name = licenseURL;
value = "http://scripts.sil.org/OFL";
},
{
name = description;
value = "Libre Bodoni is a webfont family optimized for body text. Based on 1923 ATF Specimens.";
},
{
name = trademark;
value = "Libre Bodoni is a trademark of Impallari Type.";
},
{
name = license;
value = "This Font Software is licensed under the SIL Open Font License, Version 1.1. This license is available with a FAQ at: http://scripts.sil.org/OFL";
},
{
name = panose;
value = (
2,
7,
5,
3,
7,
6,
0,
0,
0,
3
);
}
);
date = "2016-08-16 11:28:02 +0000";
designer = "Pablo Impallari, Rodrigo Fuenzalida";
designerURL = www.impallari.com;
disablesAutomaticAlignment = 1;
familyName = "Libre Bodoni v2000";
features = (
{
code = "sub f f i by f_f_i;\012	sub f f l by f_f_l;\012  sub f f by f_f;\012  sub f i by f_i;\012  sub f l by f_l;\012";
name = liga;
},
{
code = "sub [zero one two three four five six seven eight nine] [A a]' by [ordfeminine ordfeminine];\012	sub [zero one two three four five six seven eight nine] [O o]' by [ordmasculine ordmasculine];\012	sub [zero one two three four five six seven eight nine] period [A a]' by [ordfeminine ordfeminine];\012	sub [zero one two three four five six seven eight nine] period [O o]' by [ordmasculine ordmasculine];\012";
name = ordn;
},
{
code = "sub one [slash fraction] two by onehalf;\012	sub one [slash fraction] three by onethird;\012	sub one [slash fraction] four by onequarter;\012	sub one [slash fraction] eight by oneeighth;\012	sub two [slash fraction] three by twothirds;\012	sub three [slash fraction] four by threequarters;\012	sub three [slash fraction] eight by threeeighths;\012	sub five [slash fraction] eight by fiveeighths;\012	sub seven [slash fraction] eight by seveneighths;\012";
name = frac;
},
{

glyphs = (
{
glyphname = A;
lastChange = "2016-08-16 11:12:44 +0000";
layers = (
{
layerId = "426C3F01-D24D-4224-A47E-56DA036E4742";
paths = (
{
closed = 1;
nodes = (
"336 10 LINE",
"459 10 LINE",
"514 764 LINE",
"493 764 LINE",
"381 547 LINE",
"385 547 LINE"
);
},
{
closed = 1;
nodes = (
"538 25 LINE",
"269 25 LINE",
"269 0 LINE",
"538 0 LINE"
);
},
{
closed = 1;
nodes = (
"123 25 LINE",
"-91 25 LINE",
"-91 0 LINE",
"123 0 LINE"
);
},
{
closed = 1;
nodes = (
"384 551 LINE",
"493 764 LINE",
"-18 20 LINE",
"21 20 LINE"
);
},
{
closed = 1;
nodes = (
"165 247 LINE",
"434 247 LINE",
"434 275 LINE",
"165 275 LINE"
);
}
);
width = 585;
},
{
layerId = "DD3DBCA6-CF88-4DA3-ACF4-A2FFC969FFEC";
paths = (
{
closed = 1;
nodes = (
"337 10 LINE",
"490 10 LINE",
"545 768 LINE",
"494 768 LINE",
"382 547 LINE",
"386 547 LINE"
);
},
{
closed = 1;
nodes = (
"569 30 LINE",
"250 30 LINE",
"250 0 LINE",
"569 0 LINE"
);
},
{
closed = 1;
nodes = (
"124 30 LINE",
"-66 30 LINE",
"-66 0 LINE",
"124 0 LINE"
);
},
{
closed = 1;
nodes = (
"385 551 LINE",
"502 768 LINE",
"487 768 LINE",
"-20 20 LINE",
"22 20 LINE"
);
},
{
closed = 1;
nodes = (
"146 212 LINE",
"415 212 LINE",
"415 245 LINE",
"146 245 LINE"
);
}
);
width = 621;
}
);
leftKerningGroup = A;
rightKerningGroup = A;
unicode = 0041;
},
{
glyphname = Aringacute;
lastChange = "2016-08-16 11:12:44 +0000";
layers = (
{
layerId = "426C3F01-D24D-4224-A47E-56DA036E4742";
paths = (
{
closed = 1;
nodes = (
"642 843 LINE SMOOTH",
"681 852 OFFCURVE",
"697 870 OFFCURVE",
"697 893 CURVE SMOOTH",
"697 913 OFFCURVE",
"685 924 OFFCURVE",
"667 924 CURVE SMOOTH",
"651 924 OFFCURVE",
"633 916 OFFCURVE",
"599 895 CURVE SMOOTH",
"519 846 LINE",
"511 849 OFFCURVE",
"503 851 OFFCURVE",
"494 851 CURVE SMOOTH",
"454 851 OFFCURVE",
"420 819 OFFCURVE",
"420 779 CURVE SMOOTH",
"420 751 OFFCURVE",
"435 727 OFFCURVE",
"458 714 CURVE",
"-14 25 LINE",
"-91 25 LINE",
"-91 0 LINE",
"123 0 LINE",
"123 25 LINE",
"24 25 LINE",
"176 247 LINE",
"357 247 LINE",
"337 25 LINE",
"269 25 LINE",
"269 0 LINE",
"538 0 LINE",
"538 25 LINE",
"460 25 LINE",
"509 705 LINE",
"543 713 OFFCURVE",
"567 743 OFFCURVE",
"567 779 CURVE SMOOTH",
"567 796 OFFCURVE",
"561 811 OFFCURVE",
"552 823 CURVE"
);
},
{
closed = 1;
nodes = (
"385 547 LINE",
"360 275 LINE",
"195 275 LINE",
"381 547 LINE"
);
},
{
closed = 1;
nodes = (
"494 818 LINE SMOOTH",
"515 818 OFFCURVE",
"534 800 OFFCURVE",
"534 779 CURVE SMOOTH",
"534 757 OFFCURVE",
"516 737 OFFCURVE",
"494 737 CURVE SMOOTH",
"472 737 OFFCURVE",
"453 757 OFFCURVE",
"453 779 CURVE SMOOTH",
"453 800 OFFCURVE",
"473 818 OFFCURVE",
"494 818 CURVE SMOOTH"
);
}
);
width = 585;
},
{
layerId = "DD3DBCA6-CF88-4DA3-ACF4-A2FFC969FFEC";
paths = (
{
closed = 1;
nodes = (
"464 734 LINE",
"-13 30 LINE",
"-66 30 LINE",
"-66 0 LINE",
"124 0 LINE",
"124 30 LINE",
"29 30 LINE",
"153 212 LINE",
"355 212 LINE",
"339 30 LINE",
"250 30 LINE",
"250 0 LINE",
"569 0 LINE",
"569 30 LINE",
"491 30 LINE",
"543 734 LINE"
);
},
{
closed = 1;
nodes = (
"386 547 LINE",
"358 245 LINE",
"176 245 LINE",
"382 547 LINE"
);
},
{
closed = 1;
nodes = (
"511 700 LINE SMOOTH",
"560 700 OFFCURVE",
"590 730 OFFCURVE",
"590 779 CURVE SMOOTH",
"590 828 OFFCURVE",
"560 857 OFFCURVE",
"511 857 CURVE SMOOTH",
"462 857 OFFCURVE",
"432 828 OFFCURVE",
"432 779 CURVE SMOOTH",
"432 730 OFFCURVE",
"462 700 OFFCURVE",
"511 700 CURVE SMOOTH"
);
},
{
closed = 1;
nodes = (
"511 821 LINE SMOOTH",
"535 821 OFFCURVE",
"547 806 OFFCURVE",
"547 782 CURVE SMOOTH",
"547 758 OFFCURVE",
"535 741 OFFCURVE",
"511 741 CURVE SMOOTH",
"487 741 OFFCURVE",
"475 758 OFFCURVE",
"475 782 CURVE SMOOTH",
"475 806 OFFCURVE",
"487 821 OFFCURVE",
"511 821 CURVE SMOOTH"
);
},
{
closed = 1;
nodes = (
"553 806 LINE",
"704 834 LINE SMOOTH",
"736 840 OFFCURVE",
"751 862 OFFCURVE",
"751 881 CURVE SMOOTH",
"751 903 OFFCURVE",
"732 924 OFFCURVE",
"699 924 CURVE SMOOTH",
"674 924 OFFCURVE",
"657 918 OFFCURVE",
"622 897 CURVE SMOOTH",
"524 836 LINE"
);
}
);
width = 621;
}
);
leftKerningGroup = A;
rightKerningGroup = A;
unicode = 01FA;
},
{
glyphname = AE;
lastChange = "2016-08-16 11:12:44 +0000";
layers = (
{
layerId = "426C3F01-D24D-4224-A47E-56DA036E4742";
paths = (
{
closed = 1;
nodes = (
"101 25 LINE",
"-113 25 LINE",
"-113 0 LINE",
"101 0 LINE"
);
},
{
closed = 1;
nodes = (
"486 734 LINE",
"455 741 LINE",
"-40 20 LINE",
"-1 20 LINE"
);
},
{
closed = 1;
nodes = (
"143 247 LINE",
"412 247 LINE",
"412 275 LINE",
"143 275 LINE"
);
},
{
closed = 1;
nodes = (
"624 754 LINE",
"507 754 LINE",
"343 0 LINE",
"456 0 LINE"
);
},
{
closed = 1;
nodes = (
"338 729 LINE",
"728 729 LINE SMOOTH",
"870 729 OFFCURVE",
"899 692 OFFCURVE",
"899 553 CURVE",
"929 553 LINE",
"957 754 LINE",
"338 754 LINE"
);
},
{
closed = 1;
nodes = (
"491 378 LINE",
"578 378 LINE SMOOTH",
"661 378 OFFCURVE",
"676 351 OFFCURVE",
"676 226 CURVE",
"706 226 LINE",
"765 534 LINE",
"740 534 LINE",
"709 430 OFFCURVE",
"674 403 OFFCURVE",
"594 403 CURVE SMOOTH",
"491 403 LINE"
);
},
{
closed = 1;
nodes = (
"247 0 LINE",
"837 0 LINE",
"897 232 LINE",
"867 232 LINE",
"791 64 OFFCURVE",
"729 25 OFFCURVE",
"640 25 CURVE SMOOTH",
"247 25 LINE"
);
}
);
width = 946;
},
{
layerId = "DD3DBCA6-CF88-4DA3-ACF4-A2FFC969FFEC";
paths = (
{
closed = 1;
nodes = (
"702 754 LINE",
"551 754 LINE",
"387 0 LINE",
"534 0 LINE"
);
},
{
closed = 1;
nodes = (
"396 724 LINE",
"796 724 LINE SMOOTH",
"920 724 OFFCURVE",
"957 687 OFFCURVE",
"957 548 CURVE",
"997 548 LINE",
"1033 754 LINE",
"396 754 LINE"
);
},
{
closed = 1;
nodes = (
"295 0 LINE",
"905 0 LINE",
"965 232 LINE",
"925 232 LINE",
"849 68 OFFCURVE",
"787 30 OFFCURVE",
"698 30 CURVE SMOOTH",
"295 30 LINE"
);
},
{
closed = 1;
nodes = (
"567 374 LINE",
"654 374 LINE SMOOTH",
"714 374 OFFCURVE",
"752 348 OFFCURVE",
"752 227 CURVE",
"786 227 LINE",
"851 535 LINE",
"816 535 LINE",
"786 441 OFFCURVE",
"737 404 OFFCURVE",
"670 404 CURVE SMOOTH",
"567 404 LINE"
);
},
{
closed = 1;
nodes = (
"88 30 LINE",
"-102 30 LINE",
"-102 0 LINE",
"88 0 LINE"
);
},
{
closed = 1;
nodes = (
"542 734 LINE",
"505 741 LINE",
"-56 20 LINE",
"-14 20 LINE"
);
},
{
closed = 1;
nodes = (
"130 212 LINE",
"439 212 LINE",
"439 245 LINE",
"130 245 LINE"
);
}
);
width = 998;
}
);
leftKerningGroup = AE;
rightKerningGroup = E;
unicode = 00C6;
},
{
glyphname = B;
lastChange = "2016-08-16 11:12:44 +0000";
layers = (
{
layerId = "426C3F01-D24D-4224-A47E-56DA036E4742";
paths = (
{
closed = 1;
nodes = (
"360 754 LINE",
"243 754 LINE",
"79 0 LINE",
"192 0 LINE"
);
},
{
closed = 1;
nodes = (
"144 754 LINE",
"144 729 LINE",
"423 729 LINE SMOOTH",
"526 729 OFFCURVE",
"553 690 OFFCURVE",
"553 609 CURVE SMOOTH",
"553 490 OFFCURVE",
"494 403 OFFCURVE",
"399 403 CURVE SMOOTH",
"201 403 LINE",
"201 378 LINE",
"343 378 LINE SMOOTH",
"546 378 OFFCURVE",
"680 464 OFFCURVE",
"680 586 CURVE SMOOTH",
"680 684 OFFCURVE",
"593 754 OFFCURVE",
"423 754 CURVE SMOOTH"
);
},
{
closed = 1;
nodes = (
"374 0 LINE SMOOTH",
"540 0 OFFCURVE",
"632 85 OFFCURVE",
"632 198 CURVE SMOOTH",
"632 285 OFFCURVE",
"576 348 OFFCURVE",
"465 386 CURVE",
"465 390 LINE",
"343 378 LINE",
"378 378 LINE",
"458 378 OFFCURVE",
"503 337 OFFCURVE",
"503 236 CURVE SMOOTH",
"503 107 OFFCURVE",
"430 25 OFFCURVE",
"346 25 CURVE SMOOTH",
"-7 25 LINE",
"-7 0 LINE"
);
}
);
width = 674;
},
{
layerId = "DD3DBCA6-CF88-4DA3-ACF4-A2FFC969FFEC";
paths = (
{
closed = 1;
nodes = (
"366 754 LINE",
"215 754 LINE",
"51 0 LINE",
"198 0 LINE"
);
},
{
closed = 1;
nodes = (
"110 754 LINE",
"110 724 LINE",
"419 724 LINE SMOOTH",
"498 724 OFFCURVE",
"518 689 OFFCURVE",
"518 615 CURVE SMOOTH",
"518 489 OFFCURVE",
"461 409 OFFCURVE",
"359 409 CURVE SMOOTH",
"167 409 LINE",
"167 379 LINE",
"331 379 LINE SMOOTH",
"558 379 OFFCURVE",
"684 455 OFFCURVE",
"684 584 CURVE SMOOTH",
"684 684 OFFCURVE",
"607 754 OFFCURVE",
"431 754 CURVE SMOOTH"
);
},
{
closed = 1;
nodes = (
"170 409 LINE",
"170 379 LINE",
"379 379 LINE SMOOTH",
"453 379 OFFCURVE",
"471 331 OFFCURVE",
"471 256 CURVE SMOOTH",
"471 104 OFFCURVE",
"398 31 OFFCURVE",
"291 31 CURVE SMOOTH",
"-28 31 LINE",
"-28 0 LINE",
"370 0 LINE SMOOTH",
"519 0 OFFCURVE",
"644 82 OFFCURVE",
"644 224 CURVE SMOOTH",
"644 310 OFFCURVE",
"598 363 OFFCURVE",
"485 389 CURVE",
"485 393 LINE",
"460 398 OFFCURVE",
"422 409 OFFCURVE",
"391 409 CURVE SMOOTH"
);
}
);
width = 694;
}
);
unicode = 0042;
},
{
glyphname = C;
lastChange = "2016-08-16 11:12:44 +0000";
layers = (
{
layerId = "426C3F01-D24D-4224-A47E-56DA036E4742";
paths = (
{
closed = 1;
nodes = (
"355 19 LINE SMOOTH",
"266 19 OFFCURVE",
"217 64 OFFCURVE",
"217 207 CURVE SMOOTH",
"217 389 OFFCURVE",
"297 736 OFFCURVE",
"489 736 CURVE SMOOTH",
"578 736 OFFCURVE",
"648 662 OFFCURVE",
"648 541 CURVE",
"673 541 LINE",
"720 754 LINE",
"695 754 LINE",
"646 702 LINE",
"601 746 OFFCURVE",
"557 765 OFFCURVE",
"496 765 CURVE SMOOTH",
"275 765 OFFCURVE",
"79 515 OFFCURVE",
"79 288 CURVE SMOOTH",
"79 127 OFFCURVE",
"177 -13 OFFCURVE",
"348 -13 CURVE SMOOTH",
"420 -13 OFFCURVE",
"484 12 OFFCURVE",
"539 49 CURVE",
"569 0 LINE",
"594 0 LINE",
"647 206 LINE",
"622 206 LINE",
"532 56 OFFCURVE",
"435 19 OFFCURVE",
"355 19 CURVE SMOOTH"
);
}
);
width = 693;
},
{
layerId = "DD3DBCA6-CF88-4DA3-ACF4-A2FFC969FFEC";
paths = (
{
closed = 1;
nodes = (
"357 24 LINE SMOOTH",
"282 24 OFFCURVE",
"241 68 OFFCURVE",
"241 200 CURVE SMOOTH",
"241 390 OFFCURVE",
"327 731 OFFCURVE",
"495 731 CURVE SMOOTH",
"576 731 OFFCURVE",
"643 652 OFFCURVE",
"643 521 CURVE",
"673 521 LINE",
"720 754 LINE",
"685 754 LINE",
"641 707 LINE",
"599 748 OFFCURVE",
"557 765 OFFCURVE",
"501 765 CURVE SMOOTH",
"289 765 OFFCURVE",
"64 517 OFFCURVE",
"64 283 CURVE SMOOTH",
"64 128 OFFCURVE",
"162 -13 OFFCURVE",
"344 -13 CURVE SMOOTH",
"414 -13 OFFCURVE",
"474 8 OFFCURVE",
"529 34 CURVE",
"559 0 LINE",
"589 0 LINE",
"642 206 LINE",
"612 206 LINE",
"523 59 OFFCURVE",
"424 24 OFFCURVE",
"357 24 CURVE SMOOTH"
);
}
);
width = 681;
}
);
leftKerningGroup = C;
rightKerningGroup = C;
unicode = 0043;
},
{
glyphname = D;
lastChange = "2016-08-16 11:12:44 +0000";
layers = (
{
layerId = "426C3F01-D24D-4224-A47E-56DA036E4742";
paths = (
{
closed = 1;
nodes = (
"353 754 LINE",
"236 754 LINE",
"72 0 LINE",
"185 0 LINE"
);
},
{
closed = 1;
nodes = (
"745 438 LINE SMOOTH",
"745 634 OFFCURVE",
"623 754 OFFCURVE",
"416 754 CURVE SMOOTH",
"137 754 LINE",
"137 729 LINE",
"416 729 LINE SMOOTH",
"553 729 OFFCURVE",
"617 667 OFFCURVE",
"617 498 CURVE SMOOTH",
"617 223 OFFCURVE",
"485 27 OFFCURVE",
"300 27 CURVE SMOOTH",
"-14 27 LINE",
"-14 0 LINE",
"312 0 LINE SMOOTH",
"564 0 OFFCURVE",
"745 189 OFFCURVE",
"745 438 CURVE SMOOTH"
);
}
);
width = 764;
},
{
layerId = "DD3DBCA6-CF88-4DA3-ACF4-A2FFC969FFEC";
paths = (
{
closed = 1;
nodes = (
"363 754 LINE",
"212 754 LINE",
"48 0 LINE",
"195 0 LINE"
);
},
{
closed = 1;
nodes = (
"748 438 LINE SMOOTH",
"748 634 OFFCURVE",
"643 754 OFFCURVE",
"436 754 CURVE SMOOTH",
"100 754 LINE",
"100 724 LINE",
"429 724 LINE SMOOTH",
"574 724 OFFCURVE",
"590 631 OFFCURVE",
"590 518 CURVE SMOOTH",
"590 215 OFFCURVE",
"474 32 OFFCURVE",
"296 32 CURVE SMOOTH",
"-41 32 LINE",
"-41 0 LINE",
"325 0 LINE SMOOTH",
"571 0 OFFCURVE",
"748 209 OFFCURVE",
"748 438 CURVE SMOOTH"
);
}
);
width = 770;
}
);
leftKerningGroup = D;
rightKerningGroup = D;
unicode = 0044;
},
{
glyphname = Eth;
lastChange = "2016-08-16 11:12:44 +0000";
layers = (
{
components = (
{
name = D;
}
);
layerId = "426C3F01-D24D-4224-A47E-56DA036E4742";
paths = (
{
closed = 1;
nodes = (
"16 367 LINE",
"381 367 LINE",
"381 402 LINE",
"16 402 LINE"
);
}
);
width = 764;
},
{
components = (
{
name = D;
}
);
layerId = "DD3DBCA6-CF88-4DA3-ACF4-A2FFC969FFEC";
paths = (
{
closed = 1;
nodes = (
"39 362 LINE",
"404 362 LINE",
"404 402 LINE",
"39 402 LINE"
);
}
);
width = 770;
}
);
rightKerningGroup = D;
unicode = 00D0;
},
{
glyphname = Dcroat;
lastChange = "2016-08-16 11:12:44 +0000";
layers = (
{
components = (
{
name = D;
}
);
layerId = "426C3F01-D24D-4224-A47E-56DA036E4742";
paths = (
{
closed = 1;
nodes = (
"16 367 LINE",
"381 367 LINE",
"381 402 LINE",
"16 402 LINE"
);
}
);
width = 764;
},
{
components = (
{
name = D;
}
);
layerId = "DD3DBCA6-CF88-4DA3-ACF4-A2FFC969FFEC";
paths = (
{
closed = 1;
nodes = (
"39 362 LINE",
"404 362 LINE",
"404 402 LINE",
"39 402 LINE"
);
}
);
width = 770;
}
);
rightKerningGroup = D;
unicode = 0110;
},
{
glyphname = E;
lastChange = "2016-08-16 11:12:44 +0000";
layers = (
{
layerId = "426C3F01-D24D-4224-A47E-56DA036E4742";
paths = (
{
closed = 1;
nodes = (
"340 754 LINE",
"223 754 LINE",
"59 0 LINE",
"172 0 LINE"
);
},
{
closed = 1;
nodes = (
"114 729 LINE",
"444 729 LINE SMOOTH",
"586 729 OFFCURVE",
"615 692 OFFCURVE",
"615 553 CURVE",
"645 553 LINE",
"673 754 LINE",
"114 754 LINE"
);
},
{
closed = 1;
nodes = (
"207 378 LINE",
"294 378 LINE SMOOTH",
"377 378 OFFCURVE",
"392 351 OFFCURVE",
"392 226 CURVE",
"422 226 LINE",
"481 534 LINE",
"456 534 LINE",
"425 430 OFFCURVE",
"390 403 OFFCURVE",
"310 403 CURVE SMOOTH",
"207 403 LINE"
);
},
{
closed = 1;
nodes = (
"-37 0 LINE",
"553 0 LINE",
"613 232 LINE",
"583 232 LINE",
"507 64 OFFCURVE",
"445 25 OFFCURVE",
"356 25 CURVE SMOOTH",
"-37 25 LINE"
);
}
);
width = 662;
},
{
layerId = "DD3DBCA6-CF88-4DA3-ACF4-A2FFC969FFEC";
paths = (
{
closed = 1;
nodes = (
"394 754 LINE",
"243 754 LINE",
"79 0 LINE",
"226 0 LINE"
);
},
{
closed = 1;
nodes = (
"128 724 LINE",
"488 724 LINE SMOOTH",
"612 724 OFFCURVE",
"649 687 OFFCURVE",
"649 548 CURVE",
"689 548 LINE",
"725 754 LINE",
"128 754 LINE"
);
},
{
closed = 1;
nodes = (
"-13 0 LINE",
"597 0 LINE",
"657 232 LINE",
"617 232 LINE",
"541 68 OFFCURVE",
"479 30 OFFCURVE",
"390 30 CURVE SMOOTH",
"-13 30 LINE"
);
},
{
closed = 1;
nodes = (
"259 374 LINE",
"346 374 LINE SMOOTH",
"406 374 OFFCURVE",
"444 348 OFFCURVE",
"444 227 CURVE",
"478 227 LINE",
"543 535 LINE",
"508 535 LINE",
"478 441 OFFCURVE",
"429 404 OFFCURVE",
"362 404 CURVE SMOOTH",
"259 404 LINE"
);
}
);
width = 690;
}
);
leftKerningGroup = E;
rightKerningGroup = E;
unicode = 0045;
},
{
glyphname = F;
lastChange = "2016-08-16 11:12:44 +0000";
layers = (
{
layerId = "426C3F01-D24D-4224-A47E-56DA036E4742";
paths = (
{
closed = 1;
nodes = (
"379 754 LINE",
"262 754 LINE",
"98 0 LINE",
"211 0 LINE"
);
},
{
closed = 1;
nodes = (
"153 729 LINE",
"483 729 LINE SMOOTH",
"622 729 OFFCURVE",
"651 692 OFFCURVE",
"651 529 CURVE",
"681 529 LINE",
"712 754 LINE",
"153 754 LINE"
);
},
{
closed = 1;
nodes = (
"2 0 LINE",
"321 0 LINE",
"321 25 LINE",
"2 25 LINE"
);
},
{
closed = 1;
nodes = (
"235 376 LINE",
"322 376 LINE SMOOTH",
"405 376 OFFCURVE",
"420 349 OFFCURVE",
"420 224 CURVE",
"450 224 LINE",
"506 528 LINE",
"481 528 LINE",
"450 428 OFFCURVE",
"415 401 OFFCURVE",
"338 401 CURVE SMOOTH",
"235 401 LINE"
);
}
);
width = 635;
},
{
layerId = "DD3DBCA6-CF88-4DA3-ACF4-A2FFC969FFEC";
paths = (
{
closed = 1;
nodes = (
"382 754 LINE",
"231 754 LINE",
"67 0 LINE",
"214 0 LINE"
);
},
{
closed = 1;
nodes = (
"116 724 LINE",
"476 724 LINE SMOOTH",
"600 724 OFFCURVE",
"637 687 OFFCURVE",
"637 548 CURVE",
"677 548 LINE",
"713 754 LINE",
"116 754 LINE"
);
},
{
closed = 1;
nodes = (
"247 374 LINE",
"334 374 LINE SMOOTH",
"394 374 OFFCURVE",
"432 348 OFFCURVE",
"432 227 CURVE",
"466 227 LINE",
"531 535 LINE",
"496 535 LINE",
"466 441 OFFCURVE",
"417 404 OFFCURVE",
"350 404 CURVE SMOOTH",
"247 404 LINE"
);
},
{
closed = 1;
nodes = (
"-20 0 LINE",
"349 0 LINE",
"349 31 LINE",
"-20 31 LINE"
);
}
);
width = 659;
}
);
unicode = 0046;
},
{
glyphname = G;
lastChange = "2016-08-16 11:12:44 +0000";
layers = (
{
layerId = "426C3F01-D24D-4224-A47E-56DA036E4742";
paths = (
{
closed = 1;
nodes = (
"363 19 LINE SMOOTH",
"271 19 OFFCURVE",
"222 62 OFFCURVE",
"222 205 CURVE SMOOTH",
"222 390 OFFCURVE",
"304 736 OFFCURVE",
"505 736 CURVE SMOOTH",
"598 736 OFFCURVE",
"673 662 OFFCURVE",
"673 541 CURVE",
"698 541 LINE",
"745 754 LINE",
"720 754 LINE",
"671 702 LINE",
"618 751 OFFCURVE",
"569 765 OFFCURVE",
"509 765 CURVE SMOOTH",
"259 765 OFFCURVE",
"84 519 OFFCURVE",
"84 314 CURVE SMOOTH",
"84 188 OFFCURVE",
"149 -13 OFFCURVE",
"375 -13 CURVE SMOOTH",
"519 -13 OFFCURVE",
"652 69 OFFCURVE",
"702 256 CURVE",
"547 256 LINE",
"515 76 OFFCURVE",
"469 19 OFFCURVE",
"363 19 CURVE SMOOTH"
);
},
{
closed = 1;
nodes = (
"441 253 LINE",
"778 253 LINE",
"778 278 LINE",
"441 278 LINE"
);
}
);
width = 749;
},
{
layerId = "DD3DBCA6-CF88-4DA3-ACF4-A2FFC969FFEC";
paths = (
{
closed = 1;
nodes = (
"363 24 LINE SMOOTH",
"290 24 OFFCURVE",
"248 73 OFFCURVE",
"248 207 CURVE SMOOTH",
"248 399 OFFCURVE",
"335 731 OFFCURVE",
"502 731 CURVE SMOOTH",
"585 731 OFFCURVE",
"651 650 OFFCURVE",
"651 521 CURVE",
"681 521 LINE",
"728 754 LINE",
"693 754 LINE",
"649 707 LINE",
"607 748 OFFCURVE",
"565 765 OFFCURVE",
"509 765 CURVE SMOOTH",
"297 765 OFFCURVE",
"72 525 OFFCURVE",
"72 287 CURVE SMOOTH",
"72 134 OFFCURVE",
"165 -13 OFFCURVE",
"364 -13 CURVE SMOOTH",
"473 -13 OFFCURVE",
"561 31 OFFCURVE",
"671 130 CURVE",
"698 243 LINE",
"522 243 LINE",
"494 65 OFFCURVE",
"430 24 OFFCURVE",
"363 24 CURVE SMOOTH"
);
},
{
closed = 1;
nodes = (
"423 237 LINE",
"773 237 LINE",
"773 267 LINE",
"423 267 LINE"
);
}
);
width = 762;
}
);
leftKerningGroup = G;
rightKerningGroup = G;
unicode = 0047;
},
{
glyphname = H;
lastChange = "2016-08-16 11:12:44 +0000";
layers = (
{
layerId = "426C3F01-D24D-4224-A47E-56DA036E4742";
paths = (
{
closed = 1;
nodes = (
"152 729 LINE",
"441 729 LINE",
"441 754 LINE",
"152 754 LINE"
);
},
{
closed = 1;
nodes = (
"580 729 LINE",
"876 729 LINE",
"876 754 LINE",
"580 754 LINE"
);
},
{
closed = 1;
nodes = (
"192 377 LINE",
"631 377 LINE",
"631 405 LINE",
"192 405 LINE"
);
},
{
closed = 1;
nodes = (
"-1 0 LINE",
"288 0 LINE",
"288 25 LINE",
"-1 25 LINE"
);
},
{
closed = 1;
nodes = (
"431 0 LINE",
"727 0 LINE",
"727 25 LINE",
"431 25 LINE"
);
},
{
closed = 1;
nodes = (
"356 754 LINE",
"239 754 LINE",
"75 0 LINE",
"188 0 LINE"
);
},
{
closed = 1;
nodes = (
"793 754 LINE",
"676 754 LINE",
"512 0 LINE",
"625 0 LINE"
);
}
);
width = 787;
},
{
layerId = "DD3DBCA6-CF88-4DA3-ACF4-A2FFC969FFEC";
paths = (
{
closed = 1;
nodes = (
"389 754 LINE",
"238 754 LINE",
"74 0 LINE",
"221 0 LINE"
);
},
{
closed = 1;
nodes = (
"138 724 LINE",
"477 724 LINE",
"477 754 LINE",
"138 754 LINE"
);
},
{
closed = 1;
nodes = (
"-13 0 LINE",
"336 0 LINE",
"336 31 LINE",
"-13 31 LINE"
);
},
{
closed = 1;
nodes = (
"798 754 LINE",
"647 754 LINE",
"483 0 LINE",
"630 0 LINE"
);
},
{
closed = 1;
nodes = (
"547 724 LINE",
"886 724 LINE",
"886 754 LINE",
"547 754 LINE"
);
},
{
closed = 1;
nodes = (
"396 0 LINE",
"745 0 LINE",
"745 31 LINE",
"396 31 LINE"
);
},
{
closed = 1;
nodes = (
"269 365 LINE",
"608 365 LINE",
"608 395 LINE",
"269 395 LINE"
);
}
);
width = 807;
}
);
leftKerningGroup = H;
rightKerningGroup = H;
unicode = 0048;
},
{
glyphname = Hbar;
lastChange = "2016-08-16 11:12:44 +0000";
layers = (
{
components = (
{
name = H;
}
);
layerId = "426C3F01-D24D-4224-A47E-56DA036E4742";
paths = (
{
closed = 1;
nodes = (
"88 548 LINE",
"857 548 LINE",
"857 578 LINE",
"88 578 LINE"
);
}
);
width = 787;
},
{
components = (
{
name = H;
}
);
layerId = "DD3DBCA6-CF88-4DA3-ACF4-A2FFC969FFEC";
paths = (
{
closed = 1;
nodes = (
"100 538 LINE",
"869 538 LINE",
"869 578 LINE",
"100 578 LINE"
);
}
);
width = 807;
}
);
unicode = 0126;
},
{
glyphname = I;
lastChange = "2016-08-16 11:12:44 +0000";
layers = (
{
layerId = "426C3F01-D24D-4224-A47E-56DA036E4742";
paths = (
{
closed = 1;
nodes = (
"361 754 LINE",
"244 754 LINE",
"80 0 LINE",
"193 0 LINE"
);
},
{
closed = 1;
nodes = (
"145 729 LINE",
"444 729 LINE",
"444 754 LINE",
"145 754 LINE"
);
},
{
closed = 1;
nodes = (
"-6 0 LINE",
"303 0 LINE",
"303 25 LINE",
"-6 25 LINE"
);
}
);
width = 360;
},
{
layerId = "DD3DBCA6-CF88-4DA3-ACF4-A2FFC969FFEC";
paths = (
{
closed = 1;
nodes = (
"375 754 LINE",
"224 754 LINE",
"60 0 LINE",
"207 0 LINE"
);
},
{
closed = 1;
nodes = (
"144 724 LINE",
"443 724 LINE",
"443 754 LINE",
"144 754 LINE"
);
},
{
closed = 1;
nodes = (
"-7 0 LINE",
"302 0 LINE",
"302 31 LINE",
"-7 31 LINE"
);
}
);
width = 390;
}
);
leftKerningGroup = I;
rightKerningGroup = I;
unicode = 0049;
},
{
glyphname = J;
lastChange = "2016-08-16 11:12:44 +0000";
layers = (
{
layerId = "426C3F01-D24D-4224-A47E-56DA036E4742";
paths = (
{
closed = 1;
nodes = (
"387 754 LINE",
"270 754 LINE",
"121 71 LINE SMOOTH",
"91 -67 OFFCURVE",
"55 -71 OFFCURVE",
"37 -71 CURVE SMOOTH",
"14 -71 OFFCURVE",
"1 -65 OFFCURVE",
"1 -50 CURVE SMOOTH",
"1 -31 OFFCURVE",
"23 -21 OFFCURVE",
"23 7 CURVE SMOOTH",
"23 33 OFFCURVE",
"4 60 OFFCURVE",
"-31 60 CURVE SMOOTH",
"-65 60 OFFCURVE",
"-92 34 OFFCURVE",
"-92 -8 CURVE SMOOTH",
"-92 -60 OFFCURVE",
"-50 -101 OFFCURVE",
"30 -101 CURVE SMOOTH",
"131 -101 OFFCURVE",
"211 -36 OFFCURVE",
"253 152 CURVE SMOOTH"
);
},
{
closed = 1;
nodes = (
"181 729 LINE",
"470 729 LINE",
"470 754 LINE",
"181 754 LINE"
);
}
);
width = 368;
},
{
layerId = "DD3DBCA6-CF88-4DA3-ACF4-A2FFC969FFEC";
paths = (
{
closed = 1;
nodes = (
"423 754 LINE",
"272 754 LINE",
"114 34 LINE SMOOTH",
"93 -64 OFFCURVE",
"73 -83 OFFCURVE",
"45 -83 CURVE SMOOTH",
"27 -83 OFFCURVE",
"19 -75 OFFCURVE",
"19 -65 CURVE SMOOTH",
"19 -48 OFFCURVE",
"47 -31 OFFCURVE",
"47 12 CURVE SMOOTH",
"47 59 OFFCURVE",
"13 84 OFFCURVE",
"-24 84 CURVE SMOOTH",
"-73 84 OFFCURVE",
"-101 39 OFFCURVE",
"-101 -3 CURVE SMOOTH",
"-101 -61 OFFCURVE",
"-49 -119 OFFCURVE",
"41 -119 CURVE SMOOTH",
"141 -119 OFFCURVE",
"257 -46 OFFCURVE",
"296 142 CURVE SMOOTH"
);
},
{
closed = 1;
nodes = (
"162 724 LINE",
"491 724 LINE",
"491 754 LINE",
"162 754 LINE"
);
}
);
width = 440;
}
);
leftKerningGroup = J;
rightKerningGroup = J;
unicode = 004A;
},
{
glyphname = K;
lastChange = "2016-08-16 11:12:44 +0000";
layers = (
{
layerId = "426C3F01-D24D-4224-A47E-56DA036E4742";
paths = (
{
closed = 1;
nodes = (
"382 754 LINE",
"265 754 LINE",
"101 0 LINE",
"214 0 LINE"
);
},
{
closed = 1;
nodes = (
"156 729 LINE",
"475 729 LINE",
"475 754 LINE",
"156 754 LINE"
);
},
{
closed = 1;
nodes = (
"15 0 LINE",
"324 0 LINE",
"324 25 LINE",
"15 25 LINE"
);
},
{
closed = 1;
nodes = (
"418 0 LINE",
"764 0 LINE",
"764 25 LINE",
"418 25 LINE"
);
},
{
closed = 1;
nodes = (
"421 461 LINE",
"322 395 LINE",
"541 9 LINE",
"673 9 LINE"
);
},
{
closed = 1;
nodes = (
"322 395 LINE",
"365 395 LINE",
"730 734 LINE",
"687 734 LINE"
);
},
{
closed = 1;
nodes = (
"568 729 LINE",
"833 729 LINE",
"833 754 LINE",
"568 754 LINE"
);
}
);
width = 726;
},
{
layerId = "DD3DBCA6-CF88-4DA3-ACF4-A2FFC969FFEC";
paths = (
{
closed = 1;
nodes = (
"389 754 LINE",
"238 754 LINE",
"74 0 LINE",
"221 0 LINE"
);
},
{
closed = 1;
nodes = (
"158 724 LINE",
"457 724 LINE",
"457 754 LINE",
"158 754 LINE"
);
},
{
closed = 1;
nodes = (
"7 0 LINE",
"316 0 LINE",
"316 31 LINE",
"7 31 LINE"
);
},
{
closed = 1;
nodes = (
"394 0 LINE",
"750 0 LINE",
"750 30 LINE",
"394 30 LINE"
);
},
{
closed = 1;
nodes = (
"457 472 LINE",
"328 395 LINE",
"497 9 LINE",
"674 9 LINE"
);
},
{
closed = 1;
nodes = (
"328 395 LINE",
"380 395 LINE",
"765 734 LINE",
"713 734 LINE"
);
},
{
closed = 1;
nodes = (
"551 724 LINE",
"816 724 LINE",
"816 754 LINE",
"551 754 LINE"
);
}
);
width = 738;
}
);
leftKerningGroup = K;
rightKerningGroup = K;
unicode = 004B;
},
{
glyphname = L;
lastChange = "2016-08-16 11:12:44 +0000";
layers = (
{
layerId = "426C3F01-D24D-4224-A47E-56DA036E4742";
paths = (
{
closed = 1;
nodes = (
"335 754 LINE",
"218 754 LINE",
"54 0 LINE",
"167 0 LINE"
);
},
{
closed = 1;
nodes = (
"129 729 LINE",
"418 729 LINE",
"418 754 LINE",
"129 754 LINE"
);
},
{
closed = 1;
nodes = (
"-22 0 LINE",
"536 0 LINE",
"596 232 LINE",
"566 232 LINE",
"490 64 OFFCURVE",
"428 25 OFFCURVE",
"339 25 CURVE SMOOTH",
"-22 25 LINE"
);
}
);
width = 598;
},
{
layerId = "DD3DBCA6-CF88-4DA3-ACF4-A2FFC969FFEC";
paths = (
{
closed = 1;
nodes = (
"378 754 LINE",
"227 754 LINE",
"63 0 LINE",
"210 0 LINE"
);
},
{
closed = 1;
nodes = (
"-29 0 LINE",
"561 0 LINE",
"621 232 LINE",
"581 232 LINE",
"505 78 OFFCURVE",
"423 30 OFFCURVE",
"344 30 CURVE SMOOTH",
"-29 30 LINE"
);
},
{
closed = 1;
nodes = (
"107 724 LINE",
"486 724 LINE",
"486 754 LINE",
"107 754 LINE"
);
}
);
width = 626;
}
);
leftKerningGroup = L;
rightKerningGroup = L;
unicode = 004C;
},
{
glyphname = Lslash;
lastChange = "2016-08-16 11:12:44 +0000";
layers = (
{
components = (
{
name = L;
}
);
layerId = "426C3F01-D24D-4224-A47E-56DA036E4742";
paths = (
{
closed = 1;
nodes = (
"12 237 LINE",
"399 463 LINE",
"399 503 LINE",
"12 277 LINE"
);
}
);
width = 598;
},
{
components = (
{
name = L;
}
);
layerId = "DD3DBCA6-CF88-4DA3-ACF4-A2FFC969FFEC";
paths = (
{
closed = 1;
nodes = (
"18 227 LINE",
"452 453 LINE",
"463 503 LINE",
"29 277 LINE"
);
}
);
width = 626;
}
);
unicode = 0141;
},
{
glyphname = M;
lastChange = "2016-08-16 11:12:44 +0000";
layers = (
{
layerId = "426C3F01-D24D-4224-A47E-56DA036E4742";
paths = (
{
closed = 1;
nodes = (
"876 754 LINE",
"759 754 LINE",
"595 0 LINE",
"708 0 LINE"
);
},
{
closed = 1;
nodes = (
"166 729 LINE",
"408 729 LINE",
"408 754 LINE",
"166 754 LINE"
);
},
{
closed = 1;
nodes = (
"509 0 LINE",
"825 0 LINE",
"825 25 LINE",
"509 25 LINE"
);
},
{
closed = 1;
nodes = (
"14 0 LINE",
"236 0 LINE",
"236 25 LINE",
"14 25 LINE"
);
},
{
closed = 1;
nodes = (
"295 754 LINE",
"265 754 LINE",
"101 0 LINE",
"131 0 LINE"
);
},
{
closed = 1;
nodes = (
"408 754 LINE",
"284 754 LINE",
"284 705 LINE",
"288 705 LINE",
"347 0 LINE",
"368 0 LINE",
"458 227 LINE",
"454 227 LINE"
);
},
{
closed = 1;
nodes = (
"458 227 LINE",
"368 0 LINE",
"798 754 LINE",
"759 754 LINE"
);
},
{
closed = 1;
nodes = (
"759 729 LINE",
"975 729 LINE",
"975 754 LINE",
"759 754 LINE"
);
}
);
width = 879;
},
{
layerId = "DD3DBCA6-CF88-4DA3-ACF4-A2FFC969FFEC";
paths = (
{
closed = 1;
nodes = (
"907 754 LINE",
"756 754 LINE",
"592 0 LINE",
"739 0 LINE"
);
},
{
closed = 1;
nodes = (
"786 724 LINE",
"995 724 LINE",
"995 754 LINE",
"786 754 LINE"
);
},
{
closed = 1;
nodes = (
"505 0 LINE",
"854 0 LINE",
"854 31 LINE",
"505 31 LINE"
);
},
{
closed = 1;
nodes = (
"164 724 LINE",
"420 724 LINE",
"420 754 LINE",
"164 754 LINE"
);
},
{
closed = 1;
nodes = (
"12 0 LINE",
"234 0 LINE",
"234 30 LINE",
"12 30 LINE"
);
},
{
closed = 1;
nodes = (
"293 754 LINE",
"253 754 LINE",
"89 0 LINE",
"129 0 LINE"
);
},
{
closed = 1;
nodes = (
"420 754 LINE",
"282 754 LINE",
"265 626 LINE",
"269 626 LINE",
"345 0 LINE",
"366 0 LINE",
"480 272 LINE",
"476 272 LINE"
);
},
{
closed = 1;
nodes = (
"480 272 LINE",
"366 0 LINE",
"723 626 LINE",
"729 626 LINE",
"796 754 LINE",
"747 754 LINE"
);
}
);
width = 907;
}
);
unicode = 004D;
},
{
glyphname = N;
lastChange = "2016-08-16 11:12:44 +0000";
layers = (
{
layerId = "426C3F01-D24D-4224-A47E-56DA036E4742";
paths = (
{
closed = 1;
nodes = (
"147 729 LINE",
"399 729 LINE",
"399 754 LINE",
"147 754 LINE"
);
},
{
closed = 1;
nodes = (
"-5 0 LINE",
"237 0 LINE",
"237 25 LINE",
"-5 25 LINE"
);
},
{
closed = 1;
nodes = (
"286 754 LINE",
"256 754 LINE",
"92 0 LINE",
"122 0 LINE"
);
},
{
closed = 1;
nodes = (
"399 754 LINE",
"275 754 LINE",
"275 705 LINE",
"279 705 LINE",
"560 -13 LINE",
"580 -13 LINE",
"613 228 LINE",
"609 228 LINE"
);
},
{
closed = 1;
nodes = (
"854 754 LINE",
"612 754 LINE",
"612 729 LINE",
"854 729 LINE"
);
},
{
closed = 1;
nodes = (
"560 -13 LINE",
"590 -13 LINE",
"757 754 LINE",
"727 754 LINE"
);
}
);
width = 769;
},
{
layerId = "DD3DBCA6-CF88-4DA3-ACF4-A2FFC969FFEC";
paths = (
{
closed = 1;
nodes = (
"127 724 LINE",
"384 724 LINE",
"384 754 LINE",
"127 754 LINE"
);
},
{
closed = 1;
nodes = (
"-15 0 LINE",
"222 0 LINE",
"222 30 LINE",
"-15 30 LINE"
);
},
{
closed = 1;
nodes = (
"276 754 LINE",
"236 754 LINE",
"72 0 LINE",
"112 0 LINE"
);
},
{
closed = 1;
nodes = (
"612 724 LINE",
"830 724 LINE",
"830 754 LINE",
"612 754 LINE"
);
},
{
closed = 1;
nodes = (
"753 754 LINE",
"713 754 LINE",
"549 0 LINE",
"564 -13 LINE",
"586 -13 LINE"
);
},
{
closed = 1;
nodes = (
"384 754 LINE",
"270 754 LINE",
"251 637 LINE",
"255 637 LINE",
"555 -13 LINE",
"575 -13 LINE",
"611 285 LINE",
"607 285 LINE"
);
}
);
width = 749;
}
);
leftKerningGroup = N;
rightKerningGroup = N;
unicode = 004E;
},
{
glyphname = Eng;
lastChange = "2016-08-16 11:12:44 +0000";
layers = (
{
layerId = "426C3F01-D24D-4224-A47E-56DA036E4742";
paths = (
{
closed = 1;
nodes = (
"753 737 LINE",
"723 737 LINE",
"567 19 LINE SMOOTH",
"537 -117 OFFCURVE",
"495 -129 OFFCURVE",
"472 -129 CURVE SMOOTH",
"454 -129 OFFCURVE",
"445 -122 OFFCURVE",
"445 -107 CURVE SMOOTH",
"445 -83 OFFCURVE",
"467 -73 OFFCURVE",
"467 -48 CURVE SMOOTH",
"467 -24 OFFCURVE",
"448 3 OFFCURVE",
"413 3 CURVE SMOOTH",
"379 3 OFFCURVE",
"352 -23 OFFCURVE",
"352 -64 CURVE SMOOTH",
"352 -118 OFFCURVE",
"397 -158 OFFCURVE",
"456 -158 CURVE SMOOTH",
"537 -158 OFFCURVE",
"572 -81 OFFCURVE",
"598 35 CURVE SMOOTH"
);
},
{
closed = 1;
nodes = (
"147 729 LINE",
"399 729 LINE",
"399 754 LINE",
"147 754 LINE"
);
},
{
closed = 1;
nodes = (
"-5 0 LINE",
"237 0 LINE",
"237 25 LINE",
"-5 25 LINE"
);
},
{
closed = 1;
nodes = (
"286 754 LINE",
"256 754 LINE",
"92 0 LINE",
"122 0 LINE"
);
},
{
closed = 1;
nodes = (
"399 754 LINE",
"275 754 LINE",
"275 705 LINE",
"279 705 LINE",
"573 47 LINE",
"593 47 LINE",
"625 286 LINE",
"621 286 LINE"
);
},
{
closed = 1;
nodes = (
"854 754 LINE",
"612 754 LINE",
"612 729 LINE",
"854 729 LINE"
);
}
);
width = 769;
},
{
layerId = "DD3DBCA6-CF88-4DA3-ACF4-A2FFC969FFEC";
paths = (
{
closed = 1;
nodes = (
"127 724 LINE",
"384 724 LINE",
"384 754 LINE",
"127 754 LINE"
);
},
{
closed = 1;
nodes = (
"-15 0 LINE",
"222 0 LINE",
"222 30 LINE",
"-15 30 LINE"
);
},
{
closed = 1;
nodes = (
"276 754 LINE",
"236 754 LINE",
"72 0 LINE",
"112 0 LINE"
);
},
{
closed = 1;
nodes = (
"612 724 LINE",
"830 724 LINE",
"830 754 LINE",
"612 754 LINE"
);
},
{
closed = 1;
nodes = (
"384 754 LINE",
"270 754 LINE",
"251 637 LINE",
"255 637 LINE",
"567 39 LINE",
"587 39 LINE",
"623 337 LINE",
"619 337 LINE"
);
},
{
closed = 1;
nodes = (
"751 737 LINE",
"711 737 LINE",
"548 -4 LINE SMOOTH",
"528 -93 OFFCURVE",
"498 -114 OFFCURVE",
"471 -114 CURVE SMOOTH",
"450 -114 OFFCURVE",
"443 -105 OFFCURVE",
"443 -95 CURVE SMOOTH",
"443 -68 OFFCURVE",
"481 -77 OFFCURVE",
"481 -26 CURVE SMOOTH",
"481 21 OFFCURVE",
"447 46 OFFCURVE",
"410 46 CURVE SMOOTH",
"361 46 OFFCURVE",
"333 1 OFFCURVE",
"333 -41 CURVE SMOOTH",
"333 -95 OFFCURVE",
"378 -157 OFFCURVE",
"451 -157 CURVE SMOOTH",
"532 -157 OFFCURVE",
"573 -81 OFFCURVE",
"594 16 CURVE SMOOTH"
);
}
);
width = 751;
}
);
leftKerningGroup = N;
unicode = 014A;
},
{
glyphname = O;
lastChange = "2016-08-16 11:12:44 +0000";
layers = (
{
layerId = "426C3F01-D24D-4224-A47E-56DA036E4742";
paths = (
{
closed = 1;
nodes = (
"343 -11 LINE SMOOTH",
"599 -11 OFFCURVE",
"781 278 OFFCURVE",
"781 475 CURVE SMOOTH",
"781 617 OFFCURVE",
"686 763 OFFCURVE",
"518 763 CURVE SMOOTH",
"300 763 OFFCURVE",
"72 516 OFFCURVE",
"72 280 CURVE SMOOTH",
"72 131 OFFCURVE",
"163 -11 OFFCURVE",
"343 -11 CURVE SMOOTH"
);
},
{
closed = 1;
nodes = (
"520 736 LINE SMOOTH",
"588 736 OFFCURVE",
"651 704 OFFCURVE",
"651 547 CURVE SMOOTH",
"651 377 OFFCURVE",
"578 19 OFFCURVE",
"349 19 CURVE SMOOTH",
"248 19 OFFCURVE",
"210 89 OFFCURVE",
"210 208 CURVE SMOOTH",
"210 390 OFFCURVE",
"298 736 OFFCURVE",
"520 736 CURVE SMOOTH"
);
}
);
width = 769;
},
{
layerId = "DD3DBCA6-CF88-4DA3-ACF4-A2FFC969FFEC";
paths = (
{
closed = 1;
nodes = (
"357 21 LINE SMOOTH",
"278 21 OFFCURVE",
"246 72 OFFCURVE",
"239 170 CURVE SMOOTH",
"238 181 OFFCURVE",
"238 192 OFFCURVE",
"238 194 CURVE SMOOTH",
"238 384 OFFCURVE",
"298 731 OFFCURVE",
"503 731 CURVE SMOOTH",
"613 731 OFFCURVE",
"624 630 OFFCURVE",
"624 551 CURVE SMOOTH",
"624 369 OFFCURVE",
"565 21 OFFCURVE",
"357 21 CURVE SMOOTH"
);
},
{
closed = 1;
nodes = (
"363 -11 LINE SMOOTH",
"589 -11 OFFCURVE",
"798 227 OFFCURVE",
"798 454 CURVE SMOOTH",
"798 630 OFFCURVE",
"672 763 OFFCURVE",
"500 763 CURVE SMOOTH",
"272 763 OFFCURVE",
"65 529 OFFCURVE",
"65 304 CURVE SMOOTH",
"65 129 OFFCURVE",
"190 -11 OFFCURVE",
"363 -11 CURVE SMOOTH"
);
}
);
width = 789;
}
);
leftKerningGroup = O;
rightKerningGroup = O;
unicode = 004F;
},
{
glyphname = Oslash;
lastChange = "2016-08-16 11:12:44 +0000";
layers = (
{
layerId = "426C3F01-D24D-4224-A47E-56DA036E4742";
paths = (
{
closed = 1;
nodes = (
"81 -53 LINE",
"169 49 LINE",
"212 12 OFFCURVE",
"270 -11 OFFCURVE",
"343 -11 CURVE SMOOTH",
"599 -11 OFFCURVE",
"781 278 OFFCURVE",
"781 475 CURVE SMOOTH",
"781 548 OFFCURVE",
"756 622 OFFCURVE",
"709 676 CURVE",
"819 804 LINE",
"781 804 LINE",
"689 697 LINE",
"646 737 OFFCURVE",
"588 763 OFFCURVE",
"518 763 CURVE SMOOTH",
"300 763 OFFCURVE",
"72 516 OFFCURVE",
"72 280 CURVE SMOOTH",
"72 201 OFFCURVE",
"97 123 OFFCURVE",
"148 68 CURVE",
"44 -53 LINE"
);
},
{
closed = 1;
nodes = (
"520 736 LINE SMOOTH",
"571 736 OFFCURVE",
"620 717 OFFCURVE",
"640 640 CURVE",
"214 145 LINE",
"211 164 OFFCURVE",
"210 185 OFFCURVE",
"210 208 CURVE SMOOTH",
"210 390 OFFCURVE",
"298 736 OFFCURVE",
"520 736 CURVE SMOOTH"
);
},
{
closed = 1;
nodes = (
"651 547 LINE SMOOTH",
"651 377 OFFCURVE",
"578 19 OFFCURVE",
"349 19 CURVE SMOOTH",
"279 19 OFFCURVE",
"240 52 OFFCURVE",
"222 111 CURVE",
"647 605 LINE",
"650 588 OFFCURVE",
"651 568 OFFCURVE",
"651 547 CURVE SMOOTH"
);
}
);
width = 769;
},
{
layerId = "DD3DBCA6-CF88-4DA3-ACF4-A2FFC969FFEC";
paths = (
{
closed = 1;
nodes = (
"112 -53 LINE",
"193 42 LINE",
"240 8 OFFCURVE",
"298 -11 OFFCURVE",
"363 -11 CURVE SMOOTH",
"589 -11 OFFCURVE",
"798 227 OFFCURVE",
"798 454 CURVE SMOOTH",
"798 534 OFFCURVE",
"771 606 OFFCURVE",
"726 660 CURVE",
"850 804 LINE",
"792 804 LINE",
"695 692 LINE",
"644 737 OFFCURVE",
"576 763 OFFCURVE",
"500 763 CURVE SMOOTH",
"272 763 OFFCURVE",
"65 529 OFFCURVE",
"65 304 CURVE SMOOTH",
"65 210 OFFCURVE",
"100 127 OFFCURVE",
"160 70 CURVE",
"54 -53 LINE"
);
},
{
closed = 1;
nodes = (
"239 170 LINE SMOOTH",
"238 181 OFFCURVE",
"238 192 OFFCURVE",
"238 194 CURVE SMOOTH",
"238 384 OFFCURVE",
"298 731 OFFCURVE",
"503 731 CURVE SMOOTH",
"588 731 OFFCURVE",
"614 670 OFFCURVE",
"621 606 CURVE",
"239 162 LINE"
);
},
{
closed = 1;
nodes = (
"357 21 LINE SMOOTH",
"297 21 OFFCURVE",
"264 50 OFFCURVE",
"249 106 CURVE",
"624 541 LINE",
"622 357 OFFCURVE",
"561 21 OFFCURVE",
"357 21 CURVE SMOOTH"
);
}
);
width = 789;
}
);
unicode = 00D8;
},
{
glyphname = OE;
lastChange = "2016-08-16 11:12:44 +0000";
layers = (
{
layerId = "426C3F01-D24D-4224-A47E-56DA036E4742";
paths = (
{
closed = 1;
nodes = (
"811 754 LINE",
"694 754 LINE",
"530 0 LINE",
"643 0 LINE"
);
},
{
closed = 1;
nodes = (
"503 729 LINE",
"573 723 LINE",
"672 631 LINE",
"729 729 LINE",
"915 729 LINE SMOOTH",
"1057 729 OFFCURVE",
"1086 692 OFFCURVE",
"1086 553 CURVE",
"1116 553 LINE",
"1144 754 LINE",
"503 754 LINE"
);
},
{
closed = 1;
nodes = (
"678 378 LINE",
"765 378 LINE SMOOTH",
"848 378 OFFCURVE",
"863 351 OFFCURVE",
"863 226 CURVE",
"893 226 LINE",
"952 534 LINE",
"927 534 LINE",
"896 430 OFFCURVE",
"861 403 OFFCURVE",
"781 403 CURVE SMOOTH",
"678 403 LINE"
);
},
{
closed = 1;
nodes = (
"344 0 LINE",
"1024 0 LINE",
"1084 232 LINE",
"1054 232 LINE",
"978 64 OFFCURVE",
"916 25 OFFCURVE",
"827 25 CURVE SMOOTH",
"572 25 LINE",
"571 124 LINE",
"471 49 LINE",
"344 25 LINE"
);
},
{
closed = 1;
nodes = (
"343 0 LINE SMOOTH",
"575 0 OFFCURVE",
"735 279 OFFCURVE",
"735 472 CURVE SMOOTH",
"735 613 OFFCURVE",
"644 754 OFFCURVE",
"503 754 CURVE SMOOTH",
"292 754 OFFCURVE",
"72 516 OFFCURVE",
"72 284 CURVE SMOOTH",
"72 140 OFFCURVE",
"170 0 OFFCURVE",
"343 0 CURVE SMOOTH"
);
},
{
closed = 1;
nodes = (
"508 727 LINE SMOOTH",
"572 727 OFFCURVE",
"631 695 OFFCURVE",
"631 551 CURVE SMOOTH",
"631 373 OFFCURVE",
"551 30 OFFCURVE",
"336 30 CURVE SMOOTH",
"259 30 OFFCURVE",
"210 75 OFFCURVE",
"210 204 CURVE SMOOTH",
"210 389 OFFCURVE",
"295 727 OFFCURVE",
"508 727 CURVE SMOOTH"
);
}
);
width = 1133;
},
{
layerId = "DD3DBCA6-CF88-4DA3-ACF4-A2FFC969FFEC";
paths = (
{
closed = 1;
nodes = (
"818 754 LINE",
"667 754 LINE",
"503 0 LINE",
"650 0 LINE"
);
},
{
closed = 1;
nodes = (
"552 724 LINE",
"602 724 LINE",
"656 643 LINE",
"705 724 LINE",
"912 724 LINE SMOOTH",
"1036 724 OFFCURVE",
"1073 687 OFFCURVE",
"1073 548 CURVE",
"1113 548 LINE",
"1149 754 LINE",
"512 754 LINE"
);
},
{
closed = 1;
nodes = (
"335 0 LINE",
"1021 0 LINE",
"1081 232 LINE",
"1041 232 LINE",
"965 68 OFFCURVE",
"903 30 OFFCURVE",
"814 30 CURVE SMOOTH",
"572 30 LINE",
"515 100 LINE",
"436 30 LINE",
"411 30 LINE"
);
},
{
closed = 1;
nodes = (
"683 374 LINE",
"770 374 LINE SMOOTH",
"830 374 OFFCURVE",
"868 348 OFFCURVE",
"868 227 CURVE",
"902 227 LINE",
"967 535 LINE",
"932 535 LINE",
"902 441 OFFCURVE",
"853 404 OFFCURVE",
"786 404 CURVE SMOOTH",
"683 404 LINE"
);
},
{
closed = 1;
nodes = (
"331 32 LINE SMOOTH",
"270 32 OFFCURVE",
"233 66 OFFCURVE",
"233 170 CURVE SMOOTH",
"233 323 OFFCURVE",
"303 722 OFFCURVE",
"511 722 CURVE SMOOTH",
"594 722 OFFCURVE",
"609 662 OFFCURVE",
"609 591 CURVE SMOOTH",
"609 430 OFFCURVE",
"538 32 OFFCURVE",
"331 32 CURVE SMOOTH"
);
},
{
closed = 1;
nodes = (
"335 0 LINE SMOOTH",
"538 0 OFFCURVE",
"742 241 OFFCURVE",
"742 466 CURVE SMOOTH",
"742 619 OFFCURVE",
"651 754 OFFCURVE",
"507 754 CURVE SMOOTH",
"285 754 OFFCURVE",
"65 511 OFFCURVE",
"65 286 CURVE SMOOTH",
"65 135 OFFCURVE",
"168 0 OFFCURVE",
"335 0 CURVE SMOOTH"
);
}
);
width = 1114;
}
);
leftKerningGroup = O;
rightKerningGroup = E;
unicode = 0152;
},
{
glyphname = P;
lastChange = "2016-08-16 11:12:44 +0000";
layers = (
{
layerId = "426C3F01-D24D-4224-A47E-56DA036E4742";
paths = (
{
closed = 1;
nodes = (
"342 754 LINE",
"225 754 LINE",
"61 0 LINE",
"174 0 LINE"
);
},
{
closed = 1;
nodes = (
"126 754 LINE",
"126 729 LINE",
"405 729 LINE SMOOTH",
"517 729 OFFCURVE",
"540 694 OFFCURVE",
"540 601 CURVE SMOOTH",
"540 449 OFFCURVE",
"478 373 OFFCURVE",
"342 373 CURVE SMOOTH",
"183 373 LINE",
"183 348 LINE",
"347 348 LINE SMOOTH",
"538 348 OFFCURVE",
"676 437 OFFCURVE",
"676 569 CURVE SMOOTH",
"676 675 OFFCURVE",
"586 754 OFFCURVE",
"417 754 CURVE SMOOTH"
);
},
{
closed = 1;
nodes = (
"294 0 LINE",
"294 25 LINE",
"-25 25 LINE",
"-25 0 LINE"
);
}
);
width = 643;
},
{
layerId = "DD3DBCA6-CF88-4DA3-ACF4-A2FFC969FFEC";
paths = (
{
closed = 1;
nodes = (
"377 754 LINE",
"226 754 LINE",
"62 0 LINE",
"209 0 LINE"
);
},
{
closed = 1;
nodes = (
"-5 0 LINE",
"304 0 LINE",
"304 31 LINE",
"-5 31 LINE"
);
},
{
closed = 1;
nodes = (
"121 754 LINE",
"121 724 LINE",
"430 724 LINE SMOOTH",
"529 724 OFFCURVE",
"549 690 OFFCURVE",
"549 604 CURVE SMOOTH",
"549 448 OFFCURVE",
"484 373 OFFCURVE",
"370 373 CURVE SMOOTH",
"178 373 LINE",
"178 348 LINE",
"342 348 LINE SMOOTH",
"581 348 OFFCURVE",
"715 436 OFFCURVE",
"715 571 CURVE SMOOTH",
"715 684 OFFCURVE",
"622 754 OFFCURVE",
"442 754 CURVE SMOOTH"
);
}
);
width = 683;
}
);
leftKerningGroup = P;
unicode = 0050;
},
{
glyphname = Thorn;
lastChange = "2016-08-16 11:12:44 +0000";
layers = (
{
layerId = "426C3F01-D24D-4224-A47E-56DA036E4742";
paths = (
{
closed = 1;
nodes = (
"339 754 LINE",
"222 754 LINE",
"58 0 LINE",
"171 0 LINE"
);
},
{
closed = 1;
nodes = (
"213 584 LINE",
"213 559 LINE",
"362 559 LINE SMOOTH",
"474 559 OFFCURVE",
"497 524 OFFCURVE",
"497 431 CURVE SMOOTH",
"497 279 OFFCURVE",
"435 203 OFFCURVE",
"299 203 CURVE SMOOTH",
"140 203 LINE",
"140 178 LINE",
"304 178 LINE SMOOTH",
"495 178 OFFCURVE",
"633 267 OFFCURVE",
"633 399 CURVE SMOOTH",
"633 505 OFFCURVE",
"543 584 OFFCURVE",
"374 584 CURVE SMOOTH"
);
},
{
closed = 1;
nodes = (
"291 0 LINE",
"291 25 LINE",
"-28 25 LINE",
"-28 0 LINE"
);
},
{
closed = 1;
nodes = (
"116 754 LINE",
"116 729 LINE",
"445 729 LINE",
"445 754 LINE"
);
}
);
width = 622;
},
{
layerId = "DD3DBCA6-CF88-4DA3-ACF4-A2FFC969FFEC";
paths = (
{
closed = 1;
nodes = (
"372 754 LINE",
"221 754 LINE",
"57 0 LINE",
"204 0 LINE"
);
},
{
closed = 1;
nodes = (
"-10 0 LINE",
"299 0 LINE",
"299 31 LINE",
"-10 31 LINE"
);
},
{
closed = 1;
nodes = (
"222 581 LINE",
"222 551 LINE",
"391 551 LINE SMOOTH",
"490 551 OFFCURVE",
"510 517 OFFCURVE",
"510 431 CURVE SMOOTH",
"510 275 OFFCURVE",
"445 200 OFFCURVE",
"331 200 CURVE SMOOTH",
"139 200 LINE",
"139 175 LINE",
"303 175 LINE SMOOTH",
"542 175 OFFCURVE",
"676 263 OFFCURVE",
"676 398 CURVE SMOOTH",
"676 511 OFFCURVE",
"583 581 OFFCURVE",
"403 581 CURVE SMOOTH"
);
},
{
closed = 1;
nodes = (
"144 723 LINE",
"453 723 LINE",
"453 754 LINE",
"144 754 LINE"
);
}
);
width = 642;
}
);
unicode = 00DE;
},
{
glyphname = Q;
lastChange = "2016-08-16 11:12:44 +0000";
layers = (
{
layerId = "426C3F01-D24D-4224-A47E-56DA036E4742";
paths = (
{
closed = 1;
nodes = (
"343 -11 LINE SMOOTH",
"599 -11 OFFCURVE",
"781 278 OFFCURVE",
"781 475 CURVE SMOOTH",
"781 617 OFFCURVE",
"686 763 OFFCURVE",
"518 763 CURVE SMOOTH",
"300 763 OFFCURVE",
"72 516 OFFCURVE",
"72 280 CURVE SMOOTH",
"72 131 OFFCURVE",
"163 -11 OFFCURVE",
"343 -11 CURVE SMOOTH"
);
},
{
closed = 1;
nodes = (
"520 736 LINE SMOOTH",
"588 736 OFFCURVE",
"651 704 OFFCURVE",
"651 547 CURVE SMOOTH",
"651 377 OFFCURVE",
"578 19 OFFCURVE",
"349 19 CURVE SMOOTH",
"248 19 OFFCURVE",
"210 89 OFFCURVE",
"210 208 CURVE SMOOTH",
"210 390 OFFCURVE",
"298 736 OFFCURVE",
"520 736 CURVE SMOOTH"
);
},
{
closed = 1;
nodes = (
"265 6 LINE",
"263 -10 OFFCURVE",
"262 -26 OFFCURVE",
"262 -40 CURVE SMOOTH",
"262 -173 OFFCURVE",
"350 -242 OFFCURVE",
"506 -242 CURVE SMOOTH",
"539 -242 OFFCURVE",
"577 -239 OFFCURVE",
"618 -232 CURVE",
"611 -202 LINE",
"585 -208 OFFCURVE",
"561 -210 OFFCURVE",
"541 -210 CURVE SMOOTH",
"455 -210 OFFCURVE",
"404 -172 OFFCURVE",
"404 -85 CURVE SMOOTH",
"404 -48 OFFCURVE",
"413 -18 OFFCURVE",
"431 12 CURVE"
);
}
);
width = 769;
},
{
layerId = "DD3DBCA6-CF88-4DA3-ACF4-A2FFC969FFEC";
paths = (
{
closed = 1;
nodes = (
"349 21 LINE SMOOTH",
"279 21 OFFCURVE",
"236 57 OFFCURVE",
"236 170 CURVE SMOOTH",
"236 326 OFFCURVE",
"310 731 OFFCURVE",
"529 731 CURVE SMOOTH",
"624 731 OFFCURVE",
"642 666 OFFCURVE",
"642 591 CURVE SMOOTH",
"642 427 OFFCURVE",
"567 21 OFFCURVE",
"349 21 CURVE SMOOTH"
);
},
{
closed = 1;
nodes = (
"353 -11 LINE SMOOTH",
"583 -11 OFFCURVE",
"810 236 OFFCURVE",
"810 466 CURVE SMOOTH",
"810 623 OFFCURVE",
"701 763 OFFCURVE",
"525 763 CURVE SMOOTH",
"295 763 OFFCURVE",
"68 516 OFFCURVE",
"68 286 CURVE SMOOTH",
"68 129 OFFCURVE",
"177 -11 OFFCURVE",
"353 -11 CURVE SMOOTH"
);
},
{
closed = 1;
nodes = (
"251 15 LINE",
"249 -1 OFFCURVE",
"247 -26 OFFCURVE",
"247 -40 CURVE SMOOTH",
"247 -173 OFFCURVE",
"335 -242 OFFCURVE",
"491 -242 CURVE SMOOTH",
"524 -242 OFFCURVE",
"562 -239 OFFCURVE",
"603 -232 CURVE",
"596 -192 LINE",
"570 -198 OFFCURVE",
"546 -200 OFFCURVE",
"526 -200 CURVE SMOOTH",
"452 -200 OFFCURVE",
"409 -165 OFFCURVE",
"409 -85 CURVE SMOOTH",
"409 -48 OFFCURVE",
"411 -18 OFFCURVE",
"416 12 CURVE"
);
}
);
width = 789;
}
);
leftKerningGroup = O;
unicode = 0051;
},
{
glyphname = R;
lastChange = "2016-08-16 11:12:44 +0000";
layers = (
{
layerId = "426C3F01-D24D-4224-A47E-56DA036E4742";
paths = (
{
closed = 1;
nodes = (
"366 754 LINE",
"249 754 LINE",
"85 0 LINE",
"198 0 LINE"
);
},
{
closed = 1;
nodes = (
"150 754 LINE",
"150 729 LINE",
"429 729 LINE SMOOTH",
"542 729 OFFCURVE",
"564 700 OFFCURVE",
"564 620 CURVE SMOOTH",
"564 487 OFFCURVE",
"502 416 OFFCURVE",
"392 416 CURVE SMOOTH",
"207 416 LINE",
"207 391 LINE",
"371 391 LINE SMOOTH",
"580 391 OFFCURVE",
"700 469 OFFCURVE",
"700 585 CURVE SMOOTH",
"700 685 OFFCURVE",
"610 754 OFFCURVE",
"441 754 CURVE SMOOTH"
);
},
{
closed = 1;
nodes = (
"318 0 LINE",
"318 25 LINE",
"-1 25 LINE",
"-1 0 LINE"
);
},
{
closed = 1;
nodes = (
"315 390 LINE",
"398 390 OFFCURVE",
"451 345 OFFCURVE",
"458 233 CURVE SMOOTH",
"463 154 OFFCURVE",
"446 -10 OFFCURVE",
"633 -10 CURVE SMOOTH",
"688 -10 OFFCURVE",
"708 4 OFFCURVE",
"727 25 CURVE",
"711 39 LINE",
"699 27 OFFCURVE",
"686 23 OFFCURVE",
"665 23 CURVE SMOOTH",
"605 23 OFFCURVE",
"603 56 OFFCURVE",
"600 138 CURVE SMOOTH",
"594 283 OFFCURVE",
"576 335 OFFCURVE",
"438 389 CURVE",
"438 393 LINE"
);
}
);
width = 703;
},
{
layerId = "DD3DBCA6-CF88-4DA3-ACF4-A2FFC969FFEC";
paths = (
{
closed = 1;
nodes = (
"381 754 LINE",
"230 754 LINE",
"66 0 LINE",
"213 0 LINE"
);
},
{
closed = 1;
nodes = (
"-1 0 LINE",
"308 0 LINE",
"308 31 LINE",
"-1 31 LINE"
);
},
{
closed = 1;
nodes = (
"125 754 LINE",
"125 724 LINE",
"434 724 LINE SMOOTH",
"529 724 OFFCURVE",
"553 690 OFFCURVE",
"553 614 CURVE SMOOTH",
"553 491 OFFCURVE",
"488 415 OFFCURVE",
"374 415 CURVE SMOOTH",
"182 415 LINE",
"182 385 LINE",
"346 385 LINE SMOOTH",
"586 385 OFFCURVE",
"719 454 OFFCURVE",
"719 578 CURVE SMOOTH",
"719 681 OFFCURVE",
"626 754 OFFCURVE",
"446 754 CURVE SMOOTH"
);
},
{
closed = 1;
nodes = (
"334 385 LINE",
"436 385 OFFCURVE",
"440 310 OFFCURVE",
"443 233 CURVE SMOOTH",
"448 110 OFFCURVE",
"453 -11 OFFCURVE",
"612 -11 CURVE SMOOTH",
"668 -11 OFFCURVE",
"708 4 OFFCURVE",
"732 25 CURVE",
"716 54 LINE",
"699 44 OFFCURVE",
"684 38 OFFCURVE",
"666 38 CURVE SMOOTH",
"614 38 OFFCURVE",
"620 93 OFFCURVE",
"615 161 CURVE SMOOTH",
"607 287 OFFCURVE",
"576 352 OFFCURVE",
"457 387 CURVE",
"457 391 LINE"
);
}
);
width = 723;
}
);
leftKerningGroup = P;
rightKerningGroup = R;
unicode = 0052;
},
{
glyphname = S;
lastChange = "2016-08-16 11:12:44 +0000";
layers = (
{
layerId = "426C3F01-D24D-4224-A47E-56DA036E4742";
paths = (
{
closed = 1;
nodes = (
"528 708 LINE",
"497 740 OFFCURVE",
"449 763 OFFCURVE",
"377 763 CURVE SMOOTH",
"223 763 OFFCURVE",
"149 658 OFFCURVE",
"149 543 CURVE SMOOTH",
"149 317 OFFCURVE",
"466 349 OFFCURVE",
"466 177 CURVE SMOOTH",
"466 102 OFFCURVE",
"399 12 OFFCURVE",
"275 12 CURVE SMOOTH",
"169 12 OFFCURVE",
"106 79 OFFCURVE",
"87 213 CURVE",
"62 213 LINE",
"17 0 LINE",
"42 0 LINE",
"99 54 LINE",
"137 14 OFFCURVE",
"192 -13 OFFCURVE",
"268 -13 CURVE SMOOTH",
"419 -13 OFFCURVE",
"535 93 OFFCURVE",
"535 247 CURVE SMOOTH",
"535 492 OFFCURVE",
"212 464 OFFCURVE",
"212 617 CURVE SMOOTH",
"212 695 OFFCURVE",
"301 738 OFFCURVE",
"374 738 CURVE SMOOTH",
"473 738 OFFCURVE",
"530 664 OFFCURVE",
"530 555 CURVE",
"555 555 LINE",
"595 754 LINE",
"570 754 LINE"
);
}
);
width = 577;
},
{
layerId = "DD3DBCA6-CF88-4DA3-ACF4-A2FFC969FFEC";
paths = (
{
closed = 1;
nodes = (
"522 708 LINE",
"488 740 OFFCURVE",
"431 763 OFFCURVE",
"366 763 CURVE SMOOTH",
"217 763 OFFCURVE",
"124 643 OFFCURVE",
"124 515 CURVE SMOOTH",
"124 277 OFFCURVE",
"444 318 OFFCURVE",
"444 161 CURVE SMOOTH",
"444 94 OFFCURVE",
"385 22 OFFCURVE",
"274 22 CURVE SMOOTH",
"169 22 OFFCURVE",
"106 86 OFFCURVE",
"82 213 CURVE",
"52 213 LINE",
"15 0 LINE",
"50 0 LINE",
"100 49 LINE",
"141 12 OFFCURVE",
"199 -13 OFFCURVE",
"274 -13 CURVE SMOOTH",
"430 -13 OFFCURVE",
"545 97 OFFCURVE",
"545 253 CURVE SMOOTH",
"545 514 OFFCURVE",
"221 467 OFFCURVE",
"221 618 CURVE SMOOTH",
"221 677 OFFCURVE",
"270 728 OFFCURVE",
"355 728 CURVE SMOOTH",
"447 728 OFFCURVE",
"523 669 OFFCURVE",
"523 555 CURVE",
"553 555 LINE",
"587 754 LINE",
"562 754 LINE"
);
}
);
width = 581;
}
);
leftKerningGroup = S;
rightKerningGroup = S;
unicode = 0053;
},
{
glyphname = Schwa;
lastChange = "2016-08-16 11:12:44 +0000";
layers = (
{
layerId = "426C3F01-D24D-4224-A47E-56DA036E4742";
paths = (
{
closed = 1;
nodes = (
"303 -13 LINE SMOOTH",
"529 -13 OFFCURVE",
"731 225 OFFCURVE",
"731 462 CURVE SMOOTH",
"731 619 OFFCURVE",
"642 763 OFFCURVE",
"473 763 CURVE SMOOTH",
"343 763 OFFCURVE",
"218 678 OFFCURVE",
"123 544 CURVE",
"157 521 LINE",
"237 643 OFFCURVE",
"356 729 OFFCURVE",
"470 729 CURVE SMOOTH",
"560 729 OFFCURVE",
"600 675 OFFCURVE",
"600 538 CURVE SMOOTH",
"600 323 OFFCURVE",
"502 20 OFFCURVE",
"315 20 CURVE SMOOTH",
"249 20 OFFCURVE",
"211 57 OFFCURVE",
"211 157 CURVE SMOOTH",
"211 286 OFFCURVE",
"275 388 OFFCURVE",
"466 388 CURVE SMOOTH",
"508 388 OFFCURVE",
"551 383 OFFCURVE",
"592 371 CURVE",
"595 408 LINE",
"574 413 OFFCURVE",
"473 426 OFFCURVE",
"400 426 CURVE SMOOTH",
"204 426 OFFCURVE",
"65 331 OFFCURVE",
"65 189 CURVE SMOOTH",
"65 61 OFFCURVE",
"177 -13 OFFCURVE",
"303 -13 CURVE SMOOTH"
);
}
);
width = 729;
},
{
layerId = "DD3DBCA6-CF88-4DA3-ACF4-A2FFC969FFEC";
paths = (
{
closed = 1;
nodes = (
"290 -11 LINE SMOOTH",
"533 -11 OFFCURVE",
"745 223 OFFCURVE",
"745 453 CURVE SMOOTH",
"745 613 OFFCURVE",
"642 763 OFFCURVE",
"449 763 CURVE SMOOTH",
"301 763 OFFCURVE",
"179 675 OFFCURVE",
"101 532 CURVE",
"142 500 LINE",
"235 654 OFFCURVE",
"327 697 OFFCURVE",
"437 697 CURVE SMOOTH",
"538 697 OFFCURVE",
"577 661 OFFCURVE",
"577 527 CURVE SMOOTH",
"577 306 OFFCURVE",
"472 23 OFFCURVE",
"307 23 CURVE SMOOTH",
"236 23 OFFCURVE",
"203 76 OFFCURVE",
"203 160 CURVE SMOOTH",
"203 282 OFFCURVE",
"274 380 OFFCURVE",
"441 380 CURVE SMOOTH",
"528 380 OFFCURVE",
"567 380 OFFCURVE",
"605 363 CURVE",
"613 421 LINE",
"595 425 OFFCURVE",
"473 440 OFFCURVE",
"390 440 CURVE SMOOTH",
"156 440 OFFCURVE",
"34 318 OFFCURVE",
"34 191 CURVE SMOOTH",
"34 69 OFFCURVE",
"148 -11 OFFCURVE",
"290 -11 CURVE SMOOTH"
);
}
);
width = 749;
}
);
unicode = 018F;
},
{
glyphname = T;
lastChange = "2016-08-16 11:12:44 +0000";
layers = (
{
layerId = "426C3F01-D24D-4224-A47E-56DA036E4742";
paths = (
{
closed = 1;
nodes = (
"521 754 LINE",
"404 754 LINE",
"240 0 LINE",
"353 0 LINE"
);
},
{
closed = 1;
nodes = (
"88 513 LINE",
"118 513 LINE",
"177 661 OFFCURVE",
"266 729 OFFCURVE",
"344 729 CURVE SMOOTH",
"565 729 LINE SMOOTH",
"679 729 OFFCURVE",
"701 684 OFFCURVE",
"701 513 CURVE",
"731 513 LINE",
"764 754 LINE",
"160 754 LINE"
);
},
{
closed = 1;
nodes = (
"134 0 LINE",
"473 0 LINE",
"473 25 LINE",
"134 25 LINE"
);
}
);
width = 681;
},
{
layerId = "DD3DBCA6-CF88-4DA3-ACF4-A2FFC969FFEC";
paths = (
{
closed = 1;
nodes = (
"545 754 LINE",
"394 754 LINE",
"230 0 LINE",
"377 0 LINE"
);
},
{
closed = 1;
nodes = (
"133 0 LINE",
"512 0 LINE",
"512 31 LINE",
"133 31 LINE"
);
},
{
closed = 1;
nodes = (
"88 513 LINE",
"123 513 LINE",
"180 658 OFFCURVE",
"267 724 OFFCURVE",
"344 724 CURVE SMOOTH",
"565 724 LINE SMOOTH",
"683 724 OFFCURVE",
"706 680 OFFCURVE",
"706 513 CURVE",
"741 513 LINE",
"774 754 LINE",
"160 754 LINE"
);
}
);
width = 701;
}
);
leftKerningGroup = T;
rightKerningGroup = T;
unicode = 0054;
},
{
glyphname = Tbar;
lastChange = "2016-08-16 11:12:44 +0000";
layers = (
{
components = (
{
name = T;
}
);
layerId = "426C3F01-D24D-4224-A47E-56DA036E4742";
paths = (
{
closed = 1;
nodes = (
"190 416 LINE",
"605 416 LINE",
"605 451 LINE",
"190 451 LINE"
);
}
);
width = 681;
},
{
components = (
{
name = T;
}
);
layerId = "DD3DBCA6-CF88-4DA3-ACF4-A2FFC969FFEC";
paths = (
{
closed = 1;
nodes = (
"188 406 LINE",
"603 406 LINE",
"603 451 LINE",
"188 451 LINE"
);
}
);
width = 701;
}
);
unicode = 0166;
},
{
glyphname = U;
lastChange = "2016-08-16 11:12:44 +0000";
layers = (
{
layerId = "426C3F01-D24D-4224-A47E-56DA036E4742";
paths = (
{
closed = 1;
nodes = (
"125 729 LINE",
"448 729 LINE",
"448 754 LINE",
"125 754 LINE"
);
},
{
closed = 1;
nodes = (
"842 754 LINE",
"600 754 LINE",
"600 729 LINE",
"842 729 LINE"
);
},
{
closed = 1;
nodes = (
"361 754 LINE",
"244 754 LINE",
"137 266 LINE SMOOTH",
"130 233 OFFCURVE",
"126 203 OFFCURVE",
"126 176 CURVE SMOOTH",
"126 51 OFFCURVE",
"214 -13 OFFCURVE",
"357 -13 CURVE SMOOTH",
"540 -13 OFFCURVE",
"603 92 OFFCURVE",
"633 231 CURVE SMOOTH",
"745 754 LINE",
"715 754 LINE",
"598 205 LINE SMOOTH",
"573 86 OFFCURVE",
"493 17 OFFCURVE",
"387 17 CURVE SMOOTH",
"294 17 OFFCURVE",
"237 70 OFFCURVE",
"237 167 CURVE SMOOTH",
"237 192 OFFCURVE",
"241 227 OFFCURVE",
"250 266 CURVE SMOOTH"
);
}
);
width = 732;
},
{
layerId = "DD3DBCA6-CF88-4DA3-ACF4-A2FFC969FFEC";
paths = (
{
closed = 1;
nodes = (
"385 754 LINE",
"234 754 LINE",
"120 226 LINE SMOOTH",
"116 206 OFFCURVE",
"114 187 OFFCURVE",
"114 170 CURVE SMOOTH",
"114 64 OFFCURVE",
"196 -11 OFFCURVE",
"365 -11 CURVE SMOOTH",
"539 -11 OFFCURVE",
"610 69 OFFCURVE",
"644 226 CURVE SMOOTH",
"758 754 LINE",
"718 754 LINE",
"604 226 LINE SMOOTH",
"575 90 OFFCURVE",
"491 31 OFFCURVE",
"398 31 CURVE SMOOTH",
"315 31 OFFCURVE",
"260 79 OFFCURVE",
"260 168 CURVE SMOOTH",
"260 185 OFFCURVE",
"262 206 OFFCURVE",
"267 226 CURVE SMOOTH"
);
},
{
closed = 1;
nodes = (
"114 724 LINE",
"473 724 LINE",
"473 754 LINE",
"114 754 LINE"
);
},
{
closed = 1;
nodes = (
"611 724 LINE",
"838 724 LINE",
"838 754 LINE",
"611 754 LINE"
);
}
);
width = 752;
}
);
leftKerningGroup = U;
rightKerningGroup = U;
unicode = 0055;
},
{
glyphname = V;
lastChange = "2016-08-16 11:12:44 +0000";
layers = (
{
layerId = "426C3F01-D24D-4224-A47E-56DA036E4742";
paths = (
{
closed = 1;
nodes = (
"313 744 LINE",
"190 744 LINE",
"135 -10 LINE",
"156 -10 LINE",
"268 207 LINE",
"264 207 LINE"
);
},
{
closed = 1;
nodes = (
"111 729 LINE",
"380 729 LINE",
"380 754 LINE",
"111 754 LINE"
);
},
{
closed = 1;
nodes = (
"526 729 LINE",
"740 729 LINE",
"740 754 LINE",
"526 754 LINE"
);
},
{
closed = 1;
nodes = (
"265 203 LINE",
"156 -10 LINE",
"667 734 LINE",
"628 734 LINE"
);
}
);
width = 564;
},
{
layerId = "DD3DBCA6-CF88-4DA3-ACF4-A2FFC969FFEC";
paths = (
{
closed = 1;
nodes = (
"339 744 LINE",
"176 744 LINE",
"141 -13 LINE",
"172 -13 LINE",
"308 224 LINE",
"304 224 LINE"
);
},
{
closed = 1;
nodes = (
"97 724 LINE",
"416 724 LINE",
"416 754 LINE",
"97 754 LINE"
);
},
{
closed = 1;
nodes = (
"582 724 LINE",
"802 724 LINE",
"802 754 LINE",
"582 754 LINE"
);
},
{
closed = 1;
nodes = (
"305 220 LINE",
"164 -13 LINE",
"174 -13 LINE",
"731 734 LINE",
"694 734 LINE"
);
}
);
width = 616;
}
);
unicode = 0056;
},
{
glyphname = W;
lastChange = "2016-08-16 11:12:44 +0000";
layers = (
{
layerId = "426C3F01-D24D-4224-A47E-56DA036E4742";
paths = (
{
closed = 1;
nodes = (
"307 744 LINE",
"184 744 LINE",
"129 -10 LINE",
"150 -10 LINE",
"267 202 LINE",
"263 202 LINE"
);
},
{
closed = 1;
nodes = (
"105 729 LINE",
"796 729 LINE",
"796 754 LINE",
"105 754 LINE"
);
},
{
closed = 1;
nodes = (
"264 198 LINE",
"150 -10 LINE",
"500 458 LINE",
"467 458 LINE"
);
},
{
closed = 1;
nodes = (
"585 744 LINE",
"462 744 LINE",
"407 -10 LINE",
"428 -10 LINE",
"541 200 LINE",
"537 200 LINE"
);
},
{
closed = 1;
nodes = (
"838 729 LINE",
"1052 729 LINE",
"1052 754 LINE",
"838 754 LINE"
);
},
{
closed = 1;
nodes = (
"538 196 LINE",
"428 -10 LINE",
"979 734 LINE",
"946 734 LINE"
);
},
{
closed = 1;
nodes = (
"497 478 LINE",
"531 467 LINE",
"733 738 LINE",
"700 738 LINE"
);
}
);
width = 870;
},
{
layerId = "DD3DBCA6-CF88-4DA3-ACF4-A2FFC969FFEC";
paths = (
{
closed = 1;
nodes = (
"315 744 LINE",
"152 744 LINE",
"117 -13 LINE",
"148 -13 LINE",
"284 210 LINE",
"280 210 LINE"
);
},
{
closed = 1;
nodes = (
"68 724 LINE",
"826 724 LINE",
"826 754 LINE",
"68 754 LINE"
);
},
{
closed = 1;
nodes = (
"465 424 LINE",
"281 206 LINE",
"140 -13 LINE",
"150 -13 LINE",
"478 388 LINE"
);
},
{
closed = 1;
nodes = (
"775 734 LINE",
"738 734 LINE",
"560 501 LINE",
"571 464 LINE"
);
},
{
closed = 1;
nodes = (
"863 724 LINE",
"1083 724 LINE",
"1083 754 LINE",
"863 754 LINE"
);
},
{
closed = 1;
nodes = (
"580 210 LINE",
"442 -13 LINE",
"452 -13 LINE",
"1029 734 LINE",
"990 734 LINE"
);
},
{
closed = 1;
nodes = (
"611 744 LINE",
"448 744 LINE",
"413 -13 LINE",
"444 -13 LINE",
"580 210 LINE",
"576 210 LINE"
);
}
);
width = 922;
}
);
leftKerningGroup = W;
rightKerningGroup = W;
unicode = 0057;
},
{
glyphname = X;
lastChange = "2016-08-16 11:12:44 +0000";
layers = (
{
layerId = "426C3F01-D24D-4224-A47E-56DA036E4742";
paths = (
{
closed = 1;
nodes = (
"274 754 LINE",
"149 754 LINE",
"435 0 LINE",
"556 0 LINE"
);
},
{
closed = 1;
nodes = (
"62 729 LINE",
"381 729 LINE",
"381 754 LINE",
"62 754 LINE"
);
},
{
closed = 1;
nodes = (
"321 0 LINE",
"650 0 LINE",
"650 25 LINE",
"321 25 LINE"
);
},
{
closed = 1;
nodes = (
"387 462 LINE",
"383 462 LINE",
"334 395 LINE",
"369 395 LINE",
"641 734 LINE",
"606 734 LINE"
);
},
{
closed = 1;
nodes = (
"487 729 LINE",
"732 729 LINE",
"732 754 LINE",
"487 754 LINE"
);
},
{
closed = 1;
nodes = (
"309 323 LINE",
"313 323 LINE",
"362 389 LINE",
"327 389 LINE",
"38 20 LINE",
"73 20 LINE"
);
},
{
closed = 1;
nodes = (
"202 25 LINE",
"-55 25 LINE",
"-55 0 LINE",
"202 0 LINE"
);
}
);
width = 603;
},
{
layerId = "DD3DBCA6-CF88-4DA3-ACF4-A2FFC969FFEC";
paths = (
{
closed = 1;
nodes = (
"295 754 LINE",
"130 754 LINE",
"416 0 LINE",
"577 0 LINE"
);
},
{
closed = 1;
nodes = (
"63 724 LINE",
"382 724 LINE",
"382 754 LINE",
"63 754 LINE"
);
},
{
closed = 1;
nodes = (
"322 0 LINE",
"651 0 LINE",
"651 30 LINE",
"322 30 LINE"
);
},
{
closed = 1;
nodes = (
"401 479 LINE",
"397 479 LINE",
"345 408 LINE",
"383 408 LINE",
"642 734 LINE",
"607 734 LINE"
);
},
{
closed = 1;
nodes = (
"488 724 LINE",
"733 724 LINE",
"733 754 LINE",
"488 754 LINE"
);
},
{
closed = 1;
nodes = (
"297 306 LINE",
"301 306 LINE",
"363 389 LINE",
"320 389 LINE",
"34 20 LINE",
"74 20 LINE"
);
},
{
closed = 1;
nodes = (
"203 30 LINE",
"-54 30 LINE",
"-54 0 LINE",
"203 0 LINE"
);
}
);
width = 635;
}
);
unicode = 0058;
},
{
glyphname = Y;
lastChange = "2016-08-16 11:12:44 +0000";
layers = (
{
layerId = "426C3F01-D24D-4224-A47E-56DA036E4742";
paths = (
{
closed = 1;
nodes = (
"401 376 LINE",
"284 376 LINE",
"204 0 LINE",
"317 0 LINE"
);
},
{
closed = 1;
nodes = (
"95 0 LINE",
"447 0 LINE",
"447 25 LINE",
"95 25 LINE"
);
},
{
closed = 1;
nodes = (
"249 754 LINE",
"124 754 LINE",
"284 334 LINE",
"393 365 LINE"
);
},
{
closed = 1;
nodes = (
"42 729 LINE",
"376 729 LINE",
"376 754 LINE",
"42 754 LINE"
);
},
{
closed = 1;
nodes = (
"388 390 LINE",
"384 390 LINE",
"337 317 LINE",
"372 317 LINE",
"664 734 LINE",
"629 734 LINE"
);
},
{
closed = 1;
nodes = (
"510 729 LINE",
"755 729 LINE",
"755 754 LINE",
"510 754 LINE"
);
}
);
width = 583;
},
{
layerId = "DD3DBCA6-CF88-4DA3-ACF4-A2FFC969FFEC";
paths = (
{
closed = 1;
nodes = (
"445 347 LINE",
"294 347 LINE",
"219 0 LINE",
"366 0 LINE"
);
},
{
closed = 1;
nodes = (
"112 0 LINE",
"491 0 LINE",
"491 31 LINE",
"112 31 LINE"
);
},
{
closed = 1;
nodes = (
"294 754 LINE",
"139 754 LINE",
"299 294 LINE",
"445 348 LINE"
);
},
{
closed = 1;
nodes = (
"67 724 LINE",
"421 724 LINE",
"421 754 LINE",
"67 754 LINE"
);
},
{
closed = 1;
nodes = (
"439 374 LINE",
"435 374 LINE",
"384 300 LINE",
"430 300 LINE",
"701 734 LINE",
"666 734 LINE"
);
},
{
closed = 1;
nodes = (
"547 724 LINE",
"772 724 LINE",
"772 754 LINE",
"547 754 LINE"
);
}
);
width = 647;
}
);
leftKerningGroup = Y;
rightKerningGroup = Y;
unicode = 0059;
},
{
glyphname = Z;
lastChange = "2016-08-16 11:12:44 +0000";
layers = (
{
layerId = "426C3F01-D24D-4224-A47E-56DA036E4742";
paths = (
{
closed = 1;
nodes = (
"702 729 LINE",
"559 734 LINE",
"556 729 LINE",
"556 725 LINE",
"9 25 LINE",
"149 20 LINE",
"149 29 LINE"
);
},
{
closed = 1;
nodes = (
"9 0 LINE",
"550 0 LINE",
"610 232 LINE",
"580 232 LINE",
"504 64 OFFCURVE",
"442 25 OFFCURVE",
"353 25 CURVE SMOOTH",
"9 25 LINE"
);
},
{
closed = 1;
nodes = (
"702 754 LINE",
"210 754 LINE",
"150 542 LINE",
"180 542 LINE",
"256 694 OFFCURVE",
"318 729 OFFCURVE",
"407 729 CURVE SMOOTH",
"702 729 LINE"
);
}
);
width = 649;
},
{
layerId = "DD3DBCA6-CF88-4DA3-ACF4-A2FFC969FFEC";
paths = (
{
closed = 1;
nodes = (
"146 533 LINE",
"181 533 LINE",
"235 664 OFFCURVE",
"318 724 OFFCURVE",
"392 724 CURVE SMOOTH",
"720 724 LINE",
"720 754 LINE",
"208 754 LINE"
);
},
{
closed = 1;
nodes = (
"-1 0 LINE",
"556 0 LINE",
"616 232 LINE",
"576 232 LINE",
"500 68 OFFCURVE",
"438 30 OFFCURVE",
"349 30 CURVE SMOOTH",
"-1 30 LINE"
);
},
{
closed = 1;
nodes = (
"720 724 LINE",
"543 724 LINE",
"543 720 LINE",
"-1 30 LINE",
"190 30 LINE",
"190 35 LINE"
);
}
);
width = 669;
}
);
leftKerningGroup = Z;
rightKerningGroup = Z;
unicode = 005A;
},
{
glyphname = a;
lastChange = "2016-08-16 11:12:44 +0000";
layers = (
{
layerId = "426C3F01-D24D-4224-A47E-56DA036E4742";
paths = (
{
closed = 1;
nodes = (
"515 450 LINE",
"418 450 LINE",
"348 154 LINE SMOOTH",
"341 125 OFFCURVE",
"338 101 OFFCURVE",
"338 81 CURVE SMOOTH",
"338 8 OFFCURVE",
"377 -13 OFFCURVE",
"410 -13 CURVE SMOOTH",
"475 -13 OFFCURVE",
"526 68 OFFCURVE",
"556 142 CURVE",
"536 151 LINE",
"502 71 OFFCURVE",
"466 30 OFFCURVE",
"443 30 CURVE SMOOTH",
"432 30 OFFCURVE",
"426 39 OFFCURVE",
"426 59 CURVE SMOOTH",
"426 77 OFFCURVE",
"431 106 OFFCURVE",
"441 147 CURVE SMOOTH"
);
},
{
closed = 1;
nodes = (
"398 389 LINE",
"384 430 OFFCURVE",
"359 462 OFFCURVE",
"298 462 CURVE SMOOTH",
"172 462 OFFCURVE",
"43 328 OFFCURVE",
"43 173 CURVE SMOOTH",
"43 59 OFFCURVE",
"112 -13 OFFCURVE",
"197 -13 CURVE SMOOTH",
"252 -13 OFFCURVE",
"304 17 OFFCURVE",
"334 70 CURVE",
"340 70 LINE",
"352 170 LINE",
"310 52 OFFCURVE",
"258 19 OFFCURVE",
"217 19 CURVE SMOOTH",
"176 19 OFFCURVE",
"154 53 OFFCURVE",
"154 117 CURVE SMOOTH",
"154 218 OFFCURVE",
"210 433 OFFCURVE",
"310 433 CURVE SMOOTH",
"354 433 OFFCURVE",
"386 392 OFFCURVE",
"386 335 CURVE SMOOTH",
"386 321 OFFCURVE",
"384 313 OFFCURVE",
"383 298 CURVE",
"404 389 LINE"
);
}
);
width = 554;
},
{
layerId = "DD3DBCA6-CF88-4DA3-ACF4-A2FFC969FFEC";
paths = (
{
closed = 1;
nodes = (
"560 450 LINE",
"426 450 LINE",
"352 153 LINE SMOOTH",
"339 100 OFFCURVE",
"336 86 OFFCURVE",
"336 70 CURVE SMOOTH",
"336 15 OFFCURVE",
"371 -11 OFFCURVE",
"423 -11 CURVE SMOOTH",
"514 -11 OFFCURVE",
"577 69 OFFCURVE",
"603 152 CURVE",
"578 161 LINE",
"541 69 OFFCURVE",
"500 41 OFFCURVE",
"480 41 CURVE SMOOTH",
"473 41 OFFCURVE",
"468 45 OFFCURVE",
"468 54 CURVE SMOOTH",
"468 58 OFFCURVE",
"469 70 OFFCURVE",
"473 87 CURVE SMOOTH"
);
},
{
closed = 1;
nodes = (
"405 390 LINE",
"384 439 OFFCURVE",
"354 462 OFFCURVE",
"305 462 CURVE SMOOTH",
"174 462 OFFCURVE",
"29 320 OFFCURVE",
"29 166 CURVE SMOOTH",
"29 54 OFFCURVE",
"107 -11 OFFCURVE",
"192 -11 CURVE SMOOTH",
"257 -11 OFFCURVE",
"305 32 OFFCURVE",
"329 70 CURVE",
"336 70 LINE",
"368 208 LINE",
"336 76 OFFCURVE",
"258 30 OFFCURVE",
"213 30 CURVE SMOOTH",
"183 30 OFFCURVE",
"171 48 OFFCURVE",
"171 107 CURVE SMOOTH",
"171 256 OFFCURVE",
"244 423 OFFCURVE",
"326 423 CURVE SMOOTH",
"358 423 OFFCURVE",
"392 385 OFFCURVE",
"392 333 CURVE SMOOTH",
"392 324 OFFCURVE",
"390 312 OFFCURVE",
"389 299 CURVE",
"412 390 LINE"
);
}
);
width = 586;
}
);
leftKerningGroup = a;
rightKerningGroup = a;
unicode = 0061;
},
{
glyphname = aogonek;
lastChange = "2016-08-16 11:12:44 +0000";
layers = (
{
layerId = "426C3F01-D24D-4224-A47E-56DA036E4742";
paths = (
{
closed = 1;
nodes = (
"515 450 LINE",
"418 450 LINE",
"348 154 LINE SMOOTH",
"341 125 OFFCURVE",
"338 101 OFFCURVE",
"338 81 CURVE SMOOTH",
"338 8 OFFCURVE",
"377 -13 OFFCURVE",
"410 -13 CURVE SMOOTH",
"475 -13 OFFCURVE",
"526 68 OFFCURVE",
"556 142 CURVE",
"536 151 LINE",
"502 71 OFFCURVE",
"466 30 OFFCURVE",
"443 30 CURVE SMOOTH",
"432 30 OFFCURVE",
"426 39 OFFCURVE",
"426 59 CURVE SMOOTH",
"426 77 OFFCURVE",
"431 106 OFFCURVE",
"441 147 CURVE SMOOTH"
);
},
{
closed = 1;
nodes = (
"398 389 LINE",
"384 430 OFFCURVE",
"359 462 OFFCURVE",
"298 462 CURVE SMOOTH",
"172 462 OFFCURVE",
"43 328 OFFCURVE",
"43 173 CURVE SMOOTH",
"43 59 OFFCURVE",
"112 -13 OFFCURVE",
"197 -13 CURVE SMOOTH",
"252 -13 OFFCURVE",
"304 17 OFFCURVE",
"334 70 CURVE",
"340 70 LINE",
"352 170 LINE",
"310 52 OFFCURVE",
"258 19 OFFCURVE",
"217 19 CURVE SMOOTH",
"176 19 OFFCURVE",
"154 53 OFFCURVE",
"154 117 CURVE SMOOTH",
"154 218 OFFCURVE",
"210 433 OFFCURVE",
"310 433 CURVE SMOOTH",
"354 433 OFFCURVE",
"386 392 OFFCURVE",
"386 335 CURVE SMOOTH",
"386 321 OFFCURVE",
"384 313 OFFCURVE",
"383 298 CURVE",
"404 389 LINE"
);
},
{
closed = 1;
nodes = (
"323 -233 LINE SMOOTH",
"364 -233 OFFCURVE",
"409 -214 OFFCURVE",
"436 -187 CURVE",
"424 -171 LINE",
"400 -186 OFFCURVE",
"383 -192 OFFCURVE",
"367 -192 CURVE SMOOTH",
"343 -192 OFFCURVE",
"329 -178 OFFCURVE",
"329 -152 CURVE SMOOTH",
"329 -103 OFFCURVE",
"380 -44 OFFCURVE",
"469 11 CURVE",
"433 17 LINE",
"320 -42 OFFCURVE",
"246 -117 OFFCURVE",
"246 -173 CURVE SMOOTH",
"246 -209 OFFCURVE",
"277 -233 OFFCURVE",
"323 -233 CURVE SMOOTH"
);
}
);
width = 554;
},
{
components = (
{
name = a;
},
{
name = ogonek;
transform = "{1, 0, 0, 1, 348, 0}";
}
);
layerId = "DD3DBCA6-CF88-4DA3-ACF4-A2FFC969FFEC";
width = 586;
}
);
leftKerningGroup = a;
rightKerningGroup = a;
unicode = 0105;
},
{
glyphname = aringacute;
lastChange = "2016-08-16 11:12:44 +0000";
layers = (
{
components = (
{
name = a;
}
);
layerId = "426C3F01-D24D-4224-A47E-56DA036E4742";
paths = (
{
closed = 1;
nodes = (
"409 620 LINE",
"560 711 LINE SMOOTH",
"588 728 OFFCURVE",
"600 748 OFFCURVE",
"600 766 CURVE SMOOTH",
"600 785 OFFCURVE",
"588 804 OFFCURVE",
"554 804 CURVE SMOOTH",
"529 804 OFFCURVE",
"507 794 OFFCURVE",
"472 754 CURVE SMOOTH",
"373 640 LINE"
);
},
{
closed = 1;
nodes = (
"263 570 LINE SMOOTH",
"263 513 OFFCURVE",
"306 470 OFFCURVE",
"363 470 CURVE SMOOTH",
"420 470 OFFCURVE",
"465 513 OFFCURVE",
"465 570 CURVE SMOOTH",
"465 627 OFFCURVE",
"420 672 OFFCURVE",
"363 672 CURVE SMOOTH",
"306 672 OFFCURVE",
"263 627 OFFCURVE",
"263 570 CURVE SMOOTH"
);
},
{
closed = 1;
nodes = (
"306 570 LINE SMOOTH",
"306 602 OFFCURVE",
"332 627 OFFCURVE",
"363 627 CURVE SMOOTH",
"395 627 OFFCURVE",
"420 602 OFFCURVE",
"420 570 CURVE SMOOTH",
"420 539 OFFCURVE",
"395 513 OFFCURVE",
"363 513 CURVE SMOOTH",
"332 513 OFFCURVE",
"306 539 OFFCURVE",
"306 570 CURVE SMOOTH"
);
}
);
width = 554;
},
{
components = (
{
name = a;
}
);
layerId = "DD3DBCA6-CF88-4DA3-ACF4-A2FFC969FFEC";
paths = (
{
closed = 1;
nodes = (
"400 528 LINE SMOOTH",
"452 528 OFFCURVE",
"494 570 OFFCURVE",
"494 622 CURVE SMOOTH",
"494 649 OFFCURVE",
"482 674 OFFCURVE",
"463 691 CURVE",
"582 751 LINE SMOOTH",
"613 767 OFFCURVE",
"623 777 OFFCURVE",
"623 799 CURVE SMOOTH",
"623 825 OFFCURVE",
"607 847 OFFCURVE",
"576 847 CURVE SMOOTH",
"560 847 OFFCURVE",
"542 841 OFFCURVE",
"516 814 CURVE SMOOTH",
"421 713 LINE",
"414 714 OFFCURVE",
"407 715 OFFCURVE",
"400 715 CURVE SMOOTH",
"349 715 OFFCURVE",
"306 673 OFFCURVE",
"306 622 CURVE SMOOTH",
"306 570 OFFCURVE",
"349 528 OFFCURVE",
"400 528 CURVE SMOOTH"
);
},
{
closed = 1;
nodes = (
"400 662 LINE SMOOTH",
"422 662 OFFCURVE",
"441 644 OFFCURVE",
"441 622 CURVE SMOOTH",
"441 599 OFFCURVE",
"423 580 OFFCURVE",
"400 580 CURVE SMOOTH",
"377 580 OFFCURVE",
"359 600 OFFCURVE",
"359 622 CURVE SMOOTH",
"359 644 OFFCURVE",
"378 662 OFFCURVE",
"400 662 CURVE SMOOTH"
);
}
);
width = 586;
}
);
leftKerningGroup = a;
rightKerningGroup = a;
unicode = 01FB;
},
{
glyphname = ae;
lastChange = "2016-08-16 11:12:44 +0000";
layers = (
{
layerId = "426C3F01-D24D-4224-A47E-56DA036E4742";
paths = (
{
closed = 1;
nodes = (
"625 462 LINE SMOOTH",
"487 462 OFFCURVE",
"362 314 OFFCURVE",
"362 179 CURVE SMOOTH",
"362 84 OFFCURVE",
"424 -13 OFFCURVE",
"548 -13 CURVE SMOOTH",
"632 -13 OFFCURVE",
"702 31 OFFCURVE",
"751 119 CURVE",
"731 133 LINE",
"679 47 OFFCURVE",
"617 17 OFFCURVE",
"553 17 CURVE SMOOTH",
"488 17 OFFCURVE",
"461 48 OFFCURVE",
"461 139 CURVE SMOOTH",
"461 263 OFFCURVE",
"512 432 OFFCURVE",
"615 432 CURVE SMOOTH",
"652 432 OFFCURVE",
"677 410 OFFCURVE",
"677 355 CURVE SMOOTH",
"677 284 OFFCURVE",
"634 219 OFFCURVE",
"512 219 CURVE SMOOTH",
"485 219 OFFCURVE",
"462 222 OFFCURVE",
"439 229 CURVE",
"434 204 LINE",
"447 201 OFFCURVE",
"507 193 OFFCURVE",
"552 193 CURVE SMOOTH",
"676 193 OFFCURVE",
"765 254 OFFCURVE",
"765 341 CURVE SMOOTH",
"765 413 OFFCURVE",
"705 462 OFFCURVE",
"625 462 CURVE SMOOTH"
);
},
{
closed = 1;
nodes = (
"517 450 LINE",
"420 450 LINE",
"337 102 LINE",
"441 147 LINE"
);
},
{
closed = 1;
nodes = (
"401 391 LINE",
"387 431 OFFCURVE",
"360 462 OFFCURVE",
"301 462 CURVE SMOOTH",
"175 462 OFFCURVE",
"43 320 OFFCURVE",
"43 164 CURVE SMOOTH",
"43 53 OFFCURVE",
"111 -13 OFFCURVE",
"197 -13 CURVE SMOOTH",
"267 -13 OFFCURVE",
"329 31 OFFCURVE",
"368 110 CURVE",
"374 110 LINE",
"374 143 LINE",
"350 157 LINE",
"329 63 OFFCURVE",
"270 19 OFFCURVE",
"217 19 CURVE SMOOTH",
"176 19 OFFCURVE",
"154 46 OFFCURVE",
"154 108 CURVE SMOOTH",
"154 209 OFFCURVE",
"211 433 OFFCURVE",
"313 433 CURVE SMOOTH",
"356 433 OFFCURVE",
"387 393 OFFCURVE",
"387 335 CURVE SMOOTH",
"387 325 OFFCURVE",
"387 313 OFFCURVE",
"385 300 CURVE",
"407 391 LINE"
);
}
);
width = 777;
},
{
layerId = "DD3DBCA6-CF88-4DA3-ACF4-A2FFC969FFEC";
paths = (
{
closed = 1;
nodes = (
"560 450 LINE",
"426 450 LINE",
"352 153 LINE",
"473 97 LINE"
);
},
{
closed = 1;
nodes = (
"405 390 LINE",
"384 439 OFFCURVE",
"354 462 OFFCURVE",
"305 462 CURVE SMOOTH",
"174 462 OFFCURVE",
"29 320 OFFCURVE",
"29 166 CURVE SMOOTH",
"29 54 OFFCURVE",
"107 -11 OFFCURVE",
"192 -11 CURVE SMOOTH",
"282 -11 OFFCURVE",
"343 47 OFFCURVE",
"377 100 CURVE",
"384 100 LINE",
"368 208 LINE",
"336 76 OFFCURVE",
"258 30 OFFCURVE",
"213 30 CURVE SMOOTH",
"183 30 OFFCURVE",
"171 48 OFFCURVE",
"171 107 CURVE SMOOTH",
"171 256 OFFCURVE",
"244 423 OFFCURVE",
"326 423 CURVE SMOOTH",
"358 423 OFFCURVE",
"392 385 OFFCURVE",
"392 333 CURVE SMOOTH",
"392 324 OFFCURVE",
"390 312 OFFCURVE",
"389 299 CURVE",
"412 390 LINE"
);
},
{
closed = 1;
nodes = (
"665 462 LINE SMOOTH",
"530 462 OFFCURVE",
"368 319 OFFCURVE",
"368 176 CURVE SMOOTH",
"368 79 OFFCURVE",
"437 -11 OFFCURVE",
"569 -11 CURVE SMOOTH",
"670 -11 OFFCURVE",
"755 42 OFFCURVE",
"808 129 CURVE",
"783 148 LINE",
"721 57 OFFCURVE",
"649 29 OFFCURVE",
"584 29 CURVE SMOOTH",
"539 29 OFFCURVE",
"511 43 OFFCURVE",
"511 83 CURVE SMOOTH",
"511 90 OFFCURVE",
"512 99 OFFCURVE",
"513 105 CURVE SMOOTH",
"557 380 OFFCURVE",
"600 432 OFFCURVE",
"652 432 CURVE SMOOTH",
"693 432 OFFCURVE",
"713 402 OFFCURVE",
"713 359 CURVE SMOOTH",
"713 291 OFFCURVE",
"670 232 OFFCURVE",
"574 232 CURVE SMOOTH",
"522 232 OFFCURVE",
"499 232 OFFCURVE",
"476 242 CURVE",
"471 207 LINE",
"482 204 OFFCURVE",
"555 196 OFFCURVE",
"605 196 CURVE SMOOTH",
"751 196 OFFCURVE",
"826 267 OFFCURVE",
"826 344 CURVE SMOOTH",
"826 413 OFFCURVE",
"756 462 OFFCURVE",
"665 462 CURVE SMOOTH"
);
}
);
width = 847;
}
);
leftKerningGroup = a;
rightKerningGroup = e;
unicode = 00E6;
},
{
glyphname = b;
lastChange = "2016-08-16 11:12:44 +0000";
layers = (
{
layerId = "426C3F01-D24D-4224-A47E-56DA036E4742";
paths = (
{
closed = 1;
nodes = (
"94 729 LINE",
"289 729 LINE",
"289 754 LINE",
"94 754 LINE"
);
},
{
closed = 1;
nodes = (
"64 204 LINE SMOOTH",
"54 163 OFFCURVE",
"52 147 OFFCURVE",
"52 131 CURVE SMOOTH",
"52 49 OFFCURVE",
"102 -13 OFFCURVE",
"201 -13 CURVE SMOOTH",
"350 -13 OFFCURVE",
"487 127 OFFCURVE",
"487 284 CURVE SMOOTH",
"487 396 OFFCURVE",
"417 462 OFFCURVE",
"337 462 CURVE SMOOTH",
"292 462 OFFCURVE",
"250 441 OFFCURVE",
"225 416 CURVE",
"218 416 LINE",
"197 328 LINE",
"233 397 OFFCURVE",
"276 430 OFFCURVE",
"323 430 CURVE SMOOTH",
"365 430 OFFCURVE",
"380 403 OFFCURVE",
"380 335 CURVE SMOOTH",
"380 175 OFFCURVE",
"297 16 OFFCURVE",
"207 16 CURVE SMOOTH",
"170 16 OFFCURVE",
"147 42 OFFCURVE",
"147 90 CURVE SMOOTH",
"147 108 OFFCURVE",
"150 124 OFFCURVE",
"153 138 CURVE SMOOTH",
"301 754 LINE",
"194 754 LINE"
);
}
);
width = 516;
},
{
layerId = "DD3DBCA6-CF88-4DA3-ACF4-A2FFC969FFEC";
paths = (
{
closed = 1;
nodes = (
"71 724 LINE",
"286 724 LINE",
"286 754 LINE",
"71 754 LINE"
);
},
{
closed = 1;
nodes = (
"40 204 LINE SMOOTH",
"33 173 OFFCURVE",
"32 146 OFFCURVE",
"32 135 CURVE SMOOTH",
"32 48 OFFCURVE",
"95 -13 OFFCURVE",
"200 -13 CURVE SMOOTH",
"361 -13 OFFCURVE",
"501 129 OFFCURVE",
"501 284 CURVE SMOOTH",
"501 407 OFFCURVE",
"414 462 OFFCURVE",
"342 462 CURVE SMOOTH",
"289 462 OFFCURVE",
"243 431 OFFCURVE",
"218 389 CURVE",
"211 389 LINE",
"187 291 LINE",
"222 380 OFFCURVE",
"276 425 OFFCURVE",
"320 425 CURVE SMOOTH",
"348 425 OFFCURVE",
"356 406 OFFCURVE",
"356 351 CURVE SMOOTH",
"356 193 OFFCURVE",
"291 26 OFFCURVE",
"206 26 CURVE SMOOTH",
"176 26 OFFCURVE",
"153 46 OFFCURVE",
"153 93 CURVE SMOOTH",
"153 110 OFFCURVE",
"156 134 OFFCURVE",
"159 148 CURVE SMOOTH",
"298 754 LINE",
"171 754 LINE"
);
}
);
width = 540;
}
);
unicode = 0062;
},
{
glyphname = c;
lastChange = "2016-08-16 11:12:44 +0000";
layers = (
{
layerId = "426C3F01-D24D-4224-A47E-56DA036E4742";
paths = (
{
closed = 1;
nodes = (
"377 412 LINE SMOOTH",
"377 398 OFFCURVE",
"347 395 OFFCURVE",
"347 359 CURVE SMOOTH",
"347 327 OFFCURVE",
"371 311 OFFCURVE",
"402 311 CURVE SMOOTH",
"436 311 OFFCURVE",
"460 332 OFFCURVE",
"460 369 CURVE SMOOTH",
"460 425 OFFCURVE",
"408 462 OFFCURVE",
"328 462 CURVE SMOOTH",
"175 462 OFFCURVE",
"44 329 OFFCURVE",
"44 191 CURVE SMOOTH",
"44 89 OFFCURVE",
"115 -13 OFFCURVE",
"232 -13 CURVE SMOOTH",
"312 -13 OFFCURVE",
"379 34 OFFCURVE",
"424 119 CURVE",
"404 133 LINE",
"355 47 OFFCURVE",
"296 17 OFFCURVE",
"240 17 CURVE SMOOTH",
"173 17 OFFCURVE",
"149 60 OFFCURVE",
"149 134 CURVE SMOOTH",
"149 240 OFFCURVE",
"199 432 OFFCURVE",
"326 432 CURVE SMOOTH",
"348 432 OFFCURVE",
"377 426 OFFCURVE",
"377 412 CURVE SMOOTH"
);
}
);
width = 470;
},
{
layerId = "DD3DBCA6-CF88-4DA3-ACF4-A2FFC969FFEC";
paths = (
{
closed = 1;
nodes = (
"474 357 LINE SMOOTH",
"474 414 OFFCURVE",
"409 462 OFFCURVE",
"318 462 CURVE SMOOTH",
"162 462 OFFCURVE",
"22 318 OFFCURVE",
"22 177 CURVE SMOOTH",
"22 78 OFFCURVE",
"91 -11 OFFCURVE",
"223 -11 CURVE SMOOTH",
"324 -11 OFFCURVE",
"409 42 OFFCURVE",
"462 129 CURVE",
"437 148 LINE",
"375 57 OFFCURVE",
"303 29 OFFCURVE",
"238 29 CURVE SMOOTH",
"193 29 OFFCURVE",
"165 43 OFFCURVE",
"165 83 CURVE SMOOTH",
"165 90 OFFCURVE",
"166 99 OFFCURVE",
"167 105 CURVE SMOOTH",
"212 380 OFFCURVE",
"257 432 OFFCURVE",
"312 432 CURVE SMOOTH",
"331 432 OFFCURVE",
"346 426 OFFCURVE",
"346 407 CURVE SMOOTH",
"346 388 OFFCURVE",
"330 366 OFFCURVE",
"330 343 CURVE SMOOTH",
"330 314 OFFCURVE",
"354 287 OFFCURVE",
"399 287 CURVE SMOOTH",
"452 287 OFFCURVE",
"474 323 OFFCURVE",
"474 357 CURVE SMOOTH"
);
}
);
width = 479;
}
);
leftKerningGroup = c;
rightKerningGroup = c;
unicode = 0063;
},
{
glyphname = d;
lastChange = "2016-08-16 11:12:44 +0000";
layers = (
{
layerId = "426C3F01-D24D-4224-A47E-56DA036E4742";
paths = (
{
closed = 1;
nodes = (
"599 754 LINE",
"492 754 LINE",
"349 153 LINE SMOOTH",
"341 121 OFFCURVE",
"338 94 OFFCURVE",
"338 74 CURVE SMOOTH",
"338 11 OFFCURVE",
"368 -13 OFFCURVE",
"414 -13 CURVE SMOOTH",
"498 -13 OFFCURVE",
"549 68 OFFCURVE",
"593 157 CURVE",
"573 166 LINE",
"525 73 OFFCURVE",
"488 38 OFFCURVE",
"455 38 CURVE SMOOTH",
"440 38 OFFCURVE",
"432 45 OFFCURVE",
"432 63 CURVE SMOOTH",
"432 69 OFFCURVE",
"433 80 OFFCURVE",
"437 97 CURVE SMOOTH"
);
},
{
closed = 1;
nodes = (
"392 729 LINE",
"587 729 LINE",
"587 754 LINE",
"392 754 LINE"
);
},
{
closed = 1;
nodes = (
"400 389 LINE",
"383 431 OFFCURVE",
"353 462 OFFCURVE",
"295 462 CURVE SMOOTH",
"173 462 OFFCURVE",
"32 324 OFFCURVE",
"32 169 CURVE SMOOTH",
"32 54 OFFCURVE",
"109 -13 OFFCURVE",
"198 -13 CURVE SMOOTH",
"263 -13 OFFCURVE",
"308 23 OFFCURVE",
"334 70 CURVE",
"341 70 LINE",
"353 170 LINE",
"308 40 OFFCURVE",
"254 19 OFFCURVE",
"217 19 CURVE SMOOTH",
"172 19 OFFCURVE",
"146 48 OFFCURVE",
"146 120 CURVE SMOOTH",
"146 227 OFFCURVE",
"203 433 OFFCURVE",
"304 433 CURVE SMOOTH",
"351 433 OFFCURVE",
"387 389 OFFCURVE",
"387 333 CURVE SMOOTH",
"387 323 OFFCURVE",
"386 311 OFFCURVE",
"384 298 CURVE",
"407 389 LINE"
);
}
);
width = 560;
},
{
layerId = "DD3DBCA6-CF88-4DA3-ACF4-A2FFC969FFEC";
paths = (
{
closed = 1;
nodes = (
"648 754 LINE",
"514 754 LINE",
"369 153 LINE SMOOTH",
"356 100 OFFCURVE",
"353 86 OFFCURVE",
"353 70 CURVE SMOOTH",
"353 15 OFFCURVE",
"388 -11 OFFCURVE",
"440 -11 CURVE SMOOTH",
"531 -11 OFFCURVE",
"594 69 OFFCURVE",
"620 152 CURVE",
"595 161 LINE",
"558 69 OFFCURVE",
"517 41 OFFCURVE",
"497 41 CURVE SMOOTH",
"490 41 OFFCURVE",
"485 45 OFFCURVE",
"485 54 CURVE SMOOTH",
"485 58 OFFCURVE",
"486 70 OFFCURVE",
"490 87 CURVE SMOOTH"
);
},
{
closed = 1;
nodes = (
"396 724 LINE",
"591 724 LINE",
"591 754 LINE",
"396 754 LINE"
);
},
{
closed = 1;
nodes = (
"422 389 LINE",
"399 439 OFFCURVE",
"365 462 OFFCURVE",
"312 462 CURVE SMOOTH",
"181 462 OFFCURVE",
"36 324 OFFCURVE",
"36 168 CURVE SMOOTH",
"36 53 OFFCURVE",
"114 -11 OFFCURVE",
"199 -11 CURVE SMOOTH",
"268 -11 OFFCURVE",
"320 32 OFFCURVE",
"346 70 CURVE",
"353 70 LINE",
"385 208 LINE",
"351 76 OFFCURVE",
"267 30 OFFCURVE",
"220 30 CURVE SMOOTH",
"190 30 OFFCURVE",
"178 48 OFFCURVE",
"178 107 CURVE SMOOTH",
"178 250 OFFCURVE",
"251 423 OFFCURVE",
"332 423 CURVE SMOOTH",
"370 423 OFFCURVE",
"409 385 OFFCURVE",
"409 334 CURVE SMOOTH",
"409 322 OFFCURVE",
"407 313 OFFCURVE",
"406 298 CURVE",
"429 389 LINE"
);
}
);
width = 609;
}
);
leftKerningGroup = d;
rightKerningGroup = d;
unicode = 0064;
},
{
glyphname = eth;
lastChange = "2016-08-16 11:12:44 +0000";
layers = (
{
layerId = "426C3F01-D24D-4224-A47E-56DA036E4742";
paths = (
{
closed = 1;
nodes = (
"242 725 LINE",
"369 693 OFFCURVE",
"421 623 OFFCURVE",
"421 515 CURVE SMOOTH",
"421 489 OFFCURVE",
"418 458 OFFCURVE",
"411 426 CURVE",
"407 425 LINE",
"382 449 OFFCURVE",
"341 464 OFFCURVE",
"295 464 CURVE SMOOTH",
"156 464 OFFCURVE",
"31 329 OFFCURVE",
"31 186 CURVE SMOOTH",
"31 69 OFFCURVE",
"114 -13 OFFCURVE",
"231 -13 CURVE SMOOTH",
"418 -13 OFFCURVE",
"531 198 OFFCURVE",
"531 390 CURVE SMOOTH",
"531 585 OFFCURVE",
"415 718 OFFCURVE",
"257 752 CURVE"
);
},
{
closed = 1;
nodes = (
"381 221 LINE SMOOTH",
"349 72 OFFCURVE",
"314 14 OFFCURVE",
"230 14 CURVE SMOOTH",
"184 14 OFFCURVE",
"152 31 OFFCURVE",
"152 125 CURVE SMOOTH",
"152 254 OFFCURVE",
"212 434 OFFCURVE",
"317 434 CURVE SMOOTH",
"352 434 OFFCURVE",
"385 414 OFFCURVE",
"403 384 CURVE",
"400 321 OFFCURVE",
"391 268 OFFCURVE",
"381 221 CURVE SMOOTH"
);
},
{
closed = 1;
nodes = (
"267 561 LINE",
"593 666 LINE",
"584 695 LINE",
"257 590 LINE"
);
}
);
width = 547;
},
{
layerId = "DD3DBCA6-CF88-4DA3-ACF4-A2FFC969FFEC";
paths = (
{
closed = 1;
nodes = (
"279 754 LINE",
"459 747 OFFCURVE",
"592 593 OFFCURVE",
"592 393 CURVE SMOOTH",
"592 191 OFFCURVE",
"447 -11 OFFCURVE",
"241 -11 CURVE SMOOTH",
"117 -11 OFFCURVE",
"22 60 OFFCURVE",
"22 179 CURVE SMOOTH",
"22 328 OFFCURVE",
"172 455 OFFCURVE",
"328 455 CURVE SMOOTH",
"370 455 OFFCURVE",
"408 446 OFFCURVE",
"431 431 CURVE",
"435 432 LINE",
"436 452 OFFCURVE",
"438 458 OFFCURVE",
"438 481 CURVE SMOOTH",
"438 617 OFFCURVE",
"373 708 OFFCURVE",
"263 725 CURVE"
);
},
{
closed = 1;
nodes = (
"409 223 LINE SMOOTH",
"419 264 OFFCURVE",
"429 308 OFFCURVE",
"429 364 CURVE",
"420 390 OFFCURVE",
"392 415 OFFCURVE",
"352 415 CURVE SMOOTH",
"249 415 OFFCURVE",
"180 244 OFFCURVE",
"180 127 CURVE SMOOTH",
"180 60 OFFCURVE",
"203 24 OFFCURVE",
"263 24 CURVE SMOOTH",
"332 24 OFFCURVE",
"371 73 OFFCURVE",
"409 223 CURVE SMOOTH"
);
},
{
closed = 1;
nodes = (
"253 600 LINE",
"616 725 LINE",
"627 682 LINE",
"266 557 LINE"
);
}
);
width = 583;
}
);
unicode = 00F0;
},
{
glyphname = dcroat;
lastChange = "2016-08-16 11:12:44 +0000";
layers = (
{
components = (
{
name = d;
}
);
layerId = "426C3F01-D24D-4224-A47E-56DA036E4742";
paths = (
{
closed = 1;
nodes = (
"333 596 LINE",
"628 596 LINE",
"628 631 LINE",
"333 631 LINE"
);
}
);
width = 560;
},
{
components = (
{
name = d;
}
);
layerId = "DD3DBCA6-CF88-4DA3-ACF4-A2FFC969FFEC";
paths = (
{
closed = 1;
nodes = (
"372 586 LINE",
"667 586 LINE",
"667 621 LINE",
"372 621 LINE"
);
}
);
width = 609;
}
);
leftKerningGroup = d;
unicode = 0111;
},
{
glyphname = e;
lastChange = "2016-08-16 11:12:44 +0000";
layers = (
{
layerId = "426C3F01-D24D-4224-A47E-56DA036E4742";
paths = (
{
closed = 1;
nodes = (
"311 462 LINE SMOOTH",
"171 462 OFFCURVE",
"33 325 OFFCURVE",
"33 190 CURVE SMOOTH",
"33 86 OFFCURVE",
"115 -13 OFFCURVE",
"240 -13 CURVE SMOOTH",
"334 -13 OFFCURVE",
"400 42 OFFCURVE",
"443 119 CURVE",
"423 133 LINE",
"370 45 OFFCURVE",
"305 17 OFFCURVE",
"250 17 CURVE SMOOTH",
"182 17 OFFCURVE",
"153 59 OFFCURVE",
"153 148 CURVE SMOOTH",
"153 265 OFFCURVE",
"204 432 OFFCURVE",
"304 432 CURVE SMOOTH",
"341 432 OFFCURVE",
"366 410 OFFCURVE",
"366 357 CURVE SMOOTH",
"366 289 OFFCURVE",
"323 229 OFFCURVE",
"204 229 CURVE SMOOTH",
"177 229 OFFCURVE",
"154 229 OFFCURVE",
"131 239 CURVE",
"126 214 LINE",
"139 211 OFFCURVE",
"199 203 OFFCURVE",
"245 203 CURVE SMOOTH",
"366 203 OFFCURVE",
"454 259 OFFCURVE",
"454 344 CURVE SMOOTH",
"454 413 OFFCURVE",
"395 462 OFFCURVE",
"311 462 CURVE SMOOTH"
);
}
);
width = 466;
},
{
layerId = "DD3DBCA6-CF88-4DA3-ACF4-A2FFC969FFEC";
paths = (
{
closed = 1;
nodes = (
"322 462 LINE SMOOTH",
"170 462 OFFCURVE",
"27 319 OFFCURVE",
"27 177 CURVE SMOOTH",
"27 79 OFFCURVE",
"96 -11 OFFCURVE",
"228 -11 CURVE SMOOTH",
"329 -11 OFFCURVE",
"414 42 OFFCURVE",
"467 129 CURVE",
"442 148 LINE",
"380 57 OFFCURVE",
"308 29 OFFCURVE",
"243 29 CURVE SMOOTH",
"198 29 OFFCURVE",
"170 43 OFFCURVE",
"170 83 CURVE SMOOTH",
"170 90 OFFCURVE",
"171 99 OFFCURVE",
"172 105 CURVE SMOOTH",
"213 383 OFFCURVE",
"268 432 OFFCURVE",
"313 432 CURVE SMOOTH",
"350 432 OFFCURVE",
"370 397 OFFCURVE",
"370 352 CURVE SMOOTH",
"370 285 OFFCURVE",
"327 232 OFFCURVE",
"233 232 CURVE SMOOTH",
"181 232 OFFCURVE",
"158 232 OFFCURVE",
"135 242 CURVE",
"130 207 LINE",
"141 204 OFFCURVE",
"214 196 OFFCURVE",
"264 196 CURVE SMOOTH",
"408 196 OFFCURVE",
"483 261 OFFCURVE",
"483 337 CURVE SMOOTH",
"483 409 OFFCURVE",
"414 462 OFFCURVE",
"322 462 CURVE SMOOTH"
);
}
);
width = 504;
}
);
leftKerningGroup = e;
rightKerningGroup = e;
unicode = 0065;
},
{
glyphname = f;
lastChange = "2016-08-16 11:12:44 +0000";
layers = (
{
layerId = "426C3F01-D24D-4224-A47E-56DA036E4742";
paths = (
{
closed = 1;
nodes = (
"277 501 LINE SMOOTH",
"319 682 OFFCURVE",
"359 736 OFFCURVE",
"417 736 CURVE SMOOTH",
"438 736 OFFCURVE",
"452 729 OFFCURVE",
"452 718 CURVE SMOOTH",
"452 705 OFFCURVE",
"431 695 OFFCURVE",
"431 669 CURVE SMOOTH",
"431 645 OFFCURVE",
"450 625 OFFCURVE",
"481 625 CURVE SMOOTH",
"515 625 OFFCURVE",
"535 651 OFFCURVE",
"535 681 CURVE SMOOTH",
"535 732 OFFCURVE",
"482 766 OFFCURVE",
"424 766 CURVE SMOOTH",
"320 766 OFFCURVE",
"201 656 OFFCURVE",
"156 440 CURVE SMOOTH",
"35 -140 LINE SMOOTH",
"10 -260 OFFCURVE",
"-26 -294 OFFCURVE",
"-68 -294 CURVE SMOOTH",
"-88 -294 OFFCURVE",
"-92 -287 OFFCURVE",
"-92 -276 CURVE SMOOTH",
"-92 -267 OFFCURVE",
"-89 -256 OFFCURVE",
"-89 -247 CURVE SMOOTH",
"-89 -223 OFFCURVE",
"-108 -203 OFFCURVE",
"-136 -203 CURVE SMOOTH",
"-164 -203 OFFCURVE",
"-185 -223 OFFCURVE",
"-185 -251 CURVE SMOOTH",
"-185 -293 OFFCURVE",
"-140 -324 OFFCURVE",
"-82 -324 CURVE SMOOTH",
"3 -324 OFFCURVE",
"101 -256 OFFCURVE",
"171 45 CURVE SMOOTH"
);
},
{
closed = 1;
nodes = (
"62 425 LINE",
"383 425 LINE",
"383 450 LINE",
"62 450 LINE"
);
}
);
width = 312;
},
{
layerId = "DD3DBCA6-CF88-4DA3-ACF4-A2FFC969FFEC";
paths = (
{
closed = 1;
nodes = (
"288 501 LINE SMOOTH",
"322 682 OFFCURVE",
"361 736 OFFCURVE",
"408 736 CURVE SMOOTH",
"426 736 OFFCURVE",
"434 728 OFFCURVE",
"434 718 CURVE SMOOTH",
"434 702 OFFCURVE",
"413 691 OFFCURVE",
"413 658 CURVE SMOOTH",
"413 623 OFFCURVE",
"438 600 OFFCURVE",
"476 600 CURVE SMOOTH",
"519 600 OFFCURVE",
"539 629 OFFCURVE",
"539 667 CURVE SMOOTH",
"539 727 OFFCURVE",
"487 766 OFFCURVE",
"422 766 CURVE SMOOTH",
"314 766 OFFCURVE",
"183 659 OFFCURVE",
"136 434 CURVE SMOOTH",
"52 33 LINE SMOOTH",
"-11 -268 OFFCURVE",
"-28 -289 OFFCURVE",
"-61 -289 CURVE SMOOTH",
"-76 -289 OFFCURVE",
"-84 -285 OFFCURVE",
"-84 -272 CURVE SMOOTH",
"-84 -256 OFFCURVE",
"-71 -245 OFFCURVE",
"-71 -224 CURVE SMOOTH",
"-71 -198 OFFCURVE",
"-91 -172 OFFCURVE",
"-131 -172 CURVE SMOOTH",
"-172 -172 OFFCURVE",
"-193 -199 OFFCURVE",
"-193 -235 CURVE SMOOTH",
"-193 -279 OFFCURVE",
"-163 -324 OFFCURVE",
"-92 -324 CURVE SMOOTH",
"35 -324 OFFCURVE",
"153 -177 OFFCURVE",
"223 175 CURVE SMOOTH"
);
},
{
closed = 1;
nodes = (
"38 420 LINE",
"399 420 LINE",
"399 450 LINE",
"38 450 LINE"
);
}
);
width = 320;
}
);
leftKerningGroup = f;
rightKerningGroup = f;
unicode = 0066;
},
{
glyphname = g;
lastChange = "2016-08-16 11:12:44 +0000";
layers = (
{
layerId = "426C3F01-D24D-4224-A47E-56DA036E4742";
paths = (
{
closed = 1;
nodes = (
"231 156 LINE SMOOTH",
"194 156 OFFCURVE",
"183 186 OFFCURVE",
"183 237 CURVE SMOOTH",
"183 336 OFFCURVE",
"224 442 OFFCURVE",
"299 442 CURVE SMOOTH",
"335 442 OFFCURVE",
"347 418 OFFCURVE",
"347 367 CURVE SMOOTH",
"347 272 OFFCURVE",
"305 156 OFFCURVE",
"231 156 CURVE SMOOTH"
);
},
{
closed = 1;
nodes = (
"239 136 LINE SMOOTH",
"344 136 OFFCURVE",
"435 208 OFFCURVE",
"435 319 CURVE SMOOTH",
"435 401 OFFCURVE",
"385 462 OFFCURVE",
"292 462 CURVE SMOOTH",
"187 462 OFFCURVE",
"88 385 OFFCURVE",
"88 281 CURVE SMOOTH",
"88 213 OFFCURVE",
"131 136 OFFCURVE",
"239 136 CURVE SMOOTH"
);
},
{
closed = 1;
nodes = (
"431 282 LINE",
"450 362 OFFCURVE",
"461 409 OFFCURVE",
"474 409 CURVE SMOOTH",
"484 409 OFFCURVE",
"488 382 OFFCURVE",
"516 382 CURVE SMOOTH",
"541 382 OFFCURVE",
"553 404 OFFCURVE",
"553 421 CURVE SMOOTH",
"553 443 OFFCURVE",
"535 462 OFFCURVE",
"508 462 CURVE SMOOTH",
"473 462 OFFCURVE",
"449 430 OFFCURVE",
"431 369 CURVE",
"427 369 LINE"
);
},
{
closed = 1;
nodes = (
"145 197 LINE",
"115 192 OFFCURVE",
"4 156 OFFCURVE",
"4 69 CURVE SMOOTH",
"4 0 OFFCURVE",
"75 -30 OFFCURVE",
"113 -33 CURVE SMOOTH",
"336 -51 LINE SMOOTH",
"374 -54 OFFCURVE",
"400 -77 OFFCURVE",
"400 -118 CURVE SMOOTH",
"400 -188 OFFCURVE",
"324 -296 OFFCURVE",
"168 -296 CURVE SMOOTH",
"70 -296 OFFCURVE",
"18 -254 OFFCURVE",
"18 -178 CURVE SMOOTH",
"18 -114 OFFCURVE",
"54 -62 OFFCURVE",
"205 -16 CURVE",
"174 -5 LINE",
"-21 -52 OFFCURVE",
"-56 -118 OFFCURVE",
"-56 -177 CURVE SMOOTH",
"-56 -267 OFFCURVE",
"25 -326 OFFCURVE",
"158 -326 CURVE SMOOTH",
"355 -326 OFFCURVE",
"440 -197 OFFCURVE",
"440 -80 CURVE SMOOTH",
"440 -8 OFFCURVE",
"407 47 OFFCURVE",
"330 52 CURVE SMOOTH",
"172 62 LINE SMOOTH",
"93 67 OFFCURVE",
"76 78 OFFCURVE",
"76 105 CURVE SMOOTH",
"76 137 OFFCURVE",
"100 158 OFFCURVE",
"143 166 CURVE"
);
}
);
width = 517;
},
{
layerId = "DD3DBCA6-CF88-4DA3-ACF4-A2FFC969FFEC";
paths = (
{
closed = 1;
nodes = (
"231 156 LINE SMOOTH",
"198 156 OFFCURVE",
"188 176 OFFCURVE",
"188 220 CURVE SMOOTH",
"188 308 OFFCURVE",
"229 437 OFFCURVE",
"314 437 CURVE SMOOTH",
"348 437 OFFCURVE",
"354 416 OFFCURVE",
"354 382 CURVE SMOOTH",
"354 300 OFFCURVE",
"319 156 OFFCURVE",
"231 156 CURVE SMOOTH"
);
},
{
closed = 1;
nodes = (
"243 131 LINE SMOOTH",
"370 131 OFFCURVE",
"476 204 OFFCURVE",
"476 323 CURVE SMOOTH",
"476 339 OFFCURVE",
"474 349 OFFCURVE",
"471 361 CURVE",
"462 367 LINE",
"437 414 OFFCURVE",
"400 462 OFFCURVE",
"305 462 CURVE SMOOTH",
"185 462 OFFCURVE",
"66 384 OFFCURVE",
"66 275 CURVE SMOOTH",
"66 204 OFFCURVE",
"116 131 OFFCURVE",
"243 131 CURVE SMOOTH"
);
},
{
closed = 1;
nodes = (
"471 287 LINE",
"485 367 OFFCURVE",
"495 391 OFFCURVE",
"506 391 CURVE SMOOTH",
"513 391 OFFCURVE",
"522 380 OFFCURVE",
"542 380 CURVE SMOOTH",
"573 380 OFFCURVE",
"584 405 OFFCURVE",
"584 423 CURVE SMOOTH",
"584 445 OFFCURVE",
"569 464 OFFCURVE",
"539 464 CURVE SMOOTH",
"501 464 OFFCURVE",
"483 432 OFFCURVE",
"463 374 CURVE",
"459 374 LINE"
);
},
{
closed = 1;
nodes = (
"142 197 LINE",
"112 192 OFFCURVE",
"1 154 OFFCURVE",
"1 53 CURVE SMOOTH",
"1 -23 OFFCURVE",
"65 -58 OFFCURVE",
"103 -60 CURVE SMOOTH",
"333 -75 LINE SMOOTH",
"380 -78 OFFCURVE",
"406 -92 OFFCURVE",
"406 -126 CURVE SMOOTH",
"406 -187 OFFCURVE",
"326 -284 OFFCURVE",
"169 -284 CURVE SMOOTH",
"73 -284 OFFCURVE",
"27 -248 OFFCURVE",
"27 -174 CURVE SMOOTH",
"27 -107 OFFCURVE",
"65 -58 OFFCURVE",
"202 -16 CURVE",
"171 -5 LINE",
"128 -16 OFFCURVE",
"85 -32 OFFCURVE",
"57 -45 CURVE",
"57 -49 LINE",
"-37 -84 OFFCURVE",
"-59 -130 OFFCURVE",
"-59 -176 CURVE SMOOTH",
"-59 -263 OFFCURVE",
"22 -319 OFFCURVE",
"158 -319 CURVE SMOOTH",
"366 -319 OFFCURVE",
"459 -187 OFFCURVE",
"459 -70 CURVE SMOOTH",
"459 7 OFFCURVE",
"419 56 OFFCURVE",
"349 58 CURVE SMOOTH",
"169 64 LINE SMOOTH",
"88 67 OFFCURVE",
"71 81 OFFCURVE",
"71 108 CURVE SMOOTH",
"71 138 OFFCURVE",
"92 157 OFFCURVE",
"140 166 CURVE"
);
}
);
width = 529;
}
);
leftKerningGroup = g;
rightKerningGroup = g;
unicode = 0067;
},
{
glyphname = h;
lastChange = "2016-08-16 11:12:44 +0000";
layers = (
{
layerId = "426C3F01-D24D-4224-A47E-56DA036E4742";
paths = (
{
closed = 1;
nodes = (
"304 754 LINE",
"197 754 LINE",
"19 0 LINE",
"122 0 LINE"
);
},
{
closed = 1;
nodes = (
"98 729 LINE",
"292 729 LINE",
"292 754 LINE",
"98 754 LINE"
);
},
{
closed = 1;
nodes = (
"179 236 LINE",
"209 342 OFFCURVE",
"289 420 OFFCURVE",
"349 420 CURVE SMOOTH",
"371 420 OFFCURVE",
"386 410 OFFCURVE",
"386 387 CURVE SMOOTH",
"386 379 OFFCURVE",
"384 371 OFFCURVE",
"382 361 CURVE SMOOTH",
"316 87 LINE SMOOTH",
"314 78 OFFCURVE",
"312 67 OFFCURVE",
"312 56 CURVE SMOOTH",
"312 15 OFFCURVE",
"341 -13 OFFCURVE",
"388 -13 CURVE SMOOTH",
"469 -13 OFFCURVE",
"523 69 OFFCURVE",
"562 157 CURVE",
"542 166 LINE",
"500 73 OFFCURVE",
"467 38 OFFCURVE",
"438 38 CURVE SMOOTH",
"424 38 OFFCURVE",
"416 46 OFFCURVE",
"416 63 CURVE SMOOTH",
"416 69 OFFCURVE",
"417 80 OFFCURVE",
"421 97 CURVE SMOOTH",
"482 338 LINE SMOOTH",
"486 355 OFFCURVE",
"488 370 OFFCURVE",
"488 382 CURVE SMOOTH",
"488 438 OFFCURVE",
"446 462 OFFCURVE",
"395 462 CURVE SMOOTH",
"321 462 OFFCURVE",
"254 413 OFFCURVE",
"214 363 CURVE",
"207 363 LINE"
);
}
);
width = 554;
},
{
layerId = "DD3DBCA6-CF88-4DA3-ACF4-A2FFC969FFEC";
paths = (
{
closed = 1;
nodes = (
"334 754 LINE",
"197 754 LINE",
"13 0 LINE",
"146 0 LINE"
);
},
{
closed = 1;
nodes = (
"103 724 LINE",
"322 724 LINE",
"322 754 LINE",
"103 754 LINE"
);
},
{
closed = 1;
nodes = (
"202 231 LINE",
"234 343 OFFCURVE",
"329 416 OFFCURVE",
"373 416 CURVE SMOOTH",
"388 416 OFFCURVE",
"397 408 OFFCURVE",
"397 393 CURVE SMOOTH",
"397 384 OFFCURVE",
"394 365 OFFCURVE",
"392 356 CURVE SMOOTH",
"328 107 LINE SMOOTH",
"326 98 OFFCURVE",
"324 88 OFFCURVE",
"324 75 CURVE SMOOTH",
"324 19 OFFCURVE",
"360 -11 OFFCURVE",
"422 -11 CURVE SMOOTH",
"487 -11 OFFCURVE",
"550 21 OFFCURVE",
"596 146 CURVE",
"571 155 LINE",
"535 69 OFFCURVE",
"497 35 OFFCURVE",
"472 35 CURVE SMOOTH",
"461 35 OFFCURVE",
"456 42 OFFCURVE",
"456 55 CURVE SMOOTH",
"456 61 OFFCURVE",
"457 72 OFFCURVE",
"461 89 CURVE SMOOTH",
"523 331 LINE SMOOTH",
"527 348 OFFCURVE",
"529 362 OFFCURVE",
"529 375 CURVE SMOOTH",
"529 437 OFFCURVE",
"480 462 OFFCURVE",
"422 462 CURVE SMOOTH",
"339 462 OFFCURVE",
"282 412 OFFCURVE",
"242 362 CURVE",
"235 362 LINE"
);
}
);
width = 584;
}
);
leftKerningGroup = h;
rightKerningGroup = h;
unicode = 0068;
},
{
glyphname = hbar;
lastChange = "2016-08-16 11:12:44 +0000";
layers = (
{
components = (
{
name = h;
}
);
layerId = "426C3F01-D24D-4224-A47E-56DA036E4742";
paths = (
{
closed = 1;
nodes = (
"64 576 LINE",
"389 576 LINE",
"389 611 LINE",
"64 611 LINE"
);
}
);
width = 554;
},
{
components = (
{
name = h;
}
);
layerId = "DD3DBCA6-CF88-4DA3-ACF4-A2FFC969FFEC";
paths = (
{
closed = 1;
nodes = (
"84 581 LINE",
"409 581 LINE",
"409 621 LINE",
"84 621 LINE"
);
}
);
width = 584;
}
);
rightKerningGroup = h;
unicode = 0127;
},
{
glyphname = i;
lastChange = "2016-08-16 11:12:44 +0000";
layers = (
{
layerId = "426C3F01-D24D-4224-A47E-56DA036E4742";
paths = (
{
closed = 1;
nodes = (
"248 450 LINE",
"141 450 LINE",
"54 87 LINE SMOOTH",
"52 78 OFFCURVE",
"50 67 OFFCURVE",
"50 56 CURVE SMOOTH",
"50 15 OFFCURVE",
"78 -13 OFFCURVE",
"127 -13 CURVE SMOOTH",
"213 -13 OFFCURVE",
"271 73 OFFCURVE",
"310 157 CURVE",
"290 166 LINE",
"244 73 OFFCURVE",
"208 38 OFFCURVE",
"176 38 CURVE SMOOTH",
"162 38 OFFCURVE",
"154 45 OFFCURVE",
"154 63 CURVE SMOOTH",
"154 69 OFFCURVE",
"155 80 OFFCURVE",
"159 97 CURVE SMOOTH"
);
},
{
closed = 1;
nodes = (
"47 425 LINE",
"236 425 LINE",
"236 450 LINE",
"47 450 LINE"
);
},
{
closed = 1;
nodes = (
"163 667 LINE SMOOTH",
"163 631 OFFCURVE",
"193 601 OFFCURVE",
"229 601 CURVE SMOOTH",
"265 601 OFFCURVE",
"295 631 OFFCURVE",
"295 667 CURVE SMOOTH",
"295 703 OFFCURVE",
"265 733 OFFCURVE",
"229 733 CURVE SMOOTH",
"193 733 OFFCURVE",
"163 703 OFFCURVE",
"163 667 CURVE SMOOTH"
);
}
);
width = 312;
},
{
layerId = "DD3DBCA6-CF88-4DA3-ACF4-A2FFC969FFEC";
paths = (
{
closed = 1;
nodes = (
"279 450 LINE",
"145 450 LINE",
"71 153 LINE SMOOTH",
"58 100 OFFCURVE",
"55 86 OFFCURVE",
"55 70 CURVE SMOOTH",
"55 15 OFFCURVE",
"90 -11 OFFCURVE",
"142 -11 CURVE SMOOTH",
"233 -11 OFFCURVE",
"298 38 OFFCURVE",
"335 147 CURVE",
"310 156 LINE",
"269 65 OFFCURVE",
"225 37 OFFCURVE",
"203 37 CURVE SMOOTH",
"195 37 OFFCURVE",
"190 41 OFFCURVE",
"190 54 CURVE SMOOTH",
"190 58 OFFCURVE",
"191 68 OFFCURVE",
"195 87 CURVE SMOOTH"
);
},
{
closed = 1;
nodes = (
"48 420 LINE",
"222 420 LINE",
"222 450 LINE",
"48 450 LINE"
);
},
{
closed = 1;
nodes = (
"167 656 LINE SMOOTH",
"167 612 OFFCURVE",
"202 577 OFFCURVE",
"246 577 CURVE SMOOTH",
"290 577 OFFCURVE",
"325 612 OFFCURVE",
"325 656 CURVE SMOOTH",
"325 700 OFFCURVE",
"290 735 OFFCURVE",
"246 735 CURVE SMOOTH",
"202 735 OFFCURVE",
"167 700 OFFCURVE",
"167 656 CURVE SMOOTH"
);
}
);
width = 330;
}
);
leftKerningGroup = i;
rightKerningGroup = i;
unicode = 0069;
},
{
glyphname = dotlessi;
lastChange = "2016-08-16 11:12:44 +0000";
layers = (
{
layerId = "426C3F01-D24D-4224-A47E-56DA036E4742";
paths = (
{
closed = 1;
nodes = (
"248 450 LINE",
"141 450 LINE",
"54 87 LINE SMOOTH",
"52 78 OFFCURVE",
"50 67 OFFCURVE",
"50 56 CURVE SMOOTH",
"50 15 OFFCURVE",
"78 -13 OFFCURVE",
"127 -13 CURVE SMOOTH",
"213 -13 OFFCURVE",
"271 73 OFFCURVE",
"310 157 CURVE",
"290 166 LINE",
"244 73 OFFCURVE",
"208 38 OFFCURVE",
"176 38 CURVE SMOOTH",
"162 38 OFFCURVE",
"154 45 OFFCURVE",
"154 63 CURVE SMOOTH",
"154 69 OFFCURVE",
"155 80 OFFCURVE",
"159 97 CURVE SMOOTH"
);
},
{
closed = 1;
nodes = (
"47 425 LINE",
"236 425 LINE",
"236 450 LINE",
"47 450 LINE"
);
}
);
width = 312;
},
{
layerId = "DD3DBCA6-CF88-4DA3-ACF4-A2FFC969FFEC";
paths = (
{
closed = 1;
nodes = (
"279 450 LINE",
"145 450 LINE",
"71 153 LINE SMOOTH",
"58 100 OFFCURVE",
"55 86 OFFCURVE",
"55 70 CURVE SMOOTH",
"55 15 OFFCURVE",
"90 -11 OFFCURVE",
"142 -11 CURVE SMOOTH",
"233 -11 OFFCURVE",
"298 38 OFFCURVE",
"335 147 CURVE",
"310 156 LINE",
"269 65 OFFCURVE",
"225 37 OFFCURVE",
"203 37 CURVE SMOOTH",
"195 37 OFFCURVE",
"190 41 OFFCURVE",
"190 54 CURVE SMOOTH",
"190 58 OFFCURVE",
"191 68 OFFCURVE",
"195 87 CURVE SMOOTH"
);
},
{
closed = 1;
nodes = (
"48 420 LINE",
"222 420 LINE",
"222 450 LINE",
"48 450 LINE"
);
}
);
width = 330;
}
);
unicode = 0131;
},
{
glyphname = iacute;
lastChange = "2016-08-16 11:12:44 +0000";
layers = (
{
components = (
{
name = acute;
transform = "{1, 0, 0, 1, 49, 0}";
},
{
name = dotlessi;
}
);
layerId = "426C3F01-D24D-4224-A47E-56DA036E4742";
width = 316;
},
{
background = {
paths = (
{
closed = 1;
nodes = (
"279 450 LINE",
"145 450 LINE",
"71 153 LINE SMOOTH",
"58 100 OFFCURVE",
"55 86 OFFCURVE",
"55 70 CURVE SMOOTH",
"55 15 OFFCURVE",
"90 -11 OFFCURVE",
"142 -11 CURVE SMOOTH",
"233 -11 OFFCURVE",
"298 38 OFFCURVE",
"335 147 CURVE",
"310 156 LINE",
"269 65 OFFCURVE",
"225 37 OFFCURVE",
"203 37 CURVE SMOOTH",
"195 37 OFFCURVE",
"190 41 OFFCURVE",
"190 54 CURVE SMOOTH",
"190 58 OFFCURVE",
"191 68 OFFCURVE",
"195 87 CURVE SMOOTH"
);
},
{
closed = 1;
nodes = (
"48 420 LINE",
"222 420 LINE",
"222 450 LINE",
"48 450 LINE"
);
}
);
};
components = (
{
name = acute;
transform = "{1, 0, 0, 1, 94, 0}";
},
{
name = dotlessi;
}
);
layerId = "DD3DBCA6-CF88-4DA3-ACF4-A2FFC969FFEC";
width = 330;
}
);
leftKerningGroup = i;
rightKerningGroup = i;
unicode = 00ED;
},
{
glyphname = igrave;
lastChange = "2016-08-16 11:12:44 +0000";
layers = (
{
components = (
{
name = grave;
transform = "{1, 0, 0, 1, -102, 0}";
},
{
name = dotlessi;
}
);
layerId = "426C3F01-D24D-4224-A47E-56DA036E4742";
width = 316;
},
{
background = {
paths = (
{
closed = 1;
nodes = (
"279 450 LINE",
"145 450 LINE",
"71 153 LINE SMOOTH",
"58 100 OFFCURVE",
"55 86 OFFCURVE",
"55 70 CURVE SMOOTH",
"55 15 OFFCURVE",
"90 -11 OFFCURVE",
"142 -11 CURVE SMOOTH",
"233 -11 OFFCURVE",
"298 38 OFFCURVE",
"335 147 CURVE",
"310 156 LINE",
"269 65 OFFCURVE",
"225 37 OFFCURVE",
"203 37 CURVE SMOOTH",
"195 37 OFFCURVE",
"190 41 OFFCURVE",
"190 54 CURVE SMOOTH",
"190 58 OFFCURVE",
"191 68 OFFCURVE",
"195 87 CURVE SMOOTH"
);
},
{
closed = 1;
nodes = (
"48 420 LINE",
"222 420 LINE",
"222 450 LINE",
"48 450 LINE"
);
}
);
};
components = (
{
name = grave;
transform = "{1, 0, 0, 1, -59, 0}";
},
{
name = dotlessi;
}
);
layerId = "DD3DBCA6-CF88-4DA3-ACF4-A2FFC969FFEC";
width = 330;
}
);
leftKerningGroup = i;
rightKerningGroup = i;
unicode = 00EC;
},
{
glyphname = j;
lastChange = "2016-08-16 11:12:44 +0000";
layers = (
{
layerId = "426C3F01-D24D-4224-A47E-56DA036E4742";
paths = (
{
closed = 1;
nodes = (
"257 450 LINE",
"150 450 LINE",
"25 -152 LINE SMOOTH",
"-3 -289 OFFCURVE",
"-36 -294 OFFCURVE",
"-51 -294 CURVE SMOOTH",
"-65 -294 OFFCURVE",
"-73 -290 OFFCURVE",
"-73 -278 CURVE SMOOTH",
"-73 -270 OFFCURVE",
"-70 -256 OFFCURVE",
"-70 -246 CURVE SMOOTH",
"-70 -223 OFFCURVE",
"-88 -203 OFFCURVE",
"-117 -203 CURVE SMOOTH",
"-145 -203 OFFCURVE",
"-166 -221 OFFCURVE",
"-166 -251 CURVE SMOOTH",
"-166 -297 OFFCURVE",
"-117 -324 OFFCURVE",
"-67 -324 CURVE SMOOTH",
"13 -324 OFFCURVE",
"102 -257 OFFCURVE",
"129 -134 CURVE SMOOTH"
);
},
{
closed = 1;
nodes = (
"56 425 LINE",
"245 425 LINE",
"245 450 LINE",
"56 450 LINE"
);
},
{
closed = 1;
nodes = (
"173 667 LINE SMOOTH",
"173 631 OFFCURVE",
"203 601 OFFCURVE",
"239 601 CURVE SMOOTH",
"275 601 OFFCURVE",
"305 631 OFFCURVE",
"305 667 CURVE SMOOTH",
"305 703 OFFCURVE",
"275 733 OFFCURVE",
"239 733 CURVE SMOOTH",
"203 733 OFFCURVE",
"173 703 OFFCURVE",
"173 667 CURVE SMOOTH"
);
}
);
width = 291;
},
{
layerId = "DD3DBCA6-CF88-4DA3-ACF4-A2FFC969FFEC";
paths = (
{
closed = 1;
nodes = (
"274 450 LINE",
"137 450 LINE",
"12 -110 LINE SMOOTH",
"-26 -281 OFFCURVE",
"-48 -287 OFFCURVE",
"-59 -287 CURVE SMOOTH",
"-71 -287 OFFCURVE",
"-75 -280 OFFCURVE",
"-75 -272 CURVE SMOOTH",
"-75 -263 OFFCURVE",
"-71 -252 OFFCURVE",
"-71 -236 CURVE SMOOTH",
"-71 -197 OFFCURVE",
"-93 -180 OFFCURVE",
"-127 -180 CURVE SMOOTH",
"-166 -180 OFFCURVE",
"-189 -203 OFFCURVE",
"-189 -237 CURVE SMOOTH",
"-189 -289 OFFCURVE",
"-137 -324 OFFCURVE",
"-75 -324 CURVE SMOOTH",
"10 -324 OFFCURVE",
"116 -257 OFFCURVE",
"173 -3 CURVE SMOOTH"
);
},
{
closed = 1;
nodes = (
"43 420 LINE",
"262 420 LINE",
"262 450 LINE",
"43 450 LINE"
);
},
{
closed = 1;
nodes = (
"157 656 LINE SMOOTH",
"157 612 OFFCURVE",
"192 577 OFFCURVE",
"236 577 CURVE SMOOTH",
"280 577 OFFCURVE",
"315 612 OFFCURVE",
"315 656 CURVE SMOOTH",
"315 700 OFFCURVE",
"280 735 OFFCURVE",
"236 735 CURVE SMOOTH",
"192 735 OFFCURVE",
"157 700 OFFCURVE",
"157 656 CURVE SMOOTH"
);
}
);
width = 287;
}
);
leftKerningGroup = j;
rightKerningGroup = j;
unicode = 006A;
},
{
glyphname = dotlessj;
lastChange = "2016-08-16 11:12:44 +0000";
layers = (
{
layerId = "426C3F01-D24D-4224-A47E-56DA036E4742";
paths = (
{
closed = 1;
nodes = (
"257 450 LINE",
"150 450 LINE",
"25 -152 LINE SMOOTH",
"-3 -289 OFFCURVE",
"-36 -294 OFFCURVE",
"-51 -294 CURVE SMOOTH",
"-65 -294 OFFCURVE",
"-73 -290 OFFCURVE",
"-73 -278 CURVE SMOOTH",
"-73 -270 OFFCURVE",
"-70 -256 OFFCURVE",
"-70 -246 CURVE SMOOTH",
"-70 -223 OFFCURVE",
"-88 -203 OFFCURVE",
"-117 -203 CURVE SMOOTH",
"-145 -203 OFFCURVE",
"-166 -221 OFFCURVE",
"-166 -251 CURVE SMOOTH",
"-166 -297 OFFCURVE",
"-117 -324 OFFCURVE",
"-67 -324 CURVE SMOOTH",
"13 -324 OFFCURVE",
"102 -257 OFFCURVE",
"129 -134 CURVE SMOOTH"
);
},
{
closed = 1;
nodes = (
"56 425 LINE",
"245 425 LINE",
"245 450 LINE",
"56 450 LINE"
);
}
);
width = 291;
},
{
layerId = "DD3DBCA6-CF88-4DA3-ACF4-A2FFC969FFEC";
paths = (
{
closed = 1;
nodes = (
"274 450 LINE",
"137 450 LINE",
"12 -110 LINE SMOOTH",
"-26 -281 OFFCURVE",
"-48 -287 OFFCURVE",
"-59 -287 CURVE SMOOTH",
"-71 -287 OFFCURVE",
"-75 -280 OFFCURVE",
"-75 -272 CURVE SMOOTH",
"-75 -263 OFFCURVE",
"-71 -252 OFFCURVE",
"-71 -236 CURVE SMOOTH",
"-71 -197 OFFCURVE",
"-93 -180 OFFCURVE",
"-127 -180 CURVE SMOOTH",
"-166 -180 OFFCURVE",
"-189 -203 OFFCURVE",
"-189 -237 CURVE SMOOTH",
"-189 -289 OFFCURVE",
"-137 -324 OFFCURVE",
"-75 -324 CURVE SMOOTH",
"10 -324 OFFCURVE",
"116 -257 OFFCURVE",
"173 -3 CURVE SMOOTH"
);
},
{
closed = 1;
nodes = (
"43 420 LINE",
"262 420 LINE",
"262 450 LINE",
"43 450 LINE"
);
}
);
width = 287;
}
);
unicode = 0237;
},
{
glyphname = k;
lastChange = "2016-08-16 11:12:44 +0000";
layers = (
{
layerId = "426C3F01-D24D-4224-A47E-56DA036E4742";
paths = (
{
closed = 1;
nodes = (
"296 754 LINE",
"189 754 LINE",
"21 0 LINE",
"124 0 LINE"
);
},
{
closed = 1;
nodes = (
"95 729 LINE",
"284 729 LINE",
"284 754 LINE",
"95 754 LINE"
);
},
{
closed = 1;
nodes = (
"161 239 LINE",
"169 237 OFFCURVE",
"172 237 OFFCURVE",
"179 237 CURVE SMOOTH",
"216 237 OFFCURVE",
"237 242 OFFCURVE",
"273 264 CURVE",
"282 257 OFFCURVE",
"286 243 OFFCURVE",
"286 227 CURVE SMOOTH",
"286 181 OFFCURVE",
"253 113 OFFCURVE",
"253 65 CURVE SMOOTH",
"253 11 OFFCURVE",
"294 -13 OFFCURVE",
"336 -13 CURVE SMOOTH",
"399 -13 OFFCURVE",
"451 41 OFFCURVE",
"491 146 CURVE",
"468 157 LINE",
"439 86 OFFCURVE",
"402 45 OFFCURVE",
"373 45 CURVE SMOOTH",
"363 45 OFFCURVE",
"357 50 OFFCURVE",
"357 71 CURVE SMOOTH",
"357 98 OFFCURVE",
"367 142 OFFCURVE",
"367 174 CURVE SMOOTH",
"367 218 OFFCURVE",
"348 254 OFFCURVE",
"290 284 CURVE",
"321 318 OFFCURVE",
"355 430 OFFCURVE",
"392 430 CURVE SMOOTH",
"399 430 OFFCURVE",
"407 426 OFFCURVE",
"407 417 CURVE SMOOTH",
"407 405 OFFCURVE",
"391 396 OFFCURVE",
"391 372 CURVE SMOOTH",
"391 345 OFFCURVE",
"412 332 OFFCURVE",
"435 332 CURVE SMOOTH",
"470 332 OFFCURVE",
"488 353 OFFCURVE",
"488 384 CURVE SMOOTH",
"488 414 OFFCURVE",
"466 462 OFFCURVE",
"410 462 CURVE SMOOTH",
"324 462 OFFCURVE",
"314 346 OFFCURVE",
"250 285 CURVE",
"238 285 LINE SMOOTH",
"218 285 OFFCURVE",
"191 280 OFFCURVE",
"168 275 CURVE"
);
}
);
width = 523;
},
{
layerId = "DD3DBCA6-CF88-4DA3-ACF4-A2FFC969FFEC";
paths = (
{
closed = 1;
nodes = (
"204 236 LINE",
"213 230 OFFCURVE",
"222 227 OFFCURVE",
"233 227 CURVE SMOOTH",
"254 227 OFFCURVE",
"280 237 OFFCURVE",
"297 254 CURVE",
"308 247 OFFCURVE",
"312 238 OFFCURVE",
"312 223 CURVE SMOOTH",
"312 178 OFFCURVE",
"277 130 OFFCURVE",
"277 77 CURVE SMOOTH",
"277 14 OFFCURVE",
"327 -13 OFFCURVE",
"378 -13 CURVE SMOOTH",
"444 -13 OFFCURVE",
"499 32 OFFCURVE",
"545 132 CURVE",
"518 145 LINE",
"488 74 OFFCURVE",
"456 39 OFFCURVE",
"433 39 CURVE SMOOTH",
"423 39 OFFCURVE",
"418 45 OFFCURVE",
"418 64 CURVE SMOOTH",
"418 90 OFFCURVE",
"428 128 OFFCURVE",
"428 162 CURVE SMOOTH",
"428 204 OFFCURVE",
"413 248 OFFCURVE",
"318 278 CURVE",
"346 312 OFFCURVE",
"390 414 OFFCURVE",
"414 414 CURVE SMOOTH",
"419 414 OFFCURVE",
"422 410 OFFCURVE",
"422 402 CURVE SMOOTH",
"422 396 OFFCURVE",
"420 385 OFFCURVE",
"420 375 CURVE SMOOTH",
"420 341 OFFCURVE",
"445 325 OFFCURVE",
"477 325 CURVE SMOOTH",
"518 325 OFFCURVE",
"538 352 OFFCURVE",
"538 383 CURVE SMOOTH",
"538 415 OFFCURVE",
"516 462 OFFCURVE",
"454 462 CURVE SMOOTH",
"363 462 OFFCURVE",
"352 357 OFFCURVE",
"284 285 CURVE",
"265 285 OFFCURVE",
"232 280 OFFCURVE",
"212 269 CURVE"
);
},
{
closed = 1;
nodes = (
"334 754 LINE",
"197 754 LINE",
"13 0 LINE",
"146 0 LINE"
);
},
{
closed = 1;
nodes = (
"103 724 LINE",
"322 724 LINE",
"322 754 LINE",
"103 754 LINE"
);
}
);
width = 543;
}
);
leftKerningGroup = k;
rightKerningGroup = k;
unicode = 006B;
},
{
glyphname = kgreenlandic;
lastChange = "2016-08-16 11:12:44 +0000";
layers = (
{
layerId = "426C3F01-D24D-4224-A47E-56DA036E4742";
paths = (
{
closed = 1;
nodes = (
"227 450 LINE",
"121 450 LINE",
"21 0 LINE",
"124 0 LINE"
);
},
{
closed = 1;
nodes = (
"26 425 LINE",
"215 425 LINE",
"215 450 LINE",
"26 450 LINE"
);
},
{
closed = 1;
nodes = (
"161 239 LINE",
"169 237 OFFCURVE",
"172 237 OFFCURVE",
"179 237 CURVE SMOOTH",
"216 237 OFFCURVE",
"237 242 OFFCURVE",
"273 264 CURVE",
"282 257 OFFCURVE",
"286 243 OFFCURVE",
"286 227 CURVE SMOOTH",
"286 181 OFFCURVE",
"253 113 OFFCURVE",
"253 65 CURVE SMOOTH",
"253 11 OFFCURVE",
"294 -13 OFFCURVE",
"336 -13 CURVE SMOOTH",
"399 -13 OFFCURVE",
"451 41 OFFCURVE",
"491 146 CURVE",
"468 157 LINE",
"439 86 OFFCURVE",
"402 45 OFFCURVE",
"373 45 CURVE SMOOTH",
"363 45 OFFCURVE",
"357 50 OFFCURVE",
"357 71 CURVE SMOOTH",
"357 98 OFFCURVE",
"367 142 OFFCURVE",
"367 174 CURVE SMOOTH",
"367 218 OFFCURVE",
"348 254 OFFCURVE",
"290 284 CURVE",
"321 318 OFFCURVE",
"355 430 OFFCURVE",
"392 430 CURVE SMOOTH",
"399 430 OFFCURVE",
"407 426 OFFCURVE",
"407 417 CURVE SMOOTH",
"407 405 OFFCURVE",
"391 396 OFFCURVE",
"391 372 CURVE SMOOTH",
"391 345 OFFCURVE",
"412 332 OFFCURVE",
"435 332 CURVE SMOOTH",
"470 332 OFFCURVE",
"488 353 OFFCURVE",
"488 384 CURVE SMOOTH",
"488 414 OFFCURVE",
"466 462 OFFCURVE",
"410 462 CURVE SMOOTH",
"324 462 OFFCURVE",
"314 346 OFFCURVE",
"250 285 CURVE",
"238 285 LINE SMOOTH",
"218 285 OFFCURVE",
"191 280 OFFCURVE",
"168 275 CURVE"
);
}
);
width = 523;
},
{
background = {
paths = (
{
closed = 1;
nodes = (
"208 236 LINE",
"217 230 OFFCURVE",
"226 227 OFFCURVE",
"237 227 CURVE SMOOTH",
"258 227 OFFCURVE",
"284 237 OFFCURVE",
"301 254 CURVE",
"312 247 OFFCURVE",
"316 238 OFFCURVE",
"316 223 CURVE SMOOTH",
"316 178 OFFCURVE",
"281 130 OFFCURVE",
"281 77 CURVE SMOOTH",
"281 14 OFFCURVE",
"331 -13 OFFCURVE",
"382 -13 CURVE SMOOTH",
"448 -13 OFFCURVE",
"503 32 OFFCURVE",
"549 132 CURVE",
"522 145 LINE",
"492 74 OFFCURVE",
"460 39 OFFCURVE",
"437 39 CURVE SMOOTH",
"427 39 OFFCURVE",
"422 45 OFFCURVE",
"422 64 CURVE SMOOTH",
"422 90 OFFCURVE",
"432 128 OFFCURVE",
"432 162 CURVE SMOOTH",
"432 204 OFFCURVE",
"417 248 OFFCURVE",
"322 278 CURVE",
"350 312 OFFCURVE",
"394 414 OFFCURVE",
"418 414 CURVE SMOOTH",
"423 414 OFFCURVE",
"426 410 OFFCURVE",
"426 402 CURVE SMOOTH",
"426 396 OFFCURVE",
"424 385 OFFCURVE",
"424 375 CURVE SMOOTH",
"424 341 OFFCURVE",
"449 325 OFFCURVE",
"481 325 CURVE SMOOTH",
"522 325 OFFCURVE",
"542 352 OFFCURVE",
"542 383 CURVE SMOOTH",
"542 415 OFFCURVE",
"520 462 OFFCURVE",
"458 462 CURVE SMOOTH",
"367 462 OFFCURVE",
"356 357 OFFCURVE",
"288 285 CURVE",
"269 285 OFFCURVE",
"236 280 OFFCURVE",
"216 269 CURVE"
);
},
{
closed = 1;
nodes = (
"338 754 LINE",
"201 754 LINE",
"17 0 LINE",
"150 0 LINE"
);
},
{
closed = 1;
nodes = (
"107 724 LINE",
"326 724 LINE",
"326 754 LINE",
"107 754 LINE"
);
}
);
};
layerId = "DD3DBCA6-CF88-4DA3-ACF4-A2FFC969FFEC";
paths = (
{
closed = 1;
nodes = (
"216 216 LINE",
"225 207 OFFCURVE",
"234 207 OFFCURVE",
"245 207 CURVE SMOOTH",
"266 207 OFFCURVE",
"292 217 OFFCURVE",
"309 234 CURVE",
"320 227 OFFCURVE",
"324 218 OFFCURVE",
"324 203 CURVE SMOOTH",
"324 164 OFFCURVE",
"299 122 OFFCURVE",
"299 77 CURVE SMOOTH",
"299 14 OFFCURVE",
"349 -13 OFFCURVE",
"400 -13 CURVE SMOOTH",
"466 -13 OFFCURVE",
"521 32 OFFCURVE",
"567 132 CURVE",
"540 145 LINE",
"510 74 OFFCURVE",
"478 39 OFFCURVE",
"455 39 CURVE SMOOTH",
"445 39 OFFCURVE",
"440 45 OFFCURVE",
"440 64 CURVE SMOOTH",
"440 84 OFFCURVE",
"440 115 OFFCURVE",
"440 142 CURVE SMOOTH",
"440 184 OFFCURVE",
"425 228 OFFCURVE",
"330 258 CURVE",
"361 296 OFFCURVE",
"411 414 OFFCURVE",
"438 414 CURVE SMOOTH",
"443 414 OFFCURVE",
"446 410 OFFCURVE",
"446 402 CURVE SMOOTH",
"446 396 OFFCURVE",
"444 385 OFFCURVE",
"444 375 CURVE SMOOTH",
"444 341 OFFCURVE",
"469 325 OFFCURVE",
"501 325 CURVE SMOOTH",
"542 325 OFFCURVE",
"562 357 OFFCURVE",
"562 393 CURVE SMOOTH",
"562 421 OFFCURVE",
"540 462 OFFCURVE",
"478 462 CURVE SMOOTH",
"380 462 OFFCURVE",
"368 345 OFFCURVE",
"296 265 CURVE",
"277 265 OFFCURVE",
"244 260 OFFCURVE",
"224 249 CURVE"
);
},
{
closed = 1;
nodes = (
"280 450 LINE",
"143 450 LINE",
"35 0 LINE",
"168 0 LINE"
);
},
{
closed = 1;
nodes = (
"49 420 LINE",
"268 420 LINE",
"268 450 LINE",
"49 450 LINE"
);
}
);
width = 565;
}
);
rightKerningGroup = k;
unicode = 0138;
},
{
glyphname = l;
lastChange = "2016-08-16 11:12:44 +0000";
layers = (
{
layerId = "426C3F01-D24D-4224-A47E-56DA036E4742";
paths = (
{
closed = 1;
nodes = (
"314 754 LINE",
"207 754 LINE",
"47 87 LINE SMOOTH",
"45 78 OFFCURVE",
"43 67 OFFCURVE",
"43 56 CURVE SMOOTH",
"43 15 OFFCURVE",
"71 -13 OFFCURVE",
"120 -13 CURVE SMOOTH",
"209 -13 OFFCURVE",
"268 73 OFFCURVE",
"308 157 CURVE",
"288 166 LINE",
"240 73 OFFCURVE",
"203 38 OFFCURVE",
"169 38 CURVE SMOOTH",
"155 38 OFFCURVE",
"147 45 OFFCURVE",
"147 63 CURVE SMOOTH",
"147 69 OFFCURVE",
"148 80 OFFCURVE",
"152 97 CURVE SMOOTH"
);
},
{
closed = 1;
nodes = (
"107 729 LINE",
"302 729 LINE",
"302 754 LINE",
"107 754 LINE"
);
}
);
width = 324;
},
{
layerId = "DD3DBCA6-CF88-4DA3-ACF4-A2FFC969FFEC";
paths = (
{
closed = 1;
nodes = (
"330 754 LINE",
"196 754 LINE",
"57 132 LINE SMOOTH",
"52 108 OFFCURVE",
"48 83 OFFCURVE",
"48 67 CURVE SMOOTH",
"48 26 OFFCURVE",
"74 -11 OFFCURVE",
"131 -11 CURVE SMOOTH",
"199 -11 OFFCURVE",
"258 43 OFFCURVE",
"291 152 CURVE",
"266 161 LINE",
"233 69 OFFCURVE",
"196 41 OFFCURVE",
"178 41 CURVE SMOOTH",
"171 41 OFFCURVE",
"166 45 OFFCURVE",
"166 54 CURVE SMOOTH",
"166 58 OFFCURVE",
"167 70 OFFCURVE",
"171 87 CURVE SMOOTH"
);
},
{
closed = 1;
nodes = (
"118 724 LINE",
"273 724 LINE",
"273 754 LINE",
"118 754 LINE"
);
}
);
width = 312;
}
);
leftKerningGroup = l;
rightKerningGroup = l;
unicode = 006C;
},
{
glyphname = lslash;
lastChange = "2016-08-16 11:12:44 +0000";
layers = (
{
components = (
{
name = l;
}
);
layerId = "426C3F01-D24D-4224-A47E-56DA036E4742";
paths = (
{
closed = 1;
nodes = (
"30 287 LINE",
"338 448 LINE",
"338 488 LINE",
"30 327 LINE"
);
}
);
width = 324;
},
{
components = (
{
name = l;
}
);
layerId = "DD3DBCA6-CF88-4DA3-ACF4-A2FFC969FFEC";
paths = (
{
closed = 1;
nodes = (
"-10 278 LINE",
"331 439 LINE",
"342 489 LINE",
"1 328 LINE"
);
}
);
width = 312;
}
);
unicode = 0142;
},
{
glyphname = m;
lastChange = "2016-08-16 11:12:44 +0000";
layers = (
{
layerId = "426C3F01-D24D-4224-A47E-56DA036E4742";
paths = (
{
closed = 1;
nodes = (
"240 450 LINE",
"133 450 LINE",
"26 0 LINE",
"129 0 LINE"
);
},
{
closed = 1;
nodes = (
"39 425 LINE",
"228 425 LINE",
"228 450 LINE",
"39 450 LINE"
);
},
{
closed = 1;
nodes = (
"449 234 LINE",
"476 339 OFFCURVE",
"546 420 OFFCURVE",
"604 420 CURVE SMOOTH",
"625 420 OFFCURVE",
"641 410 OFFCURVE",
"641 385 CURVE SMOOTH",
"641 377 OFFCURVE",
"639 369 OFFCURVE",
"637 359 CURVE SMOOTH",
"572 87 LINE SMOOTH",
"570 78 OFFCURVE",
"568 67 OFFCURVE",
"568 56 CURVE SMOOTH",
"568 15 OFFCURVE",
"597 -13 OFFCURVE",
"644 -13 CURVE SMOOTH",
"725 -13 OFFCURVE",
"779 69 OFFCURVE",
"818 157 CURVE",
"798 166 LINE",
"756 73 OFFCURVE",
"723 38 OFFCURVE",
"694 38 CURVE SMOOTH",
"680 38 OFFCURVE",
"672 46 OFFCURVE",
"672 63 CURVE SMOOTH",
"672 69 OFFCURVE",
"673 80 OFFCURVE",
"677 97 CURVE SMOOTH",
"737 336 LINE SMOOTH",
"741 353 OFFCURVE",
"743 368 OFFCURVE",
"743 380 CURVE SMOOTH",
"743 437 OFFCURVE",
"701 462 OFFCURVE",
"651 462 CURVE SMOOTH",
"580 462 OFFCURVE",
"522 413 OFFCURVE",
"484 361 CURVE",
"477 361 LINE"
);
},
{
closed = 1;
nodes = (
"186 234 LINE",
"213 339 OFFCURVE",
"283 420 OFFCURVE",
"341 420 CURVE SMOOTH",
"362 420 OFFCURVE",
"378 410 OFFCURVE",
"378 385 CURVE SMOOTH",
"378 377 OFFCURVE",
"376 369 OFFCURVE",
"374 359 CURVE SMOOTH",
"288 0 LINE",
"392 0 LINE",
"474 336 LINE SMOOTH",
"478 353 OFFCURVE",
"480 368 OFFCURVE",
"480 380 CURVE SMOOTH",
"480 438 OFFCURVE",
"437 462 OFFCURVE",
"388 462 CURVE SMOOTH",
"317 462 OFFCURVE",
"259 413 OFFCURVE",
"221 361 CURVE",
"214 361 LINE"
);
}
);
width = 812;
},
{
layerId = "DD3DBCA6-CF88-4DA3-ACF4-A2FFC969FFEC";
paths = (
{
closed = 1;
nodes = (
"275 450 LINE",
"138 450 LINE",
"35 0 LINE",
"168 0 LINE"
);
},
{
closed = 1;
nodes = (
"44 420 LINE",
"263 420 LINE",
"263 450 LINE",
"44 450 LINE"
);
},
{
closed = 1;
nodes = (
"478 229 LINE",
"502 340 OFFCURVE",
"587 416 OFFCURVE",
"620 416 CURVE SMOOTH",
"631 416 OFFCURVE",
"638 408 OFFCURVE",
"638 394 CURVE SMOOTH",
"638 384 OFFCURVE",
"635 365 OFFCURVE",
"633 356 CURVE SMOOTH",
"569 107 LINE SMOOTH",
"567 98 OFFCURVE",
"565 88 OFFCURVE",
"565 75 CURVE SMOOTH",
"565 19 OFFCURVE",
"601 -11 OFFCURVE",
"663 -11 CURVE SMOOTH",
"724 -11 OFFCURVE",
"775 17 OFFCURVE",
"818 126 CURVE",
"793 135 LINE",
"761 63 OFFCURVE",
"735 35 OFFCURVE",
"713 35 CURVE SMOOTH",
"702 35 OFFCURVE",
"697 42 OFFCURVE",
"697 55 CURVE SMOOTH",
"697 61 OFFCURVE",
"698 72 OFFCURVE",
"702 89 CURVE SMOOTH",
"766 338 LINE SMOOTH",
"770 355 OFFCURVE",
"772 370 OFFCURVE",
"772 382 CURVE SMOOTH",
"772 438 OFFCURVE",
"722 462 OFFCURVE",
"672 462 CURVE SMOOTH",
"597 462 OFFCURVE",
"543 408 OFFCURVE",
"507 351 CURVE",
"500 351 LINE"
);
},
{
closed = 1;
nodes = (
"222 246 LINE",
"247 347 OFFCURVE",
"326 416 OFFCURVE",
"363 416 CURVE SMOOTH",
"375 416 OFFCURVE",
"381 408 OFFCURVE",
"381 394 CURVE SMOOTH",
"381 384 OFFCURVE",
"378 365 OFFCURVE",
"376 356 CURVE SMOOTH",
"299 0 LINE",
"435 0 LINE",
"502 339 LINE",
"502 426 OFFCURVE",
"472 462 OFFCURVE",
"410 462 CURVE SMOOTH",
"345 462 OFFCURVE",
"297 422 OFFCURVE",
"261 371 CURVE",
"254 371 LINE"
);
}
);
width = 801;
}
);
unicode = 006D;
},
{
glyphname = n;
lastChange = "2016-08-16 11:12:44 +0000";
layers = (
{
layerId = "426C3F01-D24D-4224-A47E-56DA036E4742";
paths = (
{
closed = 1;
nodes = (
"240 450 LINE",
"133 450 LINE",
"26 0 LINE",
"129 0 LINE"
);
},
{
closed = 1;
nodes = (
"39 425 LINE",
"228 425 LINE",
"228 450 LINE",
"39 450 LINE"
);
},
{
closed = 1;
nodes = (
"187 234 LINE",
"217 342 OFFCURVE",
"292 420 OFFCURVE",
"352 420 CURVE SMOOTH",
"374 420 OFFCURVE",
"389 410 OFFCURVE",
"389 386 CURVE SMOOTH",
"389 377 OFFCURVE",
"387 369 OFFCURVE",
"385 359 CURVE SMOOTH",
"320 87 LINE SMOOTH",
"318 78 OFFCURVE",
"316 67 OFFCURVE",
"316 56 CURVE SMOOTH",
"316 15 OFFCURVE",
"345 -13 OFFCURVE",
"392 -13 CURVE SMOOTH",
"473 -13 OFFCURVE",
"527 69 OFFCURVE",
"566 157 CURVE",
"546 166 LINE",
"504 73 OFFCURVE",
"471 38 OFFCURVE",
"442 38 CURVE SMOOTH",
"428 38 OFFCURVE",
"420 46 OFFCURVE",
"420 63 CURVE SMOOTH",
"420 69 OFFCURVE",
"421 80 OFFCURVE",
"425 97 CURVE SMOOTH",
"485 336 LINE SMOOTH",
"489 353 OFFCURVE",
"491 368 OFFCURVE",
"491 381 CURVE SMOOTH",
"491 438 OFFCURVE",
"449 462 OFFCURVE",
"398 462 CURVE SMOOTH",
"324 462 OFFCURVE",
"262 413 OFFCURVE",
"222 361 CURVE",
"215 361 LINE"
);
}
);
width = 560;
},
{
background = {
paths = (
{
closed = 1;
nodes = (
"271 450 LINE",
"134 450 LINE",
"26 0 LINE",
"159 0 LINE"
);
},
{
closed = 1;
nodes = (
"40 420 LINE",
"259 420 LINE",
"259 450 LINE",
"40 450 LINE"
);
},
{
closed = 1;
nodes = (
"215 229 LINE",
"246 343 OFFCURVE",
"346 416 OFFCURVE",
"382 416 CURVE SMOOTH",
"394 416 OFFCURVE",
"401 408 OFFCURVE",
"401 394 CURVE SMOOTH",
"401 384 OFFCURVE",
"398 365 OFFCURVE",
"396 356 CURVE SMOOTH",
"332 107 LINE SMOOTH",
"330 98 OFFCURVE",
"328 88 OFFCURVE",
"328 75 CURVE SMOOTH",
"328 19 OFFCURVE",
"364 -11 OFFCURVE",
"426 -11 CURVE SMOOTH",
"491 -11 OFFCURVE",
"554 21 OFFCURVE",
"600 146 CURVE",
"575 155 LINE",
"539 69 OFFCURVE",
"501 35 OFFCURVE",
"476 35 CURVE SMOOTH",
"465 35 OFFCURVE",
"460 42 OFFCURVE",
"460 55 CURVE SMOOTH",
"460 61 OFFCURVE",
"461 72 OFFCURVE",
"465 89 CURVE SMOOTH",
"529 338 LINE SMOOTH",
"533 355 OFFCURVE",
"535 370 OFFCURVE",
"535 382 CURVE SMOOTH",
"535 438 OFFCURVE",
"486 462 OFFCURVE",
"433 462 CURVE SMOOTH",
"353 462 OFFCURVE",
"293 408 OFFCURVE",
"253 351 CURVE",
"246 351 LINE"
);
}
);
};
layerId = "DD3DBCA6-CF88-4DA3-ACF4-A2FFC969FFEC";
paths = (
{
closed = 1;
nodes = (
"280 450 LINE",
"143 450 LINE",
"35 0 LINE",
"168 0 LINE"
);
},
{
closed = 1;
nodes = (
"49 420 LINE",
"268 420 LINE",
"268 450 LINE",
"49 450 LINE"
);
},
{
closed = 1;
nodes = (
"224 229 LINE",
"255 343 OFFCURVE",
"355 416 OFFCURVE",
"391 416 CURVE SMOOTH",
"403 416 OFFCURVE",
"410 408 OFFCURVE",
"410 394 CURVE SMOOTH",
"410 384 OFFCURVE",
"407 365 OFFCURVE",
"405 356 CURVE SMOOTH",
"341 107 LINE SMOOTH",
"339 98 OFFCURVE",
"337 88 OFFCURVE",
"337 75 CURVE SMOOTH",
"337 19 OFFCURVE",
"373 -11 OFFCURVE",
"435 -11 CURVE SMOOTH",
"500 -11 OFFCURVE",
"563 21 OFFCURVE",
"609 146 CURVE",
"584 155 LINE",
"548 69 OFFCURVE",
"510 35 OFFCURVE",
"485 35 CURVE SMOOTH",
"474 35 OFFCURVE",
"469 42 OFFCURVE",
"469 55 CURVE SMOOTH",
"469 61 OFFCURVE",
"470 72 OFFCURVE",
"474 89 CURVE SMOOTH",
"538 338 LINE SMOOTH",
"542 355 OFFCURVE",
"544 370 OFFCURVE",
"544 382 CURVE SMOOTH",
"544 438 OFFCURVE",
"495 462 OFFCURVE",
"442 462 CURVE SMOOTH",
"362 462 OFFCURVE",
"302 408 OFFCURVE",
"262 351 CURVE",
"255 351 LINE"
);
}
);
width = 592;
}
);
leftKerningGroup = n;
rightKerningGroup = n;
unicode = 006E;
},
{
glyphname = napostrophe;
lastChange = "2016-08-16 11:12:44 +0000";
layers = (
{
components = (
{
name = n;
},
{
name = apostrophe;
transform = "{1, 0, 0, 1, -62, 3}";
}
);
layerId = "426C3F01-D24D-4224-A47E-56DA036E4742";
width = 560;
},
{
components = (
{
name = n;
}
);
layerId = "DD3DBCA6-CF88-4DA3-ACF4-A2FFC969FFEC";
paths = (
{
closed = 1;
nodes = (
"62 489 LINE",
"168 528 OFFCURVE",
"229 589 OFFCURVE",
"229 662 CURVE SMOOTH",
"229 709 OFFCURVE",
"203 767 OFFCURVE",
"138 767 CURVE SMOOTH",
"94 767 OFFCURVE",
"54 741 OFFCURVE",
"54 693 CURVE SMOOTH",
"54 663 OFFCURVE",
"72 628 OFFCURVE",
"112 628 CURVE SMOOTH",
"154 628 OFFCURVE",
"161 664 OFFCURVE",
"172 664 CURVE SMOOTH",
"177 664 OFFCURVE",
"185 658 OFFCURVE",
"185 642 CURVE SMOOTH",
"185 599 OFFCURVE",
"127 548 OFFCURVE",
"44 517 CURVE"
);
}
);
width = 592;
}
);
rightKerningGroup = n;
unicode = 0149;
},
{
glyphname = eng;
lastChange = "2016-08-16 11:12:44 +0000";
layers = (
{
layerId = "426C3F01-D24D-4224-A47E-56DA036E4742";
paths = (
{
closed = 1;
nodes = (
"39 425 LINE",
"127 425 LINE",
"26 0 LINE",
"129 0 LINE",
"191 252 LINE SMOOTH",
"213 341 OFFCURVE",
"292 418 OFFCURVE",
"352 418 CURVE SMOOTH",
"374 418 OFFCURVE",
"389 408 OFFCURVE",
"389 385 CURVE SMOOTH",
"389 377 OFFCURVE",
"386 369 OFFCURVE",
"385 359 CURVE SMOOTH",
"271 -152 LINE SMOOTH",
"241 -288 OFFCURVE",
"210 -294 OFFCURVE",
"195 -294 CURVE SMOOTH",
"181 -294 OFFCURVE",
"173 -290 OFFCURVE",
"173 -278 CURVE SMOOTH",
"173 -270 OFFCURVE",
"176 -256 OFFCURVE",
"176 -246 CURVE SMOOTH",
"176 -223 OFFCURVE",
"158 -203 OFFCURVE",
"129 -203 CURVE SMOOTH",
"101 -203 OFFCURVE",
"80 -221 OFFCURVE",
"80 -251 CURVE SMOOTH",
"80 -297 OFFCURVE",
"129 -324 OFFCURVE",
"179 -324 CURVE SMOOTH",
"259 -324 OFFCURVE",
"346 -257 OFFCURVE",
"375 -134 CURVE SMOOTH",
"485 336 LINE SMOOTH",
"489 354 OFFCURVE",
"491 368 OFFCURVE",
"491 380 CURVE SMOOTH",
"491 438 OFFCURVE",
"449 462 OFFCURVE",
"398 462 CURVE SMOOTH",
"324 462 OFFCURVE",
"262 413 OFFCURVE",
"222 361 CURVE",
"218 361 LINE",
"240 450 LINE",
"39 450 LINE"
);
}
);
width = 537;
},
{
layerId = "DD3DBCA6-CF88-4DA3-ACF4-A2FFC969FFEC";
paths = (
{
closed = 1;
nodes = (
"280 450 LINE",
"143 450 LINE",
"35 0 LINE",
"168 0 LINE"
);
},
{
closed = 1;
nodes = (
"49 420 LINE",
"268 420 LINE",
"268 450 LINE",
"49 450 LINE"
);
},
{
closed = 1;
nodes = (
"224 229 LINE",
"255 343 OFFCURVE",
"355 416 OFFCURVE",
"391 416 CURVE SMOOTH",
"403 416 OFFCURVE",
"410 408 OFFCURVE",
"410 394 CURVE SMOOTH",
"410 384 OFFCURVE",
"407 365 OFFCURVE",
"405 356 CURVE SMOOTH",
"300 -110 LINE SMOOTH",
"261 -285 OFFCURVE",
"239 -287 OFFCURVE",
"231 -287 CURVE SMOOTH",
"217 -287 OFFCURVE",
"213 -280 OFFCURVE",
"213 -272 CURVE SMOOTH",
"213 -263 OFFCURVE",
"217 -252 OFFCURVE",
"217 -236 CURVE SMOOTH",
"217 -197 OFFCURVE",
"195 -180 OFFCURVE",
"161 -180 CURVE SMOOTH",
"122 -180 OFFCURVE",
"99 -203 OFFCURVE",
"99 -237 CURVE SMOOTH",
"99 -289 OFFCURVE",
"151 -324 OFFCURVE",
"213 -324 CURVE SMOOTH",
"298 -324 OFFCURVE",
"404 -257 OFFCURVE",
"461 -3 CURVE SMOOTH",
"538 338 LINE SMOOTH",
"542 355 OFFCURVE",
"544 370 OFFCURVE",
"544 382 CURVE SMOOTH",
"544 438 OFFCURVE",
"496 462 OFFCURVE",
"442 462 CURVE SMOOTH",
"362 462 OFFCURVE",
"302 408 OFFCURVE",
"262 351 CURVE",
"255 351 LINE"
);
}
);
width = 575;
}
);
leftKerningGroup = n;
unicode = 014B;
},
{
glyphname = o;
lastChange = "2016-08-16 11:12:44 +0000";
layers = (
{
layerId = "426C3F01-D24D-4224-A47E-56DA036E4742";
paths = (
{
closed = 1;
nodes = (
"213 12 LINE SMOOTH",
"160 12 OFFCURVE",
"141 52 OFFCURVE",
"141 127 CURVE SMOOTH",
"141 261 OFFCURVE",
"201 437 OFFCURVE",
"308 437 CURVE SMOOTH",
"365 437 OFFCURVE",
"382 388 OFFCURVE",
"382 317 CURVE SMOOTH",
"382 183 OFFCURVE",
"322 12 OFFCURVE",
"213 12 CURVE SMOOTH"
);
},
{
closed = 1;
nodes = (
"211 -13 LINE SMOOTH",
"359 -13 OFFCURVE",
"496 138 OFFCURVE",
"496 280 CURVE SMOOTH",
"496 384 OFFCURVE",
"422 462 OFFCURVE",
"313 462 CURVE SMOOTH",
"164 462 OFFCURVE",
"28 316 OFFCURVE",
"28 174 CURVE SMOOTH",
"28 70 OFFCURVE",
"101 -13 OFFCURVE",
"211 -13 CURVE SMOOTH"
);
}
);
width = 524;
},
{
layerId = "DD3DBCA6-CF88-4DA3-ACF4-A2FFC969FFEC";
paths = (
{
closed = 1;
nodes = (
"330 427 LINE SMOOTH",
"372 427 OFFCURVE",
"383 396 OFFCURVE",
"383 337 CURVE SMOOTH",
"383 200 OFFCURVE",
"327 22 OFFCURVE",
"225 22 CURVE SMOOTH",
"183 22 OFFCURVE",
"172 53 OFFCURVE",
"172 112 CURVE SMOOTH",
"172 249 OFFCURVE",
"228 427 OFFCURVE",
"330 427 CURVE SMOOTH"
);
},
{
closed = 1;
nodes = (
"222 -13 LINE SMOOTH",
"386 -13 OFFCURVE",
"533 137 OFFCURVE",
"533 280 CURVE SMOOTH",
"533 383 OFFCURVE",
"451 462 OFFCURVE",
"333 462 CURVE SMOOTH",
"169 462 OFFCURVE",
"23 312 OFFCURVE",
"23 169 CURVE SMOOTH",
"23 66 OFFCURVE",
"104 -13 OFFCURVE",
"222 -13 CURVE SMOOTH"
);
}
);
width = 556;
}
);
leftKerningGroup = o;
rightKerningGroup = o;
unicode = 006F;
},
{
glyphname = oslash;
lastChange = "2016-08-16 11:12:44 +0000";
layers = (
{
layerId = "426C3F01-D24D-4224-A47E-56DA036E4742";
paths = (
{
closed = 1;
nodes = (
"34 -53 LINE",
"102 20 LINE",
"132 -1 OFFCURVE",
"169 -13 OFFCURVE",
"212 -13 CURVE SMOOTH",
"360 -13 OFFCURVE",
"497 138 OFFCURVE",
"497 280 CURVE SMOOTH",
"497 326 OFFCURVE",
"482 368 OFFCURVE",
"456 399 CURVE",
"534 483 LINE",
"496 483 LINE",
"436 419 LINE",
"405 446 OFFCURVE",
"363 462 OFFCURVE",
"314 462 CURVE SMOOTH",
"165 462 OFFCURVE",
"28 316 OFFCURVE",
"28 174 CURVE SMOOTH",
"28 120 OFFCURVE",
"47 72 OFFCURVE",
"81 38 CURVE",
"-4 -53 LINE"
);
},
{
closed = 1;
nodes = (
"142 127 LINE SMOOTH",
"142 261 OFFCURVE",
"202 437 OFFCURVE",
"309 437 CURVE SMOOTH",
"354 437 OFFCURVE",
"374 406 OFFCURVE",
"380 359 CURVE",
"142 104 LINE"
);
},
{
closed = 1;
nodes = (
"214 12 LINE SMOOTH",
"177 12 OFFCURVE",
"156 31 OFFCURVE",
"147 69 CURVE",
"383 321 LINE",
"383 317 LINE SMOOTH",
"383 183 OFFCURVE",
"323 12 OFFCURVE",
"214 12 CURVE SMOOTH"
);
}
);
width = 524;
},
{
layerId = "DD3DBCA6-CF88-4DA3-ACF4-A2FFC969FFEC";
paths = (
{
closed = 1;
nodes = (
"23 -53 LINE",
"99 22 LINE",
"132 0 OFFCURVE",
"174 -13 OFFCURVE",
"222 -13 CURVE SMOOTH",
"386 -13 OFFCURVE",
"533 137 OFFCURVE",
"533 280 CURVE SMOOTH",
"533 328 OFFCURVE",
"515 372 OFFCURVE",
"483 404 CURVE",
"563 483 LINE",
"505 483 LINE",
"451 429 LINE",
"419 450 OFFCURVE",
"379 462 OFFCURVE",
"333 462 CURVE SMOOTH",
"169 462 OFFCURVE",
"23 312 OFFCURVE",
"23 169 CURVE SMOOTH",
"23 122 OFFCURVE",
"39 80 OFFCURVE",
"68 49 CURVE",
"-34 -53 LINE"
);
},
{
closed = 1;
nodes = (
"225 22 LINE SMOOTH",
"187 22 OFFCURVE",
"174 47 OFFCURVE",
"172 95 CURVE",
"382 303 LINE",
"374 172 OFFCURVE",
"319 22 OFFCURVE",
"225 22 CURVE SMOOTH"
);
},
{
closed = 1;
nodes = (
"330 427 LINE SMOOTH",
"366 427 OFFCURVE",
"379 404 OFFCURVE",
"382 361 CURVE",
"173 153 LINE",
"183 282 OFFCURVE",
"238 427 OFFCURVE",
"330 427 CURVE SMOOTH"
);
}
);
width = 556;
}
);
unicode = 00F8;
},
{
glyphname = oe;
lastChange = "2016-08-16 11:12:44 +0000";
layers = (
{
layerId = "426C3F01-D24D-4224-A47E-56DA036E4742";
paths = (
{
closed = 1;
nodes = (
"644 462 LINE SMOOTH",
"508 462 OFFCURVE",
"371 327 OFFCURVE",
"371 184 CURVE SMOOTH",
"371 83 OFFCURVE",
"439 -13 OFFCURVE",
"570 -13 CURVE SMOOTH",
"661 -13 OFFCURVE",
"727 34 OFFCURVE",
"775 119 CURVE",
"755 133 LINE",
"703 47 OFFCURVE",
"641 17 OFFCURVE",
"577 17 CURVE SMOOTH",
"512 17 OFFCURVE",
"485 48 OFFCURVE",
"485 136 CURVE SMOOTH",
"485 259 OFFCURVE",
"537 432 OFFCURVE",
"637 432 CURVE SMOOTH",
"673 432 OFFCURVE",
"698 409 OFFCURVE",
"698 352 CURVE SMOOTH",
"698 277 OFFCURVE",
"655 219 OFFCURVE",
"536 219 CURVE SMOOTH",
"509 219 OFFCURVE",
"486 222 OFFCURVE",
"463 229 CURVE",
"458 204 LINE",
"471 201 OFFCURVE",
"531 193 OFFCURVE",
"577 193 CURVE SMOOTH",
"697 193 OFFCURVE",
"786 247 OFFCURVE",
"786 338 CURVE SMOOTH",
"786 412 OFFCURVE",
"727 462 OFFCURVE",
"644 462 CURVE SMOOTH"
);
},
{
closed = 1;
nodes = (
"213 12 LINE SMOOTH",
"160 12 OFFCURVE",
"142 51 OFFCURVE",
"142 122 CURVE SMOOTH",
"142 254 OFFCURVE",
"204 437 OFFCURVE",
"311 437 CURVE SMOOTH",
"366 437 OFFCURVE",
"383 388 OFFCURVE",
"383 314 CURVE SMOOTH",
"383 174 OFFCURVE",
"322 12 OFFCURVE",
"213 12 CURVE SMOOTH"
);
},
{
closed = 1;
nodes = (
"211 -13 LINE SMOOTH",
"360 -13 OFFCURVE",
"497 132 OFFCURVE",
"497 276 CURVE SMOOTH",
"497 382 OFFCURVE",
"423 462 OFFCURVE",
"316 462 CURVE SMOOTH",
"166 462 OFFCURVE",
"28 307 OFFCURVE",
"28 168 CURVE SMOOTH",
"28 66 OFFCURVE",
"102 -13 OFFCURVE",
"211 -13 CURVE SMOOTH"
);
}
);
width = 798;
},
{
layerId = "DD3DBCA6-CF88-4DA3-ACF4-A2FFC969FFEC";
paths = (
{
closed = 1;
nodes = (
"656 462 LINE SMOOTH",
"509 462 OFFCURVE",
"367 319 OFFCURVE",
"367 177 CURVE SMOOTH",
"367 79 OFFCURVE",
"435 -11 OFFCURVE",
"562 -11 CURVE SMOOTH",
"660 -11 OFFCURVE",
"746 42 OFFCURVE",
"799 129 CURVE",
"774 148 LINE",
"712 57 OFFCURVE",
"640 29 OFFCURVE",
"575 29 CURVE SMOOTH",
"530 29 OFFCURVE",
"502 43 OFFCURVE",
"502 83 CURVE SMOOTH",
"502 90 OFFCURVE",
"503 99 OFFCURVE",
"504 105 CURVE SMOOTH",
"545 384 OFFCURVE",
"602 432 OFFCURVE",
"645 432 CURVE SMOOTH",
"682 432 OFFCURVE",
"702 398 OFFCURVE",
"702 352 CURVE SMOOTH",
"702 285 OFFCURVE",
"659 232 OFFCURVE",
"565 232 CURVE SMOOTH",
"513 232 OFFCURVE",
"490 232 OFFCURVE",
"467 242 CURVE",
"462 207 LINE",
"473 204 OFFCURVE",
"546 196 OFFCURVE",
"596 196 CURVE SMOOTH",
"740 196 OFFCURVE",
"815 261 OFFCURVE",
"815 337 CURVE SMOOTH",
"815 409 OFFCURVE",
"746 462 OFFCURVE",
"656 462 CURVE SMOOTH"
);
},
{
closed = 1;
nodes = (
"330 427 LINE SMOOTH",
"367 427 OFFCURVE",
"382 403 OFFCURVE",
"382 332 CURVE SMOOTH",
"382 195 OFFCURVE",
"326 22 OFFCURVE",
"226 22 CURVE SMOOTH",
"184 22 OFFCURVE",
"173 53 OFFCURVE",
"173 112 CURVE SMOOTH",
"173 249 OFFCURVE",
"231 427 OFFCURVE",
"330 427 CURVE SMOOTH"
);
},
{
closed = 1;
nodes = (
"223 -13 LINE SMOOTH",
"385 -13 OFFCURVE",
"532 133 OFFCURVE",
"532 274 CURVE SMOOTH",
"532 379 OFFCURVE",
"451 462 OFFCURVE",
"332 462 CURVE SMOOTH",
"173 462 OFFCURVE",
"23 312 OFFCURVE",
"23 170 CURVE SMOOTH",
"23 65 OFFCURVE",
"105 -13 OFFCURVE",
"223 -13 CURVE SMOOTH"
);
}
);
width = 836;
}
);
leftKerningGroup = o;
rightKerningGroup = e;
unicode = 0153;
},
{
glyphname = p;
lastChange = "2016-08-16 11:12:44 +0000";
layers = (
{
layerId = "426C3F01-D24D-4224-A47E-56DA036E4742";
paths = (
{
closed = 1;
nodes = (
"243 450 LINE",
"136 450 LINE",
"-32 -314 LINE",
"71 -314 LINE"
);
},
{
closed = 1;
nodes = (
"42 425 LINE",
"231 425 LINE",
"231 450 LINE",
"42 450 LINE"
);
},
{
closed = 1;
nodes = (
"-112 -314 LINE",
"171 -314 LINE",
"171 -289 LINE",
"-112 -289 LINE"
);
},
{
closed = 1;
nodes = (
"159 50 LINE",
"177 11 OFFCURVE",
"210 -13 OFFCURVE",
"262 -13 CURVE SMOOTH",
"388 -13 OFFCURVE",
"527 127 OFFCURVE",
"527 282 CURVE SMOOTH",
"527 395 OFFCURVE",
"452 462 OFFCURVE",
"368 462 CURVE SMOOTH",
"309 462 OFFCURVE",
"261 429 OFFCURVE",
"232 386 CURVE",
"225 386 LINE",
"208 298 LINE",
"250 394 OFFCURVE",
"305 430 OFFCURVE",
"352 430 CURVE SMOOTH",
"390 430 OFFCURVE",
"413 407 OFFCURVE",
"413 341 CURVE SMOOTH",
"413 241 OFFCURVE",
"360 16 OFFCURVE",
"249 16 CURVE SMOOTH",
"204 16 OFFCURVE",
"170 54 OFFCURVE",
"170 106 CURVE SMOOTH",
"170 116 OFFCURVE",
"170 125 OFFCURVE",
"172 138 CURVE",
"152 50 LINE"
);
}
);
width = 575;
},
{
layerId = "DD3DBCA6-CF88-4DA3-ACF4-A2FFC969FFEC";
paths = (
{
closed = 1;
nodes = (
"177 62 LINE",
"197 17 OFFCURVE",
"232 -11 OFFCURVE",
"296 -11 CURVE SMOOTH",
"441 -11 OFFCURVE",
"564 130 OFFCURVE",
"564 277 CURVE SMOOTH",
"564 394 OFFCURVE",
"487 462 OFFCURVE",
"400 462 CURVE SMOOTH",
"332 462 OFFCURVE",
"279 420 OFFCURVE",
"254 383 CURVE",
"247 383 LINE",
"215 245 LINE",
"249 375 OFFCURVE",
"333 421 OFFCURVE",
"380 421 CURVE SMOOTH",
"409 421 OFFCURVE",
"422 402 OFFCURVE",
"422 349 CURVE SMOOTH",
"422 253 OFFCURVE",
"380 28 OFFCURVE",
"274 28 CURVE SMOOTH",
"226 28 OFFCURVE",
"194 74 OFFCURVE",
"194 128 CURVE SMOOTH",
"194 137 OFFCURVE",
"195 150 OFFCURVE",
"197 163 CURVE",
"170 62 LINE"
);
},
{
closed = 1;
nodes = (
"269 450 LINE",
"132 450 LINE",
"-42 -282 LINE",
"91 -282 LINE"
);
},
{
closed = 1;
nodes = (
"38 420 LINE",
"257 420 LINE",
"257 450 LINE",
"38 450 LINE"
);
},
{
closed = 1;
nodes = (
"-115 -309 LINE",
"189 -309 LINE",
"189 -279 LINE",
"-115 -279 LINE"
);
}
);
width = 598;
}
);
unicode = 0070;
},
{
glyphname = thorn;
lastChange = "2016-08-16 11:12:44 +0000";
layers = (
{
layerId = "426C3F01-D24D-4224-A47E-56DA036E4742";
paths = (
{
closed = 1;
nodes = (
"114 729 LINE",
"309 729 LINE",
"309 754 LINE",
"114 754 LINE"
);
},
{
closed = 1;
nodes = (
"140 440 LINE",
"77 163 OFFCURVE",
"75 147 OFFCURVE",
"75 131 CURVE SMOOTH",
"75 49 OFFCURVE",
"129 -13 OFFCURVE",
"225 -13 CURVE SMOOTH",
"373 -13 OFFCURVE",
"507 124 OFFCURVE",
"507 278 CURVE SMOOTH",
"507 394 OFFCURVE",
"436 462 OFFCURVE",
"354 462 CURVE SMOOTH",
"307 462 OFFCURVE",
"266 441 OFFCURVE",
"241 414 CURVE",
"234 414 LINE",
"213 326 LINE",
"249 397 OFFCURVE",
"291 430 OFFCURVE",
"341 430 CURVE SMOOTH",
"390 430 OFFCURVE",
"400 394 OFFCURVE",
"400 333 CURVE SMOOTH",
"400 169 OFFCURVE",
"316 16 OFFCURVE",
"236 16 CURVE SMOOTH",
"194 16 OFFCURVE",
"167 57 OFFCURVE",
"167 93 CURVE SMOOTH",
"167 105 OFFCURVE",
"170 124 OFFCURVE",
"173 138 CURVE SMOOTH",
"321 754 LINE",
"214 754 LINE"
);
},
{
closed = 1;
nodes = (
"243 440 LINE",
"140 440 LINE",
"-32 -314 LINE",
"71 -314 LINE"
);
},
{
closed = 1;
nodes = (
"-112 -314 LINE",
"171 -314 LINE",
"171 -289 LINE",
"-112 -289 LINE"
);
}
);
width = 575;
},
{
layerId = "DD3DBCA6-CF88-4DA3-ACF4-A2FFC969FFEC";
paths = (
{
closed = 1;
nodes = (
"105 724 LINE",
"320 724 LINE",
"320 754 LINE",
"105 754 LINE"
);
},
{
closed = 1;
nodes = (
"74 204 LINE SMOOTH",
"67 173 OFFCURVE",
"66 146 OFFCURVE",
"66 135 CURVE SMOOTH",
"66 48 OFFCURVE",
"129 -13 OFFCURVE",
"233 -13 CURVE SMOOTH",
"396 -13 OFFCURVE",
"536 129 OFFCURVE",
"536 287 CURVE SMOOTH",
"536 408 OFFCURVE",
"449 462 OFFCURVE",
"377 462 CURVE SMOOTH",
"324 462 OFFCURVE",
"278 431 OFFCURVE",
"253 390 CURVE",
"246 390 LINE",
"222 292 LINE",
"257 380 OFFCURVE",
"311 425 OFFCURVE",
"355 425 CURVE SMOOTH",
"383 425 OFFCURVE",
"391 407 OFFCURVE",
"391 352 CURVE SMOOTH",
"391 197 OFFCURVE",
"326 26 OFFCURVE",
"240 26 CURVE SMOOTH",
"210 26 OFFCURVE",
"187 46 OFFCURVE",
"187 93 CURVE SMOOTH",
"187 110 OFFCURVE",
"190 134 OFFCURVE",
"193 148 CURVE SMOOTH",
"332 754 LINE",
"205 754 LINE"
);
},
{
closed = 1;
nodes = (
"193 148 LINE",
"74 203 LINE",
"-41 -282 LINE",
"92 -282 LINE"
);
},
{
closed = 1;
nodes = (
"-114 -309 LINE",
"190 -309 LINE",
"190 -279 LINE",
"-114 -279 LINE"
);
}
);
width = 569;
}
);
unicode = 00FE;
},
{
glyphname = q;
lastChange = "2016-08-16 11:12:44 +0000";
layers = (
{
layerId = "426C3F01-D24D-4224-A47E-56DA036E4742";
paths = (
{
closed = 1;
nodes = (
"536 450 LINE",
"429 450 LINE",
"251 -314 LINE",
"354 -314 LINE"
);
},
{
closed = 1;
nodes = (
"171 -314 LINE",
"438 -314 LINE",
"438 -289 LINE",
"171 -289 LINE"
);
},
{
closed = 1;
nodes = (
"409 391 LINE",
"391 433 OFFCURVE",
"361 462 OFFCURVE",
"305 462 CURVE SMOOTH",
"184 462 OFFCURVE",
"43 327 OFFCURVE",
"43 172 CURVE SMOOTH",
"43 57 OFFCURVE",
"120 -13 OFFCURVE",
"209 -13 CURVE SMOOTH",
"273 -13 OFFCURVE",
"319 23 OFFCURVE",
"345 70 CURVE",
"352 70 LINE",
"364 170 LINE",
"319 40 OFFCURVE",
"265 19 OFFCURVE",
"229 19 CURVE SMOOTH",
"185 19 OFFCURVE",
"157 50 OFFCURVE",
"157 118 CURVE SMOOTH",
"157 216 OFFCURVE",
"215 433 OFFCURVE",
"315 433 CURVE SMOOTH",
"359 433 OFFCURVE",
"396 391 OFFCURVE",
"396 335 CURVE SMOOTH",
"396 325 OFFCURVE",
"396 313 OFFCURVE",
"394 300 CURVE",
"416 391 LINE"
);
}
);
width = 540;
},
{
layerId = "DD3DBCA6-CF88-4DA3-ACF4-A2FFC969FFEC";
paths = (
{
closed = 1;
nodes = (
"418 391 LINE",
"395 439 OFFCURVE",
"365 462 OFFCURVE",
"312 462 CURVE SMOOTH",
"181 462 OFFCURVE",
"35 320 OFFCURVE",
"35 166 CURVE SMOOTH",
"35 54 OFFCURVE",
"113 -11 OFFCURVE",
"198 -11 CURVE SMOOTH",
"267 -11 OFFCURVE",
"314 32 OFFCURVE",
"340 70 CURVE",
"347 70 LINE",
"379 208 LINE",
"345 76 OFFCURVE",
"266 30 OFFCURVE",
"219 30 CURVE SMOOTH",
"189 30 OFFCURVE",
"177 48 OFFCURVE",
"177 108 CURVE SMOOTH",
"177 257 OFFCURVE",
"252 423 OFFCURVE",
"331 423 CURVE SMOOTH",
"369 423 OFFCURVE",
"405 385 OFFCURVE",
"405 336 CURVE SMOOTH",
"405 324 OFFCURVE",
"403 315 OFFCURVE",
"402 300 CURVE",
"425 391 LINE"
);
},
{
closed = 1;
nodes = (
"573 450 LINE",
"436 450 LINE",
"262 -282 LINE",
"395 -282 LINE"
);
},
{
closed = 1;
nodes = (
"176 -309 LINE",
"479 -309 LINE",
"479 -279 LINE",
"176 -279 LINE"
);
}
);
width = 568;
}
);
unicode = 0071;
},
{
glyphname = r;
lastChange = "2016-08-16 11:12:44 +0000";
layers = (
{
layerId = "426C3F01-D24D-4224-A47E-56DA036E4742";
paths = (
{
closed = 1;
nodes = (
"266 450 LINE",
"159 450 LINE",
"52 0 LINE",
"155 0 LINE"
);
},
{
closed = 1;
nodes = (
"65 425 LINE",
"254 425 LINE",
"254 450 LINE",
"65 450 LINE"
);
},
{
closed = 1;
nodes = (
"384 462 LINE SMOOTH",
"335 462 OFFCURVE",
"284 415 OFFCURVE",
"248 358 CURVE",
"241 358 LINE",
"203 195 LINE",
"225 301 OFFCURVE",
"295 395 OFFCURVE",
"326 395 CURVE SMOOTH",
"346 395 OFFCURVE",
"342 353 OFFCURVE",
"388 353 CURVE SMOOTH",
"425 353 OFFCURVE",
"441 380 OFFCURVE",
"441 407 CURVE SMOOTH",
"441 438 OFFCURVE",
"419 462 OFFCURVE",
"384 462 CURVE SMOOTH"
);
}
);
width = 425;
},
{
layerId = "DD3DBCA6-CF88-4DA3-ACF4-A2FFC969FFEC";
paths = (
{
closed = 1;
nodes = (
"287 450 LINE",
"150 450 LINE",
"42 0 LINE",
"175 0 LINE"
);
},
{
closed = 1;
nodes = (
"56 420 LINE",
"275 420 LINE",
"275 450 LINE",
"56 450 LINE"
);
},
{
closed = 1;
nodes = (
"217 174 LINE",
"234 244 OFFCURVE",
"289 367 OFFCURVE",
"326 367 CURVE SMOOTH",
"348 367 OFFCURVE",
"364 326 OFFCURVE",
"407 326 CURVE SMOOTH",
"447 326 OFFCURVE",
"471 362 OFFCURVE",
"471 392 CURVE SMOOTH",
"471 420 OFFCURVE",
"450 462 OFFCURVE",
"399 462 CURVE SMOOTH",
"355 462 OFFCURVE",
"321 432 OFFCURVE",
"272 367 CURVE",
"264 367 LINE"
);
}
);
width = 437;
}
);
leftKerningGroup = r;
rightKerningGroup = r;
unicode = 0072;
},
{
glyphname = s;
lastChange = "2016-08-16 11:12:44 +0000";
layers = (
{
layerId = "426C3F01-D24D-4224-A47E-56DA036E4742";
paths = (
{
closed = 1;
nodes = (
"235 454 LINE SMOOTH",
"130 454 OFFCURVE",
"70 390 OFFCURVE",
"70 317 CURVE SMOOTH",
"70 186 OFFCURVE",
"257 190 OFFCURVE",
"257 95 CURVE SMOOTH",
"257 52 OFFCURVE",
"218 17 OFFCURVE",
"137 17 CURVE SMOOTH",
"86 17 OFFCURVE",
"64 31 OFFCURVE",
"64 48 CURVE SMOOTH",
"64 64 OFFCURVE",
"82 78 OFFCURVE",
"82 102 CURVE SMOOTH",
"82 122 OFFCURVE",
"69 135 OFFCURVE",
"45 135 CURVE SMOOTH",
"16 135 OFFCURVE",
"-4 116 OFFCURVE",
"-4 83 CURVE SMOOTH",
"-4 32 OFFCURVE",
"46 -13 OFFCURVE",
"135 -13 CURVE SMOOTH",
"241 -13 OFFCURVE",
"328 52 OFFCURVE",
"328 144 CURVE SMOOTH",
"328 281 OFFCURVE",
"143 277 OFFCURVE",
"143 367 CURVE SMOOTH",
"143 407 OFFCURVE",
"180 427 OFFCURVE",
"230 427 CURVE SMOOTH",
"266 427 OFFCURVE",
"289 417 OFFCURVE",
"289 398 CURVE SMOOTH",
"289 382 OFFCURVE",
"273 374 OFFCURVE",
"273 354 CURVE SMOOTH",
"273 335 OFFCURVE",
"286 324 OFFCURVE",
"306 324 CURVE SMOOTH",
"333 324 OFFCURVE",
"352 344 OFFCURVE",
"352 375 CURVE SMOOTH",
"352 420 OFFCURVE",
"311 454 OFFCURVE",
"235 454 CURVE SMOOTH"
);
}
);
width = 375;
},
{
layerId = "DD3DBCA6-CF88-4DA3-ACF4-A2FFC969FFEC";
paths = (
{
closed = 1;
nodes = (
"242 462 LINE SMOOTH",
"141 462 OFFCURVE",
"68 396 OFFCURVE",
"68 315 CURVE SMOOTH",
"68 182 OFFCURVE",
"262 150 OFFCURVE",
"262 75 CURVE SMOOTH",
"262 48 OFFCURVE",
"236 23 OFFCURVE",
"172 23 CURVE SMOOTH",
"125 23 OFFCURVE",
"110 36 OFFCURVE",
"110 50 CURVE SMOOTH",
"110 64 OFFCURVE",
"125 73 OFFCURVE",
"125 96 CURVE SMOOTH",
"125 123 OFFCURVE",
"105 151 OFFCURVE",
"64 151 CURVE SMOOTH",
"30 151 OFFCURVE",
"0 131 OFFCURVE",
"0 90 CURVE SMOOTH",
"0 32 OFFCURVE",
"61 -11 OFFCURVE",
"157 -11 CURVE SMOOTH",
"272 -11 OFFCURVE",
"356 51 OFFCURVE",
"356 146 CURVE SMOOTH",
"356 292 OFFCURVE",
"159 321 OFFCURVE",
"159 388 CURVE SMOOTH",
"159 418 OFFCURVE",
"197 432 OFFCURVE",
"231 432 CURVE SMOOTH",
"253 432 OFFCURVE",
"276 426 OFFCURVE",
"276 408 CURVE SMOOTH",
"276 398 OFFCURVE",
"270 385 OFFCURVE",
"270 371 CURVE SMOOTH",
"270 346 OFFCURVE",
"290 322 OFFCURVE",
"326 322 CURVE SMOOTH",
"362 322 OFFCURVE",
"380 346 OFFCURVE",
"380 374 CURVE SMOOTH",
"380 425 OFFCURVE",
"317 462 OFFCURVE",
"242 462 CURVE SMOOTH"
);
}
);
width = 412;
}
);
leftKerningGroup = s;
rightKerningGroup = s;
unicode = 0073;
},
{
glyphname = germandbls;
lastChange = "2016-08-16 11:12:44 +0000";
layers = (
{
layerId = "426C3F01-D24D-4224-A47E-56DA036E4742";
paths = (
{
closed = 1;
nodes = (
"261 615 LINE SMOOTH",
"278 694 OFFCURVE",
"314 736 OFFCURVE",
"373 736 CURVE SMOOTH",
"416 736 OFFCURVE",
"436 714 OFFCURVE",
"436 663 CURVE SMOOTH",
"436 600 OFFCURVE",
"405 448 OFFCURVE",
"310 448 CURVE SMOOTH",
"272 448 LINE",
"267 422 LINE",
"304 422 LINE SMOOTH",
"364 422 OFFCURVE",
"386 393 OFFCURVE",
"386 319 CURVE SMOOTH",
"386 202 OFFCURVE",
"332 19 OFFCURVE",
"267 19 CURVE SMOOTH",
"256 19 OFFCURVE",
"246 24 OFFCURVE",
"246 32 CURVE SMOOTH",
"246 46 OFFCURVE",
"275 54 OFFCURVE",
"275 84 CURVE SMOOTH",
"275 107 OFFCURVE",
"257 120 OFFCURVE",
"232 120 CURVE SMOOTH",
"198 120 OFFCURVE",
"180 95 OFFCURVE",
"180 63 CURVE SMOOTH",
"180 19 OFFCURVE",
"213 -6 OFFCURVE",
"268 -6 CURVE SMOOTH",
"409 -6 OFFCURVE",
"506 157 OFFCURVE",
"506 274 CURVE SMOOTH",
"506 367 OFFCURVE",
"444 428 OFFCURVE",
"366 435 CURVE",
"366 439 LINE",
"462 464 OFFCURVE",
"541 530 OFFCURVE",
"541 619 CURVE SMOOTH",
"541 697 OFFCURVE",
"480 763 OFFCURVE",
"378 763 CURVE SMOOTH",
"268 763 OFFCURVE",
"166 687 OFFCURVE",
"137 550 CURVE SMOOTH",
"-10 -140 LINE SMOOTH",
"-36 -260 OFFCURVE",
"-66 -294 OFFCURVE",
"-108 -294 CURVE SMOOTH",
"-128 -294 OFFCURVE",
"-132 -287 OFFCURVE",
"-132 -276 CURVE SMOOTH",
"-132 -267 OFFCURVE",
"-129 -256 OFFCURVE",
"-129 -247 CURVE SMOOTH",
"-129 -223 OFFCURVE",
"-148 -203 OFFCURVE",
"-176 -203 CURVE SMOOTH",
"-204 -203 OFFCURVE",
"-225 -223 OFFCURVE",
"-225 -252 CURVE SMOOTH",
"-225 -288 OFFCURVE",
"-193 -324 OFFCURVE",
"-107 -324 CURVE SMOOTH",
"-43 -324 OFFCURVE",
"66 -304 OFFCURVE",
"130 -1 CURVE SMOOTH"
);
}
);
width = 557;
},
{
layerId = "DD3DBCA6-CF88-4DA3-ACF4-A2FFC969FFEC";
paths = (
{
closed = 1;
nodes = (
"11 33 LINE SMOOTH",
"-53 -268 OFFCURVE",
"-69 -289 OFFCURVE",
"-102 -289 CURVE SMOOTH",
"-117 -289 OFFCURVE",
"-125 -285 OFFCURVE",
"-125 -272 CURVE SMOOTH",
"-125 -256 OFFCURVE",
"-112 -245 OFFCURVE",
"-112 -224 CURVE SMOOTH",
"-112 -198 OFFCURVE",
"-132 -172 OFFCURVE",
"-172 -172 CURVE SMOOTH",
"-213 -172 OFFCURVE",
"-234 -199 OFFCURVE",
"-234 -236 CURVE SMOOTH",
"-234 -279 OFFCURVE",
"-205 -324 OFFCURVE",
"-131 -324 CURVE SMOOTH",
"2 -324 OFFCURVE",
"126 -176 OFFCURVE",
"200 175 CURVE SMOOTH",
"293 615 LINE SMOOTH",
"309 693 OFFCURVE",
"347 731 OFFCURVE",
"403 731 CURVE SMOOTH",
"441 731 OFFCURVE",
"467 713 OFFCURVE",
"467 656 CURVE SMOOTH",
"467 594 OFFCURVE",
"437 450 OFFCURVE",
"343 450 CURVE SMOOTH",
"305 450 LINE",
"298 418 LINE",
"335 418 LINE SMOOTH",
"388 418 OFFCURVE",
"417 383 OFFCURVE",
"417 309 CURVE SMOOTH",
"417 210 OFFCURVE",
"366 24 OFFCURVE",
"295 24 CURVE SMOOTH",
"285 24 OFFCURVE",
"280 28 OFFCURVE",
"280 38 CURVE SMOOTH",
"280 63 OFFCURVE",
"315 69 OFFCURVE",
"315 101 CURVE SMOOTH",
"315 125 OFFCURVE",
"296 135 OFFCURVE",
"274 135 CURVE SMOOTH",
"235 135 OFFCURVE",
"213 104 OFFCURVE",
"213 68 CURVE SMOOTH",
"213 28 OFFCURVE",
"239 -6 OFFCURVE",
"313 -6 CURVE SMOOTH",
"468 -6 OFFCURVE",
"565 143 OFFCURVE",
"565 263 CURVE SMOOTH",
"565 354 OFFCURVE",
"508 428 OFFCURVE",
"424 435 CURVE",
"424 439 LINE",
"522 465 OFFCURVE",
"598 532 OFFCURVE",
"598 622 CURVE SMOOTH",
"598 712 OFFCURVE",
"521 763 OFFCURVE",
"406 763 CURVE SMOOTH",
"266 763 OFFCURVE",
"150 687 OFFCURVE",
"121 550 CURVE SMOOTH"
);
}
);
width = 589;
}
);
unicode = 00DF;
},
{
glyphname = schwa;
lastChange = "2016-08-16 11:12:44 +0000";
layers = (
{
layerId = "426C3F01-D24D-4224-A47E-56DA036E4742";
paths = (
{
closed = 1;
nodes = (
"178 -13 LINE",
"318 -13 OFFCURVE",
"456 120 OFFCURVE",
"456 261 CURVE SMOOTH",
"456 361 OFFCURVE",
"387 462 OFFCURVE",
"254 462 CURVE SMOOTH",
"164 462 OFFCURVE",
"98 415 OFFCURVE",
"50 330 CURVE",
"70 316 LINE",
"122 402 OFFCURVE",
"184 432 OFFCURVE",
"242 432 CURVE SMOOTH",
"305 432 OFFCURVE",
"336 396 OFFCURVE",
"336 302 CURVE SMOOTH",
"336 182 OFFCURVE",
"285 17 OFFCURVE",
"185 17 CURVE SMOOTH",
"148 17 OFFCURVE",
"123 39 OFFCURVE",
"123 92 CURVE SMOOTH",
"123 162 OFFCURVE",
"166 222 OFFCURVE",
"285 222 CURVE SMOOTH",
"312 222 OFFCURVE",
"335 219 OFFCURVE",
"358 212 CURVE",
"363 237 LINE",
"350 240 OFFCURVE",
"290 248 OFFCURVE",
"244 248 CURVE SMOOTH",
"124 248 OFFCURVE",
"35 192 OFFCURVE",
"35 106 CURVE SMOOTH",
"35 36 OFFCURVE",
"94 -13 OFFCURVE",
"178 -13 CURVE"
);
}
);
width = 486;
},
{
layerId = "DD3DBCA6-CF88-4DA3-ACF4-A2FFC969FFEC";
paths = (
{
closed = 1;
nodes = (
"206 -11 LINE SMOOTH",
"361 -11 OFFCURVE",
"501 129 OFFCURVE",
"501 267 CURVE SMOOTH",
"501 367 OFFCURVE",
"432 462 OFFCURVE",
"303 462 CURVE SMOOTH",
"202 462 OFFCURVE",
"117 409 OFFCURVE",
"64 322 CURVE",
"89 303 LINE",
"151 394 OFFCURVE",
"223 422 OFFCURVE",
"288 422 CURVE SMOOTH",
"330 422 OFFCURVE",
"358 405 OFFCURVE",
"358 360 CURVE SMOOTH",
"358 353 OFFCURVE",
"357 344 OFFCURVE",
"356 338 CURVE SMOOTH",
"312 69 OFFCURVE",
"271 19 OFFCURVE",
"219 19 CURVE SMOOTH",
"178 19 OFFCURVE",
"158 49 OFFCURVE",
"158 93 CURVE SMOOTH",
"158 157 OFFCURVE",
"201 211 OFFCURVE",
"295 211 CURVE SMOOTH",
"347 211 OFFCURVE",
"370 211 OFFCURVE",
"393 201 CURVE",
"398 236 LINE",
"387 239 OFFCURVE",
"314 247 OFFCURVE",
"264 247 CURVE SMOOTH",
"120 247 OFFCURVE",
"45 181 OFFCURVE",
"45 108 CURVE SMOOTH",
"45 38 OFFCURVE",
"115 -11 OFFCURVE",
"206 -11 CURVE SMOOTH"
);
}
);
width = 506;
}
);
unicode = 0259;
},
{
glyphname = t;
lastChange = "2016-08-16 11:12:44 +0000";
layers = (
{
layerId = "426C3F01-D24D-4224-A47E-56DA036E4742";
paths = (
{
closed = 1;
nodes = (
"275 563 LINE",
"168 563 LINE",
"53 87 LINE SMOOTH",
"51 78 OFFCURVE",
"49 67 OFFCURVE",
"49 56 CURVE SMOOTH",
"49 15 OFFCURVE",
"77 -13 OFFCURVE",
"126 -13 CURVE SMOOTH",
"212 -13 OFFCURVE",
"270 73 OFFCURVE",
"309 157 CURVE",
"289 166 LINE",
"243 73 OFFCURVE",
"207 38 OFFCURVE",
"175 38 CURVE SMOOTH",
"161 38 OFFCURVE",
"153 45 OFFCURVE",
"153 63 CURVE SMOOTH",
"153 69 OFFCURVE",
"154 80 OFFCURVE",
"158 97 CURVE SMOOTH"
);
},
{
closed = 1;
nodes = (
"69 425 LINE",
"336 425 LINE",
"336 450 LINE",
"69 450 LINE"
);
}
);
width = 328;
},
{
layerId = "DD3DBCA6-CF88-4DA3-ACF4-A2FFC969FFEC";
paths = (
{
closed = 1;
nodes = (
"293 574 LINE",
"159 574 LINE",
"59 132 LINE SMOOTH",
"55 114 OFFCURVE",
"50 84 OFFCURVE",
"50 66 CURVE SMOOTH",
"50 26 OFFCURVE",
"75 -11 OFFCURVE",
"140 -11 CURVE SMOOTH",
"216 -11 OFFCURVE",
"293 40 OFFCURVE",
"332 142 CURVE",
"307 151 LINE",
"266 64 OFFCURVE",
"221 36 OFFCURVE",
"196 36 CURVE SMOOTH",
"183 36 OFFCURVE",
"176 43 OFFCURVE",
"176 55 CURVE SMOOTH",
"176 59 OFFCURVE",
"177 70 OFFCURVE",
"181 87 CURVE SMOOTH"
);
},
{
closed = 1;
nodes = (
"64 420 LINE",
"360 420 LINE",
"360 450 LINE",
"64 450 LINE"
);
}
);
width = 348;
}
);
leftKerningGroup = t;
rightKerningGroup = t;
unicode = 0074;
},
{
glyphname = tbar;
lastChange = "2016-08-16 11:12:44 +0000";
layers = (
{
components = (
{
name = t;
}
);
layerId = "426C3F01-D24D-4224-A47E-56DA036E4742";
paths = (
{
closed = 1;
nodes = (
"19 277 LINE",
"312 277 LINE",
"312 312 LINE",
"19 312 LINE"
);
}
);
width = 328;
},
{
components = (
{
name = t;
}
);
layerId = "DD3DBCA6-CF88-4DA3-ACF4-A2FFC969FFEC";
paths = (
{
closed = 1;
nodes = (
"39 277 LINE",
"332 277 LINE",
"332 312 LINE",
"39 312 LINE"
);
}
);
width = 348;
}
);
unicode = 0167;
},
{
glyphname = u;
lastChange = "2016-08-16 11:12:44 +0000";
layers = (
{
layerId = "426C3F01-D24D-4224-A47E-56DA036E4742";
paths = (
{
closed = 1;
nodes = (
"514 450 LINE",
"412 450 LINE",
"341 154 LINE SMOOTH",
"334 125 OFFCURVE",
"331 101 OFFCURVE",
"331 82 CURVE SMOOTH",
"331 9 OFFCURVE",
"373 -12 OFFCURVE",
"412 -12 CURVE SMOOTH",
"477 -12 OFFCURVE",
"523 45 OFFCURVE",
"564 142 CURVE",
"544 151 LINE",
"507 73 OFFCURVE",
"472 30 OFFCURVE",
"444 30 CURVE SMOOTH",
"430 30 OFFCURVE",
"424 41 OFFCURVE",
"424 60 CURVE SMOOTH",
"424 77 OFFCURVE",
"429 106 OFFCURVE",
"439 147 CURVE SMOOTH"
);
},
{
closed = 1;
nodes = (
"356 216 LINE",
"327 113 OFFCURVE",
"257 32 OFFCURVE",
"195 32 CURVE SMOOTH",
"174 32 OFFCURVE",
"158 42 OFFCURVE",
"158 65 CURVE SMOOTH",
"158 73 OFFCURVE",
"160 81 OFFCURVE",
"162 91 CURVE SMOOTH",
"248 450 LINE",
"144 450 LINE",
"62 114 LINE SMOOTH",
"58 97 OFFCURVE",
"56 82 OFFCURVE",
"56 70 CURVE SMOOTH",
"56 12 OFFCURVE",
"99 -12 OFFCURVE",
"150 -12 CURVE SMOOTH",
"226 -12 OFFCURVE",
"285 41 OFFCURVE",
"327 96 CURVE",
"334 96 LINE"
);
},
{
closed = 1;
nodes = (
"65 425 LINE",
"224 425 LINE",
"224 450 LINE",
"65 450 LINE"
);
}
);
width = 571;
},
{
layerId = "DD3DBCA6-CF88-4DA3-ACF4-A2FFC969FFEC";
paths = (
{
closed = 1;
nodes = (
"41 420 LINE",
"215 420 LINE",
"215 450 LINE",
"41 450 LINE"
);
},
{
closed = 1;
nodes = (
"559 450 LINE",
"425 450 LINE",
"351 153 LINE SMOOTH",
"338 100 OFFCURVE",
"335 86 OFFCURVE",
"335 70 CURVE SMOOTH",
"335 15 OFFCURVE",
"370 -11 OFFCURVE",
"422 -11 CURVE SMOOTH",
"513 -11 OFFCURVE",
"576 69 OFFCURVE",
"602 152 CURVE",
"577 161 LINE",
"540 69 OFFCURVE",
"499 41 OFFCURVE",
"479 41 CURVE SMOOTH",
"472 41 OFFCURVE",
"467 45 OFFCURVE",
"467 54 CURVE SMOOTH",
"467 58 OFFCURVE",
"468 70 OFFCURVE",
"472 87 CURVE SMOOTH"
);
},
{
closed = 1;
nodes = (
"370 220 LINE",
"339 108 OFFCURVE",
"239 35 OFFCURVE",
"203 35 CURVE SMOOTH",
"191 35 OFFCURVE",
"184 43 OFFCURVE",
"184 57 CURVE SMOOTH",
"184 67 OFFCURVE",
"187 86 OFFCURVE",
"189 95 CURVE SMOOTH",
"280 450 LINE",
"143 450 LINE",
"56 113 LINE SMOOTH",
"52 96 OFFCURVE",
"50 81 OFFCURVE",
"50 69 CURVE SMOOTH",
"50 13 OFFCURVE",
"99 -11 OFFCURVE",
"152 -11 CURVE SMOOTH",
"232 -11 OFFCURVE",
"292 43 OFFCURVE",
"332 98 CURVE",
"339 98 LINE"
);
}
);
width = 598;
}
);
leftKerningGroup = u;
rightKerningGroup = u;
unicode = 0075;
},
{
glyphname = v;
lastChange = "2016-08-16 11:12:44 +0000";
layers = (
{
layerId = "426C3F01-D24D-4224-A47E-56DA036E4742";
paths = (
{
closed = 1;
nodes = (
"442 318 LINE SMOOTH",
"442 240 OFFCURVE",
"344 29 OFFCURVE",
"242 29 CURVE SMOOTH",
"214 29 OFFCURVE",
"191 46 OFFCURVE",
"191 80 CURVE SMOOTH",
"191 87 OFFCURVE",
"192 95 OFFCURVE",
"195 108 CURVE SMOOTH",
"253 336 LINE SMOOTH",
"264 378 OFFCURVE",
"265 389 OFFCURVE",
"265 397 CURVE SMOOTH",
"265 440 OFFCURVE",
"241 462 OFFCURVE",
"197 462 CURVE SMOOTH",
"117 462 OFFCURVE",
"65 389 OFFCURVE",
"25 308 CURVE",
"45 299 LINE",
"89 381 OFFCURVE",
"119 411 OFFCURVE",
"145 411 CURVE SMOOTH",
"157 411 OFFCURVE",
"161 404 OFFCURVE",
"161 392 CURVE SMOOTH",
"161 386 OFFCURVE",
"160 375 OFFCURVE",
"156 358 CURVE SMOOTH",
"95 131 LINE SMOOTH",
"91 115 OFFCURVE",
"89 100 OFFCURVE",
"89 87 CURVE SMOOTH",
"89 19 OFFCURVE",
"140 -13 OFFCURVE",
"203 -13 CURVE SMOOTH",
"383 -13 OFFCURVE",
"481 242 OFFCURVE",
"481 375 CURVE SMOOTH",
"481 433 OFFCURVE",
"462 462 OFFCURVE",
"422 462 CURVE SMOOTH",
"388 462 OFFCURVE",
"371 440 OFFCURVE",
"371 412 CURVE SMOOTH",
"371 356 OFFCURVE",
"442 382 OFFCURVE",
"442 318 CURVE SMOOTH"
);
}
);
width = 500;
},
{
layerId = "DD3DBCA6-CF88-4DA3-ACF4-A2FFC969FFEC";
paths = (
{
closed = 1;
nodes = (
"438 311 LINE SMOOTH",
"438 256 OFFCURVE",
"354 40 OFFCURVE",
"256 40 CURVE SMOOTH",
"229 40 OFFCURVE",
"217 56 OFFCURVE",
"217 85 CURVE SMOOTH",
"217 94 OFFCURVE",
"218 101 OFFCURVE",
"221 114 CURVE SMOOTH",
"275 338 LINE SMOOTH",
"277 352 OFFCURVE",
"280 362 OFFCURVE",
"280 376 CURVE SMOOTH",
"280 426 OFFCURVE",
"253 462 OFFCURVE",
"192 462 CURVE SMOOTH",
"118 462 OFFCURVE",
"71 409 OFFCURVE",
"28 308 CURVE",
"51 297 LINE",
"91 381 OFFCURVE",
"118 411 OFFCURVE",
"141 411 CURVE SMOOTH",
"153 411 OFFCURVE",
"157 403 OFFCURVE",
"157 392 CURVE SMOOTH",
"157 386 OFFCURVE",
"156 375 OFFCURVE",
"152 358 CURVE SMOOTH",
"94 143 LINE SMOOTH",
"90 127 OFFCURVE",
"88 113 OFFCURVE",
"88 98 CURVE SMOOTH",
"88 23 OFFCURVE",
"138 -12 OFFCURVE",
"206 -12 CURVE SMOOTH",
"384 -12 OFFCURVE",
"482 226 OFFCURVE",
"482 365 CURVE SMOOTH",
"482 439 OFFCURVE",
"453 467 OFFCURVE",
"408 467 CURVE SMOOTH",
"366 467 OFFCURVE",
"343 443 OFFCURVE",
"343 404 CURVE SMOOTH",
"343 324 OFFCURVE",
"438 367 OFFCURVE",
"438 311 CURVE SMOOTH"
);
}
);
width = 512;
}
);
unicode = 0076;
},
{
glyphname = w;
lastChange = "2016-08-16 11:12:44 +0000";
layers = (
{
layerId = "426C3F01-D24D-4224-A47E-56DA036E4742";
paths = (
{
closed = 1;
nodes = (
"709 315 LINE SMOOTH",
"709 239 OFFCURVE",
"628 29 OFFCURVE",
"535 29 CURVE SMOOTH",
"505 29 OFFCURVE",
"489 51 OFFCURVE",
"489 107 CURVE SMOOTH",
"489 167 OFFCURVE",
"506 272 OFFCURVE",
"551 450 CURVE",
"448 450 LINE",
"400 227 OFFCURVE",
"393 171 OFFCURVE",
"393 132 CURVE SMOOTH",
"393 34 OFFCURVE",
"439 -13 OFFCURVE",
"505 -13 CURVE SMOOTH",
"659 -13 OFFCURVE",
"748 242 OFFCURVE",
"748 374 CURVE SMOOTH",
"748 433 OFFCURVE",
"729 462 OFFCURVE",
"689 462 CURVE SMOOTH",
"655 462 OFFCURVE",
"638 440 OFFCURVE",
"638 412 CURVE SMOOTH",
"638 355 OFFCURVE",
"709 384 OFFCURVE",
"709 315 CURVE SMOOTH"
);
},
{
closed = 1;
nodes = (
"447 450 LINE SMOOTH",
"417 332 OFFCURVE",
"327 29 OFFCURVE",
"215 29 CURVE SMOOTH",
"195 29 OFFCURVE",
"186 38 OFFCURVE",
"186 61 CURVE SMOOTH",
"186 69 OFFCURVE",
"187 78 OFFCURVE",
"190 89 CURVE SMOOTH",
"253 336 LINE SMOOTH",
"264 378 OFFCURVE",
"265 389 OFFCURVE",
"265 397 CURVE SMOOTH",
"265 440 OFFCURVE",
"241 462 OFFCURVE",
"197 462 CURVE SMOOTH",
"117 462 OFFCURVE",
"65 389 OFFCURVE",
"25 308 CURVE",
"45 299 LINE",
"89 381 OFFCURVE",
"119 411 OFFCURVE",
"144 411 CURVE SMOOTH",
"156 411 OFFCURVE",
"161 404 OFFCURVE",
"161 392 CURVE SMOOTH",
"161 386 OFFCURVE",
"160 375 OFFCURVE",
"156 358 CURVE SMOOTH",
"90 112 LINE SMOOTH",
"87 99 OFFCURVE",
"85 88 OFFCURVE",
"85 76 CURVE SMOOTH",
"85 23 OFFCURVE",
"121 -13 OFFCURVE",
"181 -13 CURVE SMOOTH",
"277 -13 OFFCURVE",
"348 78 OFFCURVE",
"394 188 CURVE",
"398 188 LINE",
"429 271 OFFCURVE",
"448 386 OFFCURVE",
"452 447 CURVE"
);
}
);
width = 767;
},
{
layerId = "DD3DBCA6-CF88-4DA3-ACF4-A2FFC969FFEC";
paths = (
{
closed = 1;
nodes = (
"447 450 LINE",
"383 177 OFFCURVE",
"292 40 OFFCURVE",
"245 40 CURVE SMOOTH",
"236 40 OFFCURVE",
"227 45 OFFCURVE",
"227 66 CURVE SMOOTH",
"227 73 OFFCURVE",
"228 81 OFFCURVE",
"231 94 CURVE SMOOTH",
"281 338 LINE SMOOTH",
"284 355 OFFCURVE",
"286 366 OFFCURVE",
"286 379 CURVE SMOOTH",
"286 425 OFFCURVE",
"259 462 OFFCURVE",
"198 462 CURVE SMOOTH",
"124 462 OFFCURVE",
"77 409 OFFCURVE",
"34 308 CURVE",
"57 297 LINE",
"97 381 OFFCURVE",
"124 411 OFFCURVE",
"147 411 CURVE SMOOTH",
"159 411 OFFCURVE",
"163 403 OFFCURVE",
"163 392 CURVE SMOOTH",
"163 386 OFFCURVE",
"162 374 OFFCURVE",
"158 358 CURVE SMOOTH",
"102 132 LINE SMOOTH",
"98 116 OFFCURVE",
"96 101 OFFCURVE",
"96 88 CURVE SMOOTH",
"96 23 OFFCURVE",
"144 -12 OFFCURVE",
"199 -12 CURVE SMOOTH",
"315 -12 OFFCURVE",
"379 140 OFFCURVE",
"406 210 CURVE",
"411 210 LINE"
);
},
{
closed = 1;
nodes = (
"516 -12 LINE SMOOTH",
"666 -12 OFFCURVE",
"760 239 OFFCURVE",
"760 366 CURVE SMOOTH",
"760 437 OFFCURVE",
"731 462 OFFCURVE",
"688 462 CURVE SMOOTH",
"646 462 OFFCURVE",
"623 438 OFFCURVE",
"623 399 CURVE SMOOTH",
"623 319 OFFCURVE",
"718 363 OFFCURVE",
"718 306 CURVE SMOOTH",
"718 252 OFFCURVE",
"637 40 OFFCURVE",
"560 40 CURVE SMOOTH",
"537 40 OFFCURVE",
"523 59 OFFCURVE",
"523 99 CURVE SMOOTH",
"523 118 OFFCURVE",
"526 162 OFFCURVE",
"537 215 CURVE SMOOTH",
"585 450 LINE",
"447 450 LINE",
"403 163 LINE SMOOTH",
"401 150 OFFCURVE",
"400 138 OFFCURVE",
"400 126 CURVE SMOOTH",
"400 44 OFFCURVE",
"446 -12 OFFCURVE",
"516 -12 CURVE SMOOTH"
);
}
);
width = 776;
}
);
leftKerningGroup = w;
rightKerningGroup = w;
unicode = 0077;
},
{
glyphname = x;
lastChange = "2016-08-16 11:12:44 +0000";
layers = (
{
layerId = "426C3F01-D24D-4224-A47E-56DA036E4742";
paths = (
{
closed = 1;
nodes = (
"310 364 LINE SMOOTH",
"297 435 OFFCURVE",
"272 462 OFFCURVE",
"228 462 CURVE SMOOTH",
"154 462 OFFCURVE",
"107 385 OFFCURVE",
"68 302 CURVE",
"88 293 LINE",
"132 383 OFFCURVE",
"156 411 OFFCURVE",
"178 411 CURVE SMOOTH",
"192 411 OFFCURVE",
"200 398 OFFCURVE",
"206 367 CURVE SMOOTH",
"262 69 LINE SMOOTH",
"274 8 OFFCURVE",
"301 -13 OFFCURVE",
"347 -13 CURVE SMOOTH",
"428 -13 OFFCURVE",
"472 53 OFFCURVE",
"517 147 CURVE",
"497 156 LINE",
"454 68 OFFCURVE",
"426 38 OFFCURVE",
"401 38 CURVE SMOOTH",
"382 38 OFFCURVE",
"365 54 OFFCURVE",
"360 82 CURVE SMOOTH"
);
},
{
closed = 1;
nodes = (
"484 460 LINE SMOOTH",
"429 460 OFFCURVE",
"367 397 OFFCURVE",
"325 310 CURVE",
"314 310 LINE",
"314 196 LINE",
"333 297 OFFCURVE",
"390 396 OFFCURVE",
"426 396 CURVE SMOOTH",
"444 396 OFFCURVE",
"456 374 OFFCURVE",
"485 374 CURVE SMOOTH",
"514 374 OFFCURVE",
"529 396 OFFCURVE",
"529 417 CURVE SMOOTH",
"529 436 OFFCURVE",
"517 460 OFFCURVE",
"484 460 CURVE SMOOTH"
);
},
{
closed = 1;
nodes = (
"51 -13 LINE SMOOTH",
"103 -13 OFFCURVE",
"169 51 OFFCURVE",
"240 161 CURVE",
"244 161 LINE",
"246 218 LINE",
"210 147 OFFCURVE",
"136 51 OFFCURVE",
"108 51 CURVE SMOOTH",
"93 51 OFFCURVE",
"82 81 OFFCURVE",
"51 81 CURVE SMOOTH",
"22 81 OFFCURVE",
"6 55 OFFCURVE",
"6 32 CURVE SMOOTH",
"6 11 OFFCURVE",
"19 -13 OFFCURVE",
"51 -13 CURVE SMOOTH"
);
}
);
width = 550;
},
{
layerId = "DD3DBCA6-CF88-4DA3-ACF4-A2FFC969FFEC";
paths = (
{
closed = 1;
nodes = (
"303 364 LINE SMOOTH",
"288 440 OFFCURVE",
"256 462 OFFCURVE",
"209 462 CURVE SMOOTH",
"129 462 OFFCURVE",
"81 396 OFFCURVE",
"43 302 CURVE",
"66 293 LINE",
"105 376 OFFCURVE",
"125 402 OFFCURVE",
"144 402 CURVE SMOOTH",
"155 402 OFFCURVE",
"159 393 OFFCURVE",
"164 367 CURVE SMOOTH",
"214 101 LINE SMOOTH",
"230 17 OFFCURVE",
"270 -13 OFFCURVE",
"324 -13 CURVE SMOOTH",
"406 -13 OFFCURVE",
"446 53 OFFCURVE",
"491 147 CURVE",
"468 159 LINE",
"425 73 OFFCURVE",
"404 43 OFFCURVE",
"379 43 CURVE SMOOTH",
"367 43 OFFCURVE",
"362 50 OFFCURVE",
"359 67 CURVE SMOOTH"
);
},
{
closed = 1;
nodes = (
"448 462 LINE SMOOTH",
"406 462 OFFCURVE",
"368 427 OFFCURVE",
"312 342 CURVE",
"301 342 LINE",
"314 285 LINE",
"329 330 OFFCURVE",
"359 373 OFFCURVE",
"383 373 CURVE SMOOTH",
"403 373 OFFCURVE",
"414 343 OFFCURVE",
"450 343 CURVE SMOOTH",
"487 343 OFFCURVE",
"507 374 OFFCURVE",
"507 404 CURVE SMOOTH",
"507 437 OFFCURVE",
"484 462 OFFCURVE",
"448 462 CURVE SMOOTH"
);
},
{
closed = 1;
nodes = (
"41 -13 LINE SMOOTH",
"83 -13 OFFCURVE",
"125 21 OFFCURVE",
"202 143 CURVE",
"206 143 LINE",
"224 223 LINE",
"139 91 OFFCURVE",
"126 79 OFFCURVE",
"111 79 CURVE SMOOTH",
"86 79 OFFCURVE",
"83 111 OFFCURVE",
"43 111 CURVE SMOOTH",
"3 111 OFFCURVE",
"-18 78 OFFCURVE",
"-18 48 CURVE SMOOTH",
"-18 19 OFFCURVE",
"1 -13 OFFCURVE",
"41 -13 CURVE SMOOTH"
);
}
);
width = 514;
}
);
unicode = 0078;
},
{
glyphname = y;
lastChange = "2016-08-16 11:12:44 +0000";
layers = (
{
layerId = "426C3F01-D24D-4224-A47E-56DA036E4742";
paths = (
{
closed = 1;
nodes = (
"239 390 LINE SMOOTH",
"221 443 OFFCURVE",
"200 462 OFFCURVE",
"163 462 CURVE SMOOTH",
"92 462 OFFCURVE",
"58 397 OFFCURVE",
"20 302 CURVE",
"40 293 LINE",
"77 378 OFFCURVE",
"92 407 OFFCURVE",
"112 407 CURVE SMOOTH",
"124 407 OFFCURVE",
"130 396 OFFCURVE",
"139 367 CURVE SMOOTH",
"263 -49 LINE",
"333 82 LINE",
"324 120 LINE",
"320 120 LINE"
);
},
{
closed = 1;
nodes = (
"432 352 LINE SMOOTH",
"440 375 OFFCURVE",
"449 381 OFFCURVE",
"458 381 CURVE SMOOTH",
"471 381 OFFCURVE",
"476 368 OFFCURVE",
"495 368 CURVE SMOOTH",
"518 368 OFFCURVE",
"536 388 OFFCURVE",
"536 415 CURVE SMOOTH",
"536 434 OFFCURVE",
"527 462 OFFCURVE",
"489 462 CURVE SMOOTH",
"462 462 OFFCURVE",
"435 449 OFFCURVE",
"418 400 CURVE SMOOTH",
"298 46 LINE",
"266 -29 LINE SMOOTH",
"203 -177 OFFCURVE",
"115 -273 OFFCURVE",
"84 -273 CURVE SMOOTH",
"60 -273 OFFCURVE",
"63 -218 OFFCURVE",
"20 -218 CURVE SMOOTH",
"-7 -218 OFFCURVE",
"-21 -240 OFFCURVE",
"-21 -263 CURVE SMOOTH",
"-21 -292 OFFCURVE",
"1 -314 OFFCURVE",
"39 -314 CURVE SMOOTH",
"130 -314 OFFCURVE",
"246 -185 OFFCURVE",
"331 61 CURVE SMOOTH"
);
}
);
width = 527;
},
{
layerId = "DD3DBCA6-CF88-4DA3-ACF4-A2FFC969FFEC";
paths = (
{
closed = 1;
nodes = (
"286 397 LINE SMOOTH",
"268 449 OFFCURVE",
"238 462 OFFCURVE",
"200 462 CURVE SMOOTH",
"113 462 OFFCURVE",
"74 395 OFFCURVE",
"25 297 CURVE",
"55 283 LINE",
"92 364 OFFCURVE",
"109 390 OFFCURVE",
"126 390 CURVE SMOOTH",
"138 390 OFFCURVE",
"143 379 OFFCURVE",
"153 350 CURVE SMOOTH",
"289 -25 LINE",
"372 144 LINE",
"363 182 LINE",
"359 182 LINE"
);
},
{
closed = 1;
nodes = (
"455 317 LINE SMOOTH",
"467 346 OFFCURVE",
"474 352 OFFCURVE",
"483 352 CURVE SMOOTH",
"493 352 OFFCURVE",
"507 338 OFFCURVE",
"527 338 CURVE SMOOTH",
"566 338 OFFCURVE",
"590 365 OFFCURVE",
"590 402 CURVE SMOOTH",
"590 437 OFFCURVE",
"572 462 OFFCURVE",
"528 462 CURVE SMOOTH",
"492 462 OFFCURVE",
"461 445 OFFCURVE",
"437 379 CURVE SMOOTH",
"320 68 LINE",
"288 7 LINE SMOOTH",
"210 -142 OFFCURVE",
"116 -255 OFFCURVE",
"82 -255 CURVE SMOOTH",
"53 -255 OFFCURVE",
"64 -177 OFFCURVE",
"-1 -177 CURVE SMOOTH",
"-37 -177 OFFCURVE",
"-64 -200 OFFCURVE",
"-64 -237 CURVE SMOOTH",
"-64 -277 OFFCURVE",
"-34 -314 OFFCURVE",
"19 -314 CURVE SMOOTH",
"125 -314 OFFCURVE",
"261 -150 OFFCURVE",
"358 83 CURVE SMOOTH"
);
}
);
width = 547;
}
);
leftKerningGroup = y;
rightKerningGroup = y;
unicode = 0079;
},
{
glyphname = z;
lastChange = "2016-08-16 11:12:44 +0000";
layers = (
{
layerId = "426C3F01-D24D-4224-A47E-56DA036E4742";
paths = (
{
closed = 1;
nodes = (
"65 294 LINE",
"139 450 LINE",
"154 450 LINE",
"267 415 OFFCURVE",
"294 412 OFFCURVE",
"396 412 CURVE SMOOTH",
"423 412 OFFCURVE",
"401 457 OFFCURVE",
"435 457 CURVE SMOOTH",
"446 457 OFFCURVE",
"453 452 OFFCURVE",
"453 441 CURVE SMOOTH",
"453 434 OFFCURVE",
"449 423 OFFCURVE",
"407 382 CURVE SMOOTH",
"133 120 LINE",
"133 116 LINE",
"219 116 OFFCURVE",
"306 70 OFFCURVE",
"350 70 CURVE SMOOTH",
"376 70 OFFCURVE",
"387 86 OFFCURVE",
"387 99 CURVE SMOOTH",
"387 127 OFFCURVE",
"332 105 OFFCURVE",
"332 148 CURVE SMOOTH",
"332 173 OFFCURVE",
"350 185 OFFCURVE",
"368 185 CURVE SMOOTH",
"396 185 OFFCURVE",
"411 155 OFFCURVE",
"411 120 CURVE SMOOTH",
"411 46 OFFCURVE",
"344 -13 OFFCURVE",
"266 -13 CURVE SMOOTH",
"188 -13 OFFCURVE",
"112 47 OFFCURVE",
"77 47 CURVE SMOOTH",
"43 47 OFFCURVE",
"75 -8 OFFCURVE",
"38 -8 CURVE SMOOTH",
"23 -8 OFFCURVE",
"17 1 OFFCURVE",
"17 15 CURVE SMOOTH",
"17 35 OFFCURVE",
"32 60 OFFCURVE",
"86 112 CURVE SMOOTH",
"339 354 LINE",
"337 357 LINE",
"286 345 OFFCURVE",
"244 339 OFFCURVE",
"207 339 CURVE SMOOTH",
"176 339 OFFCURVE",
"148 342 OFFCURVE",
"118 354 CURVE",
"82 287 LINE"
);
}
);
width = 474;
},
{
layerId = "DD3DBCA6-CF88-4DA3-ACF4-A2FFC969FFEC";
paths = (
{
closed = 1;
nodes = (
"54 264 LINE",
"141 450 LINE",
"166 450 LINE",
"238 428 OFFCURVE",
"333 417 OFFCURVE",
"423 417 CURVE SMOOTH",
"444 417 OFFCURVE",
"427 462 OFFCURVE",
"466 462 CURVE SMOOTH",
"483 462 OFFCURVE",
"492 454 OFFCURVE",
"492 440 CURVE SMOOTH",
"492 427 OFFCURVE",
"484 413 OFFCURVE",
"467 399 CURVE SMOOTH",
"159 142 LINE",
"159 138 LINE",
"314 138 OFFCURVE",
"342 103 OFFCURVE",
"379 103 CURVE SMOOTH",
"409 103 OFFCURVE",
"419 126 OFFCURVE",
"419 136 CURVE SMOOTH",
"419 160 OFFCURVE",
"350 142 OFFCURVE",
"350 194 CURVE SMOOTH",
"350 224 OFFCURVE",
"374 239 OFFCURVE",
"398 239 CURVE SMOOTH",
"432 239 OFFCURVE",
"452 208 OFFCURVE",
"452 162 CURVE SMOOTH",
"452 78 OFFCURVE",
"385 -13 OFFCURVE",
"290 -13 CURVE SMOOTH",
"213 -13 OFFCURVE",
"153 47 OFFCURVE",
"89 47 CURVE SMOOTH",
"81 47 OFFCURVE",
"77 46 OFFCURVE",
"77 38 CURVE SMOOTH",
"77 32 OFFCURVE",
"80 22 OFFCURVE",
"80 14 CURVE SMOOTH",
"80 -2 OFFCURVE",
"67 -13 OFFCURVE",
"47 -13 CURVE SMOOTH",
"23 -13 OFFCURVE",
"9 2 OFFCURVE",
"9 24 CURVE SMOOTH",
"9 43 OFFCURVE",
"19 62 OFFCURVE",
"79 112 CURVE SMOOTH",
"341 333 LINE",
"339 336 LINE",
"288 321 OFFCURVE",
"234 315 OFFCURVE",
"198 315 CURVE SMOOTH",
"169 315 OFFCURVE",
"145 315 OFFCURVE",
"118 326 CURVE",
"81 253 LINE"
);
}
);
width = 494;
}
);
leftKerningGroup = z;
rightKerningGroup = z;
unicode = 007A;
},
{
glyphname = f_f;
lastChange = "2016-08-16 11:12:44 +0000";
layers = (
{
layerId = "426C3F01-D24D-4224-A47E-56DA036E4742";
paths = (
{
closed = 1;
nodes = (
"265 453 LINE SMOOTH",
"307 634 OFFCURVE",
"348 688 OFFCURVE",
"406 688 CURVE SMOOTH",
"427 688 OFFCURVE",
"441 681 OFFCURVE",
"441 670 CURVE SMOOTH",
"441 657 OFFCURVE",
"420 647 OFFCURVE",
"420 621 CURVE SMOOTH",
"420 596 OFFCURVE",
"439 577 OFFCURVE",
"470 577 CURVE SMOOTH",
"504 577 OFFCURVE",
"524 603 OFFCURVE",
"524 633 CURVE SMOOTH",
"524 684 OFFCURVE",
"471 718 OFFCURVE",
"413 718 CURVE SMOOTH",
"309 718 OFFCURVE",
"188 608 OFFCURVE",
"144 392 CURVE SMOOTH",
"35 -140 LINE SMOOTH",
"10 -260 OFFCURVE",
"-26 -294 OFFCURVE",
"-68 -294 CURVE SMOOTH",
"-88 -294 OFFCURVE",
"-92 -287 OFFCURVE",
"-92 -276 CURVE SMOOTH",
"-92 -267 OFFCURVE",
"-89 -256 OFFCURVE",
"-89 -247 CURVE SMOOTH",
"-89 -223 OFFCURVE",
"-108 -203 OFFCURVE",
"-136 -203 CURVE SMOOTH",
"-164 -203 OFFCURVE",
"-185 -223 OFFCURVE",
"-185 -251 CURVE SMOOTH",
"-185 -293 OFFCURVE",
"-140 -324 OFFCURVE",
"-82 -324 CURVE SMOOTH",
"3 -324 OFFCURVE",
"101 -256 OFFCURVE",
"171 45 CURVE SMOOTH"
);
},
{
closed = 1;
nodes = (
"57 425 LINE",
"378 425 LINE",
"378 450 LINE",
"57 450 LINE"
);
},
{
closed = 1;
nodes = (
"553 501 LINE SMOOTH",
"596 681 OFFCURVE",
"636 736 OFFCURVE",
"694 736 CURVE SMOOTH",
"715 736 OFFCURVE",
"729 729 OFFCURVE",
"729 718 CURVE SMOOTH",
"729 705 OFFCURVE",
"708 695 OFFCURVE",
"708 669 CURVE SMOOTH",
"708 645 OFFCURVE",
"727 625 OFFCURVE",
"758 625 CURVE SMOOTH",
"792 625 OFFCURVE",
"812 651 OFFCURVE",
"812 681 CURVE SMOOTH",
"812 732 OFFCURVE",
"759 766 OFFCURVE",
"701 766 CURVE SMOOTH",
"597 766 OFFCURVE",
"478 655 OFFCURVE",
"432 440 CURVE SMOOTH",
"320 -90 LINE SMOOTH",
"295 -210 OFFCURVE",
"259 -244 OFFCURVE",
"217 -244 CURVE SMOOTH",
"197 -244 OFFCURVE",
"193 -237 OFFCURVE",
"193 -226 CURVE SMOOTH",
"193 -217 OFFCURVE",
"196 -206 OFFCURVE",
"196 -197 CURVE SMOOTH",
"196 -172 OFFCURVE",
"177 -153 OFFCURVE",
"149 -153 CURVE SMOOTH",
"121 -153 OFFCURVE",
"100 -173 OFFCURVE",
"100 -201 CURVE SMOOTH",
"100 -243 OFFCURVE",
"145 -274 OFFCURVE",
"203 -274 CURVE SMOOTH",
"288 -274 OFFCURVE",
"384 -206 OFFCURVE",
"456 95 CURVE SMOOTH"
);
},
{
closed = 1;
nodes = (
"333 425 LINE",
"654 425 LINE",
"654 450 LINE",
"333 450 LINE"
);
}
);
width = 589;
},
{
layerId = "DD3DBCA6-CF88-4DA3-ACF4-A2FFC969FFEC";
paths = (
{
closed = 1;
nodes = (
"277 476 LINE SMOOTH",
"307 655 OFFCURVE",
"346 711 OFFCURVE",
"394 711 CURVE SMOOTH",
"414 711 OFFCURVE",
"421 701 OFFCURVE",
"421 693 CURVE SMOOTH",
"421 678 OFFCURVE",
"400 665 OFFCURVE",
"400 633 CURVE SMOOTH",
"400 598 OFFCURVE",
"425 575 OFFCURVE",
"463 575 CURVE SMOOTH",
"506 575 OFFCURVE",
"526 604 OFFCURVE",
"526 642 CURVE SMOOTH",
"526 702 OFFCURVE",
"475 741 OFFCURVE",
"408 741 CURVE SMOOTH",
"298 741 OFFCURVE",
"167 638 OFFCURVE",
"125 418 CURVE SMOOTH",
"61 82 LINE SMOOTH",
"-6 -269 OFFCURVE",
"-28 -289 OFFCURVE",
"-61 -289 CURVE SMOOTH",
"-76 -289 OFFCURVE",
"-84 -285 OFFCURVE",
"-84 -272 CURVE SMOOTH",
"-84 -256 OFFCURVE",
"-71 -245 OFFCURVE",
"-71 -224 CURVE SMOOTH",
"-71 -198 OFFCURVE",
"-91 -172 OFFCURVE",
"-131 -172 CURVE SMOOTH",
"-172 -172 OFFCURVE",
"-193 -199 OFFCURVE",
"-193 -235 CURVE SMOOTH",
"-193 -279 OFFCURVE",
"-163 -324 OFFCURVE",
"-91 -324 CURVE SMOOTH",
"37 -324 OFFCURVE",
"159 -182 OFFCURVE",
"223 175 CURVE SMOOTH"
);
},
{
closed = 1;
nodes = (
"25 420 LINE",
"386 420 LINE",
"386 450 LINE",
"25 450 LINE"
);
},
{
closed = 1;
nodes = (
"562 501 LINE SMOOTH",
"595 684 OFFCURVE",
"638 736 OFFCURVE",
"682 736 CURVE SMOOTH",
"700 736 OFFCURVE",
"708 728 OFFCURVE",
"708 718 CURVE SMOOTH",
"708 702 OFFCURVE",
"687 691 OFFCURVE",
"687 658 CURVE SMOOTH",
"687 623 OFFCURVE",
"712 600 OFFCURVE",
"750 600 CURVE SMOOTH",
"793 600 OFFCURVE",
"813 629 OFFCURVE",
"813 667 CURVE SMOOTH",
"813 727 OFFCURVE",
"761 766 OFFCURVE",
"696 766 CURVE SMOOTH",
"588 766 OFFCURVE",
"456 660 OFFCURVE",
"410 434 CURVE SMOOTH",
"336 68 LINE SMOOTH",
"275 -233 OFFCURVE",
"256 -254 OFFCURVE",
"224 -254 CURVE SMOOTH",
"207 -254 OFFCURVE",
"200 -248 OFFCURVE",
"200 -237 CURVE SMOOTH",
"200 -222 OFFCURVE",
"213 -210 OFFCURVE",
"213 -189 CURVE SMOOTH",
"213 -164 OFFCURVE",
"193 -137 OFFCURVE",
"153 -137 CURVE SMOOTH",
"112 -137 OFFCURVE",
"91 -164 OFFCURVE",
"91 -200 CURVE SMOOTH",
"91 -244 OFFCURVE",
"122 -289 OFFCURVE",
"192 -289 CURVE SMOOTH",
"319 -289 OFFCURVE",
"440 -143 OFFCURVE",
"507 210 CURVE SMOOTH"
);
},
{
closed = 1;
nodes = (
"312 420 LINE",
"673 420 LINE",
"673 450 LINE",
"312 450 LINE"
);
}
);
width = 594;
}
);
leftKerningGroup = f;
rightKerningGroup = f;
unicode = FB00;
},
{
glyphname = f_f_i;
lastChange = "2016-08-16 11:12:44 +0000";
layers = (
{
layerId = "426C3F01-D24D-4224-A47E-56DA036E4742";
paths = (
{
closed = 1;
nodes = (
"268 463 LINE SMOOTH",
"307 634 OFFCURVE",
"351 688 OFFCURVE",
"409 688 CURVE SMOOTH",
"430 688 OFFCURVE",
"444 681 OFFCURVE",
"444 670 CURVE SMOOTH",
"444 657 OFFCURVE",
"423 647 OFFCURVE",
"423 621 CURVE SMOOTH",
"423 596 OFFCURVE",
"442 577 OFFCURVE",
"473 577 CURVE SMOOTH",
"507 577 OFFCURVE",
"527 603 OFFCURVE",
"527 633 CURVE SMOOTH",
"527 684 OFFCURVE",
"474 718 OFFCURVE",
"416 718 CURVE SMOOTH",
"309 718 OFFCURVE",
"189 605 OFFCURVE",
"147 402 CURVE SMOOTH",
"35 -140 LINE SMOOTH",
"11 -256 OFFCURVE",
"-24 -294 OFFCURVE",
"-68 -294 CURVE SMOOTH",
"-88 -294 OFFCURVE",
"-92 -287 OFFCURVE",
"-92 -276 CURVE SMOOTH",
"-92 -267 OFFCURVE",
"-89 -256 OFFCURVE",
"-89 -247 CURVE SMOOTH",
"-89 -223 OFFCURVE",
"-108 -203 OFFCURVE",
"-136 -203 CURVE SMOOTH",
"-164 -203 OFFCURVE",
"-185 -223 OFFCURVE",
"-185 -251 CURVE SMOOTH",
"-185 -294 OFFCURVE",
"-136 -324 OFFCURVE",
"-88 -324 CURVE SMOOTH",
"6 -324 OFFCURVE",
"112 -210 OFFCURVE",
"171 45 CURVE SMOOTH"
);
},
{
closed = 1;
nodes = (
"60 425 LINE",
"381 425 LINE",
"381 450 LINE",
"60 450 LINE"
);
},
{
closed = 1;
nodes = (
"788 450 LINE",
"681 450 LINE",
"594 87 LINE SMOOTH",
"592 78 OFFCURVE",
"590 67 OFFCURVE",
"590 56 CURVE SMOOTH",
"590 15 OFFCURVE",
"618 -13 OFFCURVE",
"667 -13 CURVE SMOOTH",
"753 -13 OFFCURVE",
"811 73 OFFCURVE",
"850 157 CURVE",
"830 166 LINE",
"784 73 OFFCURVE",
"748 38 OFFCURVE",
"716 38 CURVE SMOOTH",
"702 38 OFFCURVE",
"694 45 OFFCURVE",
"694 63 CURVE SMOOTH",
"694 69 OFFCURVE",
"695 80 OFFCURVE",
"699 97 CURVE SMOOTH"
);
},
{
closed = 1;
nodes = (
"587 425 LINE",
"776 425 LINE",
"776 450 LINE",
"587 450 LINE"
);
},
{
closed = 1;
nodes = (
"542 511 LINE SMOOTH",
"580 679 OFFCURVE",
"628 736 OFFCURVE",
"689 736 CURVE SMOOTH",
"711 736 OFFCURVE",
"728 729 OFFCURVE",
"728 718 CURVE SMOOTH",
"728 705 OFFCURVE",
"707 695 OFFCURVE",
"707 669 CURVE SMOOTH",
"707 645 OFFCURVE",
"726 625 OFFCURVE",
"757 625 CURVE SMOOTH",
"791 625 OFFCURVE",
"811 651 OFFCURVE",
"811 681 CURVE SMOOTH",
"811 732 OFFCURVE",
"756 766 OFFCURVE",
"696 766 CURVE SMOOTH",
"588 766 OFFCURVE",
"463 657 OFFCURVE",
"421 450 CURVE SMOOTH",
"309 -100 LINE SMOOTH",
"285 -220 OFFCURVE",
"248 -254 OFFCURVE",
"206 -254 CURVE SMOOTH",
"186 -254 OFFCURVE",
"182 -247 OFFCURVE",
"182 -236 CURVE SMOOTH",
"182 -227 OFFCURVE",
"185 -216 OFFCURVE",
"185 -207 CURVE SMOOTH",
"185 -182 OFFCURVE",
"166 -163 OFFCURVE",
"138 -163 CURVE SMOOTH",
"110 -163 OFFCURVE",
"89 -183 OFFCURVE",
"89 -211 CURVE SMOOTH",
"89 -253 OFFCURVE",
"134 -284 OFFCURVE",
"192 -284 CURVE SMOOTH",
"277 -284 OFFCURVE",
"377 -216 OFFCURVE",
"445 85 CURVE SMOOTH"
);
},
{
closed = 1;
nodes = (
"322 425 LINE",
"643 425 LINE",
"643 450 LINE",
"322 450 LINE"
);
}
);
width = 852;
},
{
layerId = "DD3DBCA6-CF88-4DA3-ACF4-A2FFC969FFEC";
paths = (
{
closed = 1;
nodes = (
"277 476 LINE SMOOTH",
"307 655 OFFCURVE",
"346 711 OFFCURVE",
"394 711 CURVE SMOOTH",
"414 711 OFFCURVE",
"421 701 OFFCURVE",
"421 693 CURVE SMOOTH",
"421 678 OFFCURVE",
"400 665 OFFCURVE",
"400 633 CURVE SMOOTH",
"400 598 OFFCURVE",
"425 575 OFFCURVE",
"463 575 CURVE SMOOTH",
"506 575 OFFCURVE",
"526 604 OFFCURVE",
"526 642 CURVE SMOOTH",
"526 702 OFFCURVE",
"475 741 OFFCURVE",
"408 741 CURVE SMOOTH",
"298 741 OFFCURVE",
"167 638 OFFCURVE",
"125 418 CURVE SMOOTH",
"61 82 LINE SMOOTH",
"-6 -269 OFFCURVE",
"-28 -289 OFFCURVE",
"-61 -289 CURVE SMOOTH",
"-76 -289 OFFCURVE",
"-84 -285 OFFCURVE",
"-84 -272 CURVE SMOOTH",
"-84 -256 OFFCURVE",
"-71 -245 OFFCURVE",
"-71 -224 CURVE SMOOTH",
"-71 -198 OFFCURVE",
"-91 -172 OFFCURVE",
"-131 -172 CURVE SMOOTH",
"-172 -172 OFFCURVE",
"-193 -199 OFFCURVE",
"-193 -235 CURVE SMOOTH",
"-193 -279 OFFCURVE",
"-163 -324 OFFCURVE",
"-91 -324 CURVE SMOOTH",
"37 -324 OFFCURVE",
"159 -182 OFFCURVE",
"223 175 CURVE SMOOTH"
);
},
{
closed = 1;
nodes = (
"27 420 LINE",
"388 420 LINE",
"388 450 LINE",
"27 450 LINE"
);
},
{
closed = 1;
nodes = (
"831 450 LINE",
"697 450 LINE",
"623 153 LINE SMOOTH",
"610 100 OFFCURVE",
"607 86 OFFCURVE",
"607 70 CURVE SMOOTH",
"607 15 OFFCURVE",
"640 -11 OFFCURVE",
"699 -11 CURVE SMOOTH",
"778 -11 OFFCURVE",
"850 35 OFFCURVE",
"887 147 CURVE",
"862 156 LINE",
"821 65 OFFCURVE",
"777 37 OFFCURVE",
"756 37 CURVE SMOOTH",
"748 37 OFFCURVE",
"742 41 OFFCURVE",
"742 52 CURVE SMOOTH",
"742 57 OFFCURVE",
"743 69 OFFCURVE",
"747 87 CURVE SMOOTH"
);
},
{
closed = 1;
nodes = (
"600 420 LINE",
"774 420 LINE",
"774 450 LINE",
"600 450 LINE"
);
},
{
closed = 1;
nodes = (
"561 501 LINE",
"597 681 OFFCURVE",
"654 736 OFFCURVE",
"709 736 CURVE SMOOTH",
"731 736 OFFCURVE",
"742 728 OFFCURVE",
"742 718 CURVE SMOOTH",
"742 703 OFFCURVE",
"721 689 OFFCURVE",
"721 655 CURVE SMOOTH",
"721 618 OFFCURVE",
"746 596 OFFCURVE",
"784 596 CURVE SMOOTH",
"827 596 OFFCURVE",
"847 625 OFFCURVE",
"847 662 CURVE SMOOTH",
"847 727 OFFCURVE",
"786 766 OFFCURVE",
"714 766 CURVE SMOOTH",
"595 766 OFFCURVE",
"455 660 OFFCURVE",
"406 434 CURVE SMOOTH",
"327 68 LINE SMOOTH",
"262 -233 OFFCURVE",
"247 -254 OFFCURVE",
"214 -254 CURVE SMOOTH",
"199 -254 OFFCURVE",
"191 -248 OFFCURVE",
"191 -237 CURVE SMOOTH",
"191 -221 OFFCURVE",
"204 -210 OFFCURVE",
"204 -189 CURVE SMOOTH",
"204 -164 OFFCURVE",
"184 -137 OFFCURVE",
"144 -137 CURVE SMOOTH",
"103 -137 OFFCURVE",
"82 -164 OFFCURVE",
"82 -200 CURVE SMOOTH",
"82 -244 OFFCURVE",
"113 -289 OFFCURVE",
"183 -289 CURVE SMOOTH",
"308 -289 OFFCURVE",
"423 -145 OFFCURVE",
"499 210 CURVE SMOOTH"
);
},
{
closed = 1;
nodes = (
"310 420 LINE",
"671 420 LINE",
"671 450 LINE",
"310 450 LINE"
);
}
);
width = 882;
}
);
leftKerningGroup = f;
rightKerningGroup = i;
unicode = FB03;
},
{
glyphname = f_f_l;
lastChange = "2016-08-16 11:12:44 +0000";
layers = (
{
layerId = "426C3F01-D24D-4224-A47E-56DA036E4742";
paths = (
{
closed = 1;
nodes = (
"268 463 LINE SMOOTH",
"307 632 OFFCURVE",
"350 686 OFFCURVE",
"408 686 CURVE SMOOTH",
"429 686 OFFCURVE",
"443 679 OFFCURVE",
"443 668 CURVE SMOOTH",
"443 655 OFFCURVE",
"422 645 OFFCURVE",
"422 619 CURVE SMOOTH",
"422 594 OFFCURVE",
"441 575 OFFCURVE",
"472 575 CURVE SMOOTH",
"506 575 OFFCURVE",
"526 601 OFFCURVE",
"526 631 CURVE SMOOTH",
"526 682 OFFCURVE",
"473 716 OFFCURVE",
"415 716 CURVE SMOOTH",
"308 716 OFFCURVE",
"188 603 OFFCURVE",
"147 402 CURVE SMOOTH",
"35 -140 LINE SMOOTH",
"11 -256 OFFCURVE",
"-24 -294 OFFCURVE",
"-68 -294 CURVE SMOOTH",
"-88 -294 OFFCURVE",
"-92 -287 OFFCURVE",
"-92 -276 CURVE SMOOTH",
"-92 -267 OFFCURVE",
"-89 -256 OFFCURVE",
"-89 -247 CURVE SMOOTH",
"-89 -223 OFFCURVE",
"-108 -203 OFFCURVE",
"-136 -203 CURVE SMOOTH",
"-164 -203 OFFCURVE",
"-185 -223 OFFCURVE",
"-185 -251 CURVE SMOOTH",
"-185 -293 OFFCURVE",
"-140 -324 OFFCURVE",
"-82 -324 CURVE SMOOTH",
"-2 -324 OFFCURVE",
"100 -263 OFFCURVE",
"171 45 CURVE SMOOTH"
);
},
{
closed = 1;
nodes = (
"60 425 LINE",
"381 425 LINE",
"381 450 LINE",
"60 450 LINE"
);
},
{
closed = 1;
nodes = (
"556 511 LINE SMOOTH",
"597 686 OFFCURVE",
"639 736 OFFCURVE",
"697 736 CURVE SMOOTH",
"718 736 OFFCURVE",
"732 729 OFFCURVE",
"732 718 CURVE SMOOTH",
"732 705 OFFCURVE",
"711 695 OFFCURVE",
"711 669 CURVE SMOOTH",
"711 645 OFFCURVE",
"730 625 OFFCURVE",
"761 625 CURVE SMOOTH",
"795 625 OFFCURVE",
"815 651 OFFCURVE",
"815 681 CURVE SMOOTH",
"815 732 OFFCURVE",
"762 766 OFFCURVE",
"704 766 CURVE SMOOTH",
"598 766 OFFCURVE",
"479 657 OFFCURVE",
"435 450 CURVE SMOOTH",
"320 -90 LINE SMOOTH",
"295 -210 OFFCURVE",
"259 -244 OFFCURVE",
"217 -244 CURVE SMOOTH",
"197 -244 OFFCURVE",
"193 -237 OFFCURVE",
"193 -226 CURVE SMOOTH",
"193 -217 OFFCURVE",
"196 -206 OFFCURVE",
"196 -197 CURVE SMOOTH",
"196 -172 OFFCURVE",
"177 -153 OFFCURVE",
"149 -153 CURVE SMOOTH",
"121 -153 OFFCURVE",
"100 -173 OFFCURVE",
"100 -201 CURVE SMOOTH",
"100 -243 OFFCURVE",
"145 -274 OFFCURVE",
"203 -274 CURVE SMOOTH",
"288 -274 OFFCURVE",
"384 -206 OFFCURVE",
"456 95 CURVE SMOOTH"
);
},
{
closed = 1;
nodes = (
"336 425 LINE",
"657 425 LINE",
"657 450 LINE",
"336 450 LINE"
);
},
{
closed = 1;
nodes = (
"885 764 LINE",
"769 734 LINE",
"615 87 LINE SMOOTH",
"613 78 OFFCURVE",
"611 67 OFFCURVE",
"611 56 CURVE SMOOTH",
"611 15 OFFCURVE",
"639 -13 OFFCURVE",
"689 -13 CURVE SMOOTH",
"777 -13 OFFCURVE",
"836 73 OFFCURVE",
"876 157 CURVE",
"856 166 LINE",
"808 73 OFFCURVE",
"771 38 OFFCURVE",
"738 38 CURVE SMOOTH",
"723 38 OFFCURVE",
"715 45 OFFCURVE",
"715 63 CURVE SMOOTH",
"715 69 OFFCURVE",
"716 80 OFFCURVE",
"720 97 CURVE SMOOTH"
);
}
);
width = 895;
},
{
layerId = "DD3DBCA6-CF88-4DA3-ACF4-A2FFC969FFEC";
paths = (
{
closed = 1;
nodes = (
"277 476 LINE SMOOTH",
"307 655 OFFCURVE",
"347 711 OFFCURVE",
"395 711 CURVE SMOOTH",
"415 711 OFFCURVE",
"422 701 OFFCURVE",
"422 693 CURVE SMOOTH",
"422 678 OFFCURVE",
"401 665 OFFCURVE",
"401 633 CURVE SMOOTH",
"401 598 OFFCURVE",
"426 575 OFFCURVE",
"464 575 CURVE SMOOTH",
"507 575 OFFCURVE",
"527 604 OFFCURVE",
"527 642 CURVE SMOOTH",
"527 702 OFFCURVE",
"476 741 OFFCURVE",
"409 741 CURVE SMOOTH",
"299 741 OFFCURVE",
"167 638 OFFCURVE",
"125 418 CURVE SMOOTH",
"61 82 LINE SMOOTH",
"-6 -269 OFFCURVE",
"-28 -289 OFFCURVE",
"-61 -289 CURVE SMOOTH",
"-76 -289 OFFCURVE",
"-84 -285 OFFCURVE",
"-84 -272 CURVE SMOOTH",
"-84 -256 OFFCURVE",
"-71 -245 OFFCURVE",
"-71 -224 CURVE SMOOTH",
"-71 -198 OFFCURVE",
"-91 -172 OFFCURVE",
"-131 -172 CURVE SMOOTH",
"-172 -172 OFFCURVE",
"-193 -199 OFFCURVE",
"-193 -235 CURVE SMOOTH",
"-193 -279 OFFCURVE",
"-163 -324 OFFCURVE",
"-91 -324 CURVE SMOOTH",
"37 -324 OFFCURVE",
"159 -182 OFFCURVE",
"223 175 CURVE SMOOTH"
);
},
{
closed = 1;
nodes = (
"25 420 LINE",
"386 420 LINE",
"386 450 LINE",
"25 450 LINE"
);
},
{
closed = 1;
nodes = (
"906 766 LINE",
"766 741 LINE",
"630 132 LINE SMOOTH",
"625 108 OFFCURVE",
"621 83 OFFCURVE",
"621 67 CURVE SMOOTH",
"621 26 OFFCURVE",
"647 -11 OFFCURVE",
"704 -11 CURVE SMOOTH",
"772 -11 OFFCURVE",
"831 43 OFFCURVE",
"864 152 CURVE",
"839 161 LINE",
"806 69 OFFCURVE",
"769 41 OFFCURVE",
"751 41 CURVE SMOOTH",
"744 41 OFFCURVE",
"739 45 OFFCURVE",
"739 54 CURVE SMOOTH",
"739 58 OFFCURVE",
"740 70 OFFCURVE",
"744 87 CURVE SMOOTH"
);
},
{
closed = 1;
nodes = (
"557 501 LINE SMOOTH",
"591 682 OFFCURVE",
"631 736 OFFCURVE",
"678 736 CURVE SMOOTH",
"696 736 OFFCURVE",
"704 728 OFFCURVE",
"704 718 CURVE SMOOTH",
"704 702 OFFCURVE",
"683 691 OFFCURVE",
"683 658 CURVE SMOOTH",
"683 623 OFFCURVE",
"708 600 OFFCURVE",
"746 600 CURVE SMOOTH",
"789 600 OFFCURVE",
"809 629 OFFCURVE",
"809 667 CURVE SMOOTH",
"809 727 OFFCURVE",
"757 766 OFFCURVE",
"692 766 CURVE SMOOTH",
"584 766 OFFCURVE",
"452 660 OFFCURVE",
"405 434 CURVE SMOOTH",
"329 68 LINE SMOOTH",
"266 -233 OFFCURVE",
"249 -254 OFFCURVE",
"216 -254 CURVE SMOOTH",
"201 -254 OFFCURVE",
"193 -250 OFFCURVE",
"193 -237 CURVE SMOOTH",
"193 -222 OFFCURVE",
"206 -211 OFFCURVE",
"206 -189 CURVE SMOOTH",
"206 -165 OFFCURVE",
"186 -137 OFFCURVE",
"146 -137 CURVE SMOOTH",
"105 -137 OFFCURVE",
"84 -164 OFFCURVE",
"84 -200 CURVE SMOOTH",
"84 -244 OFFCURVE",
"114 -289 OFFCURVE",
"185 -289 CURVE SMOOTH",
"316 -289 OFFCURVE",
"431 -142 OFFCURVE",
"500 210 CURVE SMOOTH"
);
},
{
closed = 1;
nodes = (
"307 420 LINE",
"668 420 LINE",
"668 450 LINE",
"307 450 LINE"
);
}
);
width = 885;
}
);
leftKerningGroup = f;
rightKerningGroup = l;
unicode = FB04;
},
{
glyphname = f_i;
lastChange = "2016-08-16 11:12:44 +0000";
layers = (
{
layerId = "426C3F01-D24D-4224-A47E-56DA036E4742";
paths = (
{
closed = 1;
nodes = (
"525 450 LINE",
"418 450 LINE",
"332 87 LINE SMOOTH",
"330 78 OFFCURVE",
"328 67 OFFCURVE",
"328 56 CURVE SMOOTH",
"328 15 OFFCURVE",
"356 -13 OFFCURVE",
"405 -13 CURVE SMOOTH",
"491 -13 OFFCURVE",
"549 73 OFFCURVE",
"588 157 CURVE",
"568 166 LINE",
"522 73 OFFCURVE",
"486 38 OFFCURVE",
"454 38 CURVE SMOOTH",
"440 38 OFFCURVE",
"432 45 OFFCURVE",
"432 63 CURVE SMOOTH",
"432 69 OFFCURVE",
"433 80 OFFCURVE",
"437 97 CURVE SMOOTH"
);
},
{
closed = 1;
nodes = (
"324 425 LINE",
"513 425 LINE",
"513 450 LINE",
"324 450 LINE"
);
},
{
closed = 1;
nodes = (
"279 511 LINE SMOOTH",
"319 684 OFFCURVE",
"365 736 OFFCURVE",
"425 736 CURVE SMOOTH",
"447 736 OFFCURVE",
"464 729 OFFCURVE",
"464 718 CURVE SMOOTH",
"464 705 OFFCURVE",
"443 695 OFFCURVE",
"443 669 CURVE SMOOTH",
"443 645 OFFCURVE",
"462 625 OFFCURVE",
"493 625 CURVE SMOOTH",
"527 625 OFFCURVE",
"547 651 OFFCURVE",
"547 681 CURVE SMOOTH",
"547 732 OFFCURVE",
"492 766 OFFCURVE",
"432 766 CURVE SMOOTH",
"324 766 OFFCURVE",
"201 657 OFFCURVE",
"158 450 CURVE SMOOTH",
"35 -140 LINE SMOOTH",
"10 -260 OFFCURVE",
"-26 -294 OFFCURVE",
"-68 -294 CURVE SMOOTH",
"-88 -294 OFFCURVE",
"-92 -287 OFFCURVE",
"-92 -276 CURVE SMOOTH",
"-92 -267 OFFCURVE",
"-89 -256 OFFCURVE",
"-89 -247 CURVE SMOOTH",
"-89 -223 OFFCURVE",
"-108 -203 OFFCURVE",
"-136 -203 CURVE SMOOTH",
"-164 -203 OFFCURVE",
"-185 -223 OFFCURVE",
"-185 -251 CURVE SMOOTH",
"-185 -293 OFFCURVE",
"-140 -324 OFFCURVE",
"-82 -324 CURVE SMOOTH",
"3 -324 OFFCURVE",
"101 -256 OFFCURVE",
"171 45 CURVE SMOOTH"
);
},
{
closed = 1;
nodes = (
"59 425 LINE",
"380 425 LINE",
"380 450 LINE",
"59 450 LINE"
);
}
);
width = 590;
},
{
layerId = "DD3DBCA6-CF88-4DA3-ACF4-A2FFC969FFEC";
paths = (
{
closed = 1;
nodes = (
"561 450 LINE",
"427 450 LINE",
"353 153 LINE SMOOTH",
"340 100 OFFCURVE",
"337 86 OFFCURVE",
"337 70 CURVE SMOOTH",
"337 15 OFFCURVE",
"370 -11 OFFCURVE",
"429 -11 CURVE SMOOTH",
"508 -11 OFFCURVE",
"580 35 OFFCURVE",
"617 147 CURVE",
"592 156 LINE",
"551 65 OFFCURVE",
"507 37 OFFCURVE",
"486 37 CURVE SMOOTH",
"478 37 OFFCURVE",
"472 41 OFFCURVE",
"472 52 CURVE SMOOTH",
"472 57 OFFCURVE",
"473 69 OFFCURVE",
"477 87 CURVE SMOOTH"
);
},
{
closed = 1;
nodes = (
"330 420 LINE",
"504 420 LINE",
"504 450 LINE",
"330 450 LINE"
);
},
{
closed = 1;
nodes = (
"291 501 LINE SMOOTH",
"327 681 OFFCURVE",
"385 736 OFFCURVE",
"440 736 CURVE SMOOTH",
"462 736 OFFCURVE",
"473 728 OFFCURVE",
"473 718 CURVE SMOOTH",
"473 703 OFFCURVE",
"452 689 OFFCURVE",
"452 655 CURVE SMOOTH",
"452 618 OFFCURVE",
"477 596 OFFCURVE",
"515 596 CURVE SMOOTH",
"558 596 OFFCURVE",
"578 625 OFFCURVE",
"578 662 CURVE SMOOTH",
"578 727 OFFCURVE",
"517 766 OFFCURVE",
"445 766 CURVE SMOOTH",
"326 766 OFFCURVE",
"183 661 OFFCURVE",
"136 434 CURVE SMOOTH",
"52 33 LINE SMOOTH",
"-11 -268 OFFCURVE",
"-28 -289 OFFCURVE",
"-61 -289 CURVE SMOOTH",
"-76 -289 OFFCURVE",
"-84 -285 OFFCURVE",
"-84 -272 CURVE SMOOTH",
"-84 -256 OFFCURVE",
"-71 -245 OFFCURVE",
"-71 -224 CURVE SMOOTH",
"-71 -198 OFFCURVE",
"-91 -172 OFFCURVE",
"-131 -172 CURVE SMOOTH",
"-172 -172 OFFCURVE",
"-193 -199 OFFCURVE",
"-193 -235 CURVE SMOOTH",
"-193 -279 OFFCURVE",
"-163 -324 OFFCURVE",
"-92 -324 CURVE SMOOTH",
"33 -324 OFFCURVE",
"151 -181 OFFCURVE",
"224 175 CURVE SMOOTH"
);
},
{
closed = 1;
nodes = (
"40 420 LINE",
"401 420 LINE",
"401 450 LINE",
"40 450 LINE"
);
}
);
width = 612;
}
);
leftKerningGroup = f;
rightKerningGroup = i;
unicode = FB01;
},
{
glyphname = f_l;
lastChange = "2016-08-16 11:12:44 +0000";
layers = (
{
layerId = "426C3F01-D24D-4224-A47E-56DA036E4742";
paths = (
{
closed = 1;
nodes = (
"606 764 LINE",
"491 732 LINE",
"337 87 LINE SMOOTH",
"335 78 OFFCURVE",
"333 67 OFFCURVE",
"333 56 CURVE SMOOTH",
"333 15 OFFCURVE",
"361 -13 OFFCURVE",
"410 -13 CURVE SMOOTH",
"499 -13 OFFCURVE",
"558 73 OFFCURVE",
"598 157 CURVE",
"578 166 LINE",
"530 73 OFFCURVE",
"493 38 OFFCURVE",
"459 38 CURVE SMOOTH",
"445 38 OFFCURVE",
"437 45 OFFCURVE",
"437 63 CURVE SMOOTH",
"437 69 OFFCURVE",
"438 80 OFFCURVE",
"442 97 CURVE SMOOTH"
);
},
{
closed = 1;
nodes = (
"279 511 LINE SMOOTH",
"319 684 OFFCURVE",
"362 736 OFFCURVE",
"420 736 CURVE SMOOTH",
"441 736 OFFCURVE",
"455 729 OFFCURVE",
"455 718 CURVE SMOOTH",
"455 705 OFFCURVE",
"434 695 OFFCURVE",
"434 669 CURVE SMOOTH",
"434 645 OFFCURVE",
"453 625 OFFCURVE",
"484 625 CURVE SMOOTH",
"518 625 OFFCURVE",
"538 651 OFFCURVE",
"538 681 CURVE SMOOTH",
"538 732 OFFCURVE",
"485 766 OFFCURVE",
"427 766 CURVE SMOOTH",
"323 766 OFFCURVE",
"201 659 OFFCURVE",
"158 450 CURVE SMOOTH",
"35 -140 LINE SMOOTH",
"10 -260 OFFCURVE",
"-26 -294 OFFCURVE",
"-68 -294 CURVE SMOOTH",
"-88 -294 OFFCURVE",
"-92 -287 OFFCURVE",
"-92 -276 CURVE SMOOTH",
"-92 -267 OFFCURVE",
"-89 -256 OFFCURVE",
"-89 -247 CURVE SMOOTH",
"-89 -223 OFFCURVE",
"-108 -203 OFFCURVE",
"-136 -203 CURVE SMOOTH",
"-164 -203 OFFCURVE",
"-185 -223 OFFCURVE",
"-185 -251 CURVE SMOOTH",
"-185 -293 OFFCURVE",
"-140 -324 OFFCURVE",
"-82 -324 CURVE SMOOTH",
"3 -324 OFFCURVE",
"101 -256 OFFCURVE",
"171 45 CURVE SMOOTH"
);
},
{
closed = 1;
nodes = (
"59 425 LINE",
"364 425 LINE",
"364 450 LINE",
"59 450 LINE"
);
}
);
width = 616;
},
{
layerId = "DD3DBCA6-CF88-4DA3-ACF4-A2FFC969FFEC";
paths = (
{
closed = 1;
nodes = (
"637 766 LINE",
"497 741 LINE",
"361 132 LINE SMOOTH",
"356 108 OFFCURVE",
"352 83 OFFCURVE",
"352 67 CURVE SMOOTH",
"352 26 OFFCURVE",
"378 -11 OFFCURVE",
"435 -11 CURVE SMOOTH",
"503 -11 OFFCURVE",
"562 43 OFFCURVE",
"595 152 CURVE",
"570 161 LINE",
"537 69 OFFCURVE",
"500 41 OFFCURVE",
"482 41 CURVE SMOOTH",
"475 41 OFFCURVE",
"470 45 OFFCURVE",
"470 54 CURVE SMOOTH",
"470 58 OFFCURVE",
"471 70 OFFCURVE",
"475 87 CURVE SMOOTH"
);
},
{
closed = 1;
nodes = (
"288 501 LINE SMOOTH",
"322 682 OFFCURVE",
"362 736 OFFCURVE",
"409 736 CURVE SMOOTH",
"427 736 OFFCURVE",
"435 728 OFFCURVE",
"435 718 CURVE SMOOTH",
"435 702 OFFCURVE",
"414 691 OFFCURVE",
"414 658 CURVE SMOOTH",
"414 623 OFFCURVE",
"439 600 OFFCURVE",
"477 600 CURVE SMOOTH",
"520 600 OFFCURVE",
"540 629 OFFCURVE",
"540 667 CURVE SMOOTH",
"540 727 OFFCURVE",
"488 766 OFFCURVE",
"423 766 CURVE SMOOTH",
"315 766 OFFCURVE",
"183 660 OFFCURVE",
"136 434 CURVE SMOOTH",
"52 33 LINE SMOOTH",
"-11 -268 OFFCURVE",
"-28 -289 OFFCURVE",
"-61 -289 CURVE SMOOTH",
"-76 -289 OFFCURVE",
"-84 -285 OFFCURVE",
"-84 -272 CURVE SMOOTH",
"-84 -256 OFFCURVE",
"-71 -245 OFFCURVE",
"-71 -224 CURVE SMOOTH",
"-71 -198 OFFCURVE",
"-91 -172 OFFCURVE",
"-131 -172 CURVE SMOOTH",
"-172 -172 OFFCURVE",
"-193 -199 OFFCURVE",
"-193 -235 CURVE SMOOTH",
"-193 -279 OFFCURVE",
"-163 -324 OFFCURVE",
"-92 -324 CURVE SMOOTH",
"35 -324 OFFCURVE",
"153 -177 OFFCURVE",
"223 175 CURVE SMOOTH"
);
},
{
closed = 1;
nodes = (
"38 420 LINE",
"399 420 LINE",
"399 450 LINE",
"38 450 LINE"
);
}
);
width = 616;
}
);
leftKerningGroup = f;
rightKerningGroup = l;
unicode = FB02;
},
{
glyphname = ordfeminine;
lastChange = "2016-08-16 11:12:44 +0000";
layers = (
{
layerId = "426C3F01-D24D-4224-A47E-56DA036E4742";
paths = (
{
closed = 1;
nodes = (
"432 753 LINE",
"359 753 LINE",
"314 567 LINE SMOOTH",
"309 548 OFFCURVE",
"307 531 OFFCURVE",
"307 519 CURVE SMOOTH",
"307 471 OFFCURVE",
"339 458 OFFCURVE",
"362 458 CURVE SMOOTH",
"409 458 OFFCURVE",
"440 511 OFFCURVE",
"460 559 CURVE",
"437 565 LINE",
"418 519 OFFCURVE",
"399 496 OFFCURVE",
"385 496 CURVE SMOOTH",
"379 496 OFFCURVE",
"375 501 OFFCURVE",
"375 514 CURVE SMOOTH",
"375 526 OFFCURVE",
"378 539 OFFCURVE",
"384 562 CURVE SMOOTH"
);
},
{
closed = 1;
nodes = (
"346 715 LINE",
"337 743 OFFCURVE",
"326 763 OFFCURVE",
"289 763 CURVE SMOOTH",
"211 763 OFFCURVE",
"125 673 OFFCURVE",
"125 573 CURVE SMOOTH",
"125 500 OFFCURVE",
"171 458 OFFCURVE",
"224 458 CURVE SMOOTH",
"260 458 OFFCURVE",
"288 478 OFFCURVE",
"305 512 CURVE",
"309 512 LINE",
"316 577 LINE",
"292 508 OFFCURVE",
"262 488 OFFCURVE",
"239 488 CURVE SMOOTH",
"217 488 OFFCURVE",
"207 507 OFFCURVE",
"207 542 CURVE SMOOTH",
"207 606 OFFCURVE",
"241 734 OFFCURVE",
"298 734 CURVE SMOOTH",
"324 734 OFFCURVE",
"337 706 OFFCURVE",
"337 679 CURVE SMOOTH",
"337 671 OFFCURVE",
"336 664 OFFCURVE",
"336 655 CURVE",
"350 715 LINE"
);
}
);
width = 370;
},
{
layerId = "DD3DBCA6-CF88-4DA3-ACF4-A2FFC969FFEC";
paths = (
{
closed = 1;
nodes = (
"460 753 LINE",
"372 753 LINE",
"327 567 LINE SMOOTH",
"322 548 OFFCURVE",
"320 530 OFFCURVE",
"320 519 CURVE SMOOTH",
"320 470 OFFCURVE",
"356 458 OFFCURVE",
"384 458 CURVE SMOOTH",
"432 458 OFFCURVE",
"466 495 OFFCURVE",
"488 559 CURVE",
"465 565 LINE",
"446 519 OFFCURVE",
"427 496 OFFCURVE",
"413 496 CURVE SMOOTH",
"407 496 OFFCURVE",
"403 501 OFFCURVE",
"403 514 CURVE SMOOTH",
"403 526 OFFCURVE",
"406 539 OFFCURVE",
"412 562 CURVE SMOOTH"
);
},
{
closed = 1;
nodes = (
"359 715 LINE",
"349 743 OFFCURVE",
"335 763 OFFCURVE",
"296 763 CURVE SMOOTH",
"212 763 OFFCURVE",
"123 673 OFFCURVE",
"123 573 CURVE SMOOTH",
"123 500 OFFCURVE",
"172 458 OFFCURVE",
"229 458 CURVE SMOOTH",
"269 458 OFFCURVE",
"299 478 OFFCURVE",
"318 512 CURVE",
"322 512 LINE",
"332 587 LINE",
"308 518 OFFCURVE",
"275 498 OFFCURVE",
"252 498 CURVE SMOOTH",
"230 498 OFFCURVE",
"220 517 OFFCURVE",
"220 550 CURVE SMOOTH",
"220 610 OFFCURVE",
"254 724 OFFCURVE",
"310 724 CURVE SMOOTH",
"338 724 OFFCURVE",
"350 696 OFFCURVE",
"350 669 CURVE SMOOTH",
"350 661 OFFCURVE",
"349 654 OFFCURVE",
"349 645 CURVE",
"363 715 LINE"
);
}
);
width = 402;
}
);
unicode = 00AA;
},
{
glyphname = ordmasculine;
lastChange = "2016-08-16 11:12:44 +0000";
layers = (
{
layerId = "426C3F01-D24D-4224-A47E-56DA036E4742";
paths = (
{
closed = 1;
nodes = (
"245 484 LINE SMOOTH",
"210 484 OFFCURVE",
"199 506 OFFCURVE",
"199 549 CURVE SMOOTH",
"199 628 OFFCURVE",
"231 737 OFFCURVE",
"291 737 CURVE SMOOTH",
"326 737 OFFCURVE",
"337 706 OFFCURVE",
"337 672 CURVE SMOOTH",
"337 586 OFFCURVE",
"305 484 OFFCURVE",
"245 484 CURVE SMOOTH"
);
},
{
closed = 1;
nodes = (
"234 457 LINE SMOOTH",
"332 457 OFFCURVE",
"422 554 OFFCURVE",
"422 645 CURVE SMOOTH",
"422 712 OFFCURVE",
"373 763 OFFCURVE",
"302 763 CURVE SMOOTH",
"204 763 OFFCURVE",
"115 667 OFFCURVE",
"115 576 CURVE SMOOTH",
"115 509 OFFCURVE",
"163 457 OFFCURVE",
"234 457 CURVE SMOOTH"
);
}
);
width = 346;
},
{
layerId = "DD3DBCA6-CF88-4DA3-ACF4-A2FFC969FFEC";
paths = (
{
closed = 1;
nodes = (
"257 484 LINE SMOOTH",
"227 484 OFFCURVE",
"216 506 OFFCURVE",
"216 549 CURVE SMOOTH",
"216 628 OFFCURVE",
"248 737 OFFCURVE",
"315 737 CURVE SMOOTH",
"343 737 OFFCURVE",
"354 706 OFFCURVE",
"354 672 CURVE SMOOTH",
"354 586 OFFCURVE",
"322 484 OFFCURVE",
"257 484 CURVE SMOOTH"
);
},
{
closed = 1;
nodes = (
"251 457 LINE SMOOTH",
"358 457 OFFCURVE",
"453 554 OFFCURVE",
"453 645 CURVE SMOOTH",
"453 712 OFFCURVE",
"400 763 OFFCURVE",
"319 763 CURVE SMOOTH",
"212 763 OFFCURVE",
"118 667 OFFCURVE",
"118 576 CURVE SMOOTH",
"118 509 OFFCURVE",
"170 457 OFFCURVE",
"251 457 CURVE SMOOTH"
);
}
);
width = 374;
}
);
unicode = 00BA;
},
{
glyphname = uni0394;
lastChange = "2016-08-16 11:12:44 +0000";
layers = (
{
layerId = "426C3F01-D24D-4224-A47E-56DA036E4742";
paths = (
{
closed = 1;
nodes = (
"641 0 LINE",
"641 37 LINE",
"359 729 LINE",
"302 715 LINE",
"31 37 LINE",
"31 0 LINE"
);
},
{
closed = 1;
nodes = (
"478 37 LINE",
"67 37 LINE",
"279 570 LINE"
);
}
);
width = 680;
},
{
layerId = "DD3DBCA6-CF88-4DA3-ACF4-A2FFC969FFEC";
paths = (
{
closed = 1;
nodes = (
"663 0 LINE",
"663 43 LINE",
"366 733 LINE",
"296 716 LINE",
"11 43 LINE",
"11 0 LINE"
);
},
{
closed = 1;
nodes = (
"469 73 LINE",
"93 73 LINE",
"278 527 LINE"
);
}
);
width = 700;
}
);
unicode = 0394;
},
{
glyphname = uni03A9;
lastChange = "2016-08-16 11:12:44 +0000";
layers = (
{
layerId = "426C3F01-D24D-4224-A47E-56DA036E4742";
paths = (
{
closed = 1;
nodes = (
"730 174 LINE",
"707 174 LINE",
"686 109 OFFCURVE",
"672 95 OFFCURVE",
"630 95 CURVE SMOOTH",
"508 95 LINE",
"508 99 LINE",
"607 187 OFFCURVE",
"694 269 OFFCURVE",
"694 421 CURVE SMOOTH",
"694 607 OFFCURVE",
"565 733 OFFCURVE",
"387 733 CURVE SMOOTH",
"208 733 OFFCURVE",
"72 606 OFFCURVE",
"72 412 CURVE SMOOTH",
"72 249 OFFCURVE",
"168 165 OFFCURVE",
"251 100 CURVE",
"251 96 LINE",
"144 96 LINE SMOOTH",
"100 96 OFFCURVE",
"84 112 OFFCURVE",
"62 174 CURVE",
"38 174 LINE",
"63 0 LINE",
"335 0 LINE",
"345 23 LINE",
"257 156 OFFCURVE",
"222 257 OFFCURVE",
"222 412 CURVE SMOOTH",
"222 636 OFFCURVE",
"295 702 OFFCURVE",
"380 702 CURVE SMOOTH",
"471 702 OFFCURVE",
"545 625 OFFCURVE",
"545 408 CURVE SMOOTH",
"545 267 OFFCURVE",
"514 160 OFFCURVE",
"421 23 CURVE",
"430 0 LINE",
"701 0 LINE"
);
}
);
width = 762;
},
{
layerId = "DD3DBCA6-CF88-4DA3-ACF4-A2FFC969FFEC";
paths = (
{
closed = 1;
nodes = (
"788 189 LINE",
"747 189 LINE",
"724 127 OFFCURVE",
"709 116 OFFCURVE",
"665 116 CURVE SMOOTH",
"552 116 LINE",
"644 188 OFFCURVE",
"751 274 OFFCURVE",
"751 414 CURVE SMOOTH",
"751 612 OFFCURVE",
"615 733 OFFCURVE",
"419 733 CURVE SMOOTH",
"226 733 OFFCURVE",
"83 609 OFFCURVE",
"83 408 CURVE SMOOTH",
"83 253 OFFCURVE",
"195 171 OFFCURVE",
"274 116 CURVE",
"176 116 LINE SMOOTH",
"127 116 OFFCURVE",
"111 128 OFFCURVE",
"87 189 CURVE",
"48 189 LINE",
"75 0 LINE",
"365 0 LINE",
"375 26 LINE",
"326 132 OFFCURVE",
"263 268 OFFCURVE",
"263 399 CURVE SMOOTH",
"263 626 OFFCURVE",
"323 694 OFFCURVE",
"415 694 CURVE SMOOTH",
"506 694 OFFCURVE",
"572 615 OFFCURVE",
"572 402 CURVE SMOOTH",
"572 267 OFFCURVE",
"500 123 OFFCURVE",
"458 26 CURVE",
"468 0 LINE",
"756 0 LINE"
);
}
);
width = 782;
}
);
unicode = 03A9;
},
{
glyphname = uni03BC;
lastChange = "2016-08-16 11:12:44 +0000";
layers = (
{
layerId = "426C3F01-D24D-4224-A47E-56DA036E4742";
paths = (
{
closed = 1;
nodes = (
"514 450 LINE",
"412 450 LINE",
"341 154 LINE SMOOTH",
"334 125 OFFCURVE",
"331 101 OFFCURVE",
"331 82 CURVE SMOOTH",
"331 9 OFFCURVE",
"373 -12 OFFCURVE",
"412 -12 CURVE SMOOTH",
"477 -12 OFFCURVE",
"523 45 OFFCURVE",
"564 142 CURVE",
"544 151 LINE",
"507 73 OFFCURVE",
"472 30 OFFCURVE",
"444 30 CURVE SMOOTH",
"430 30 OFFCURVE",
"424 41 OFFCURVE",
"424 60 CURVE SMOOTH",
"424 77 OFFCURVE",
"429 106 OFFCURVE",
"439 147 CURVE SMOOTH"
);
},
{
closed = 1;
nodes = (
"356 216 LINE",
"327 113 OFFCURVE",
"257 32 OFFCURVE",
"195 32 CURVE SMOOTH",
"174 32 OFFCURVE",
"158 42 OFFCURVE",
"158 65 CURVE SMOOTH",
"158 73 OFFCURVE",
"160 81 OFFCURVE",
"162 91 CURVE SMOOTH",
"248 450 LINE",
"144 450 LINE",
"62 114 LINE SMOOTH",
"58 97 OFFCURVE",
"56 82 OFFCURVE",
"56 70 CURVE SMOOTH",
"56 12 OFFCURVE",
"99 -12 OFFCURVE",
"150 -12 CURVE SMOOTH",
"226 -12 OFFCURVE",
"285 41 OFFCURVE",
"327 96 CURVE",
"334 96 LINE"
);
},
{
closed = 1;
nodes = (
"65 425 LINE",
"224 425 LINE",
"224 450 LINE",
"65 450 LINE"
);
},
{
closed = 1;
nodes = (
"65 126 LINE",
"29 -59 OFFCURVE",
"-41 -153 OFFCURVE",
"-41 -217 CURVE SMOOTH",
"-41 -248 OFFCURVE",
"-24 -261 OFFCURVE",
"1 -261 CURVE SMOOTH",
"37 -261 OFFCURVE",
"68 -236 OFFCURVE",
"68 -174 CURVE SMOOTH",
"68 -143 OFFCURVE",
"60 -118 OFFCURVE",
"60 -69 CURVE SMOOTH",
"60 -45 OFFCURVE",
"62 -16 OFFCURVE",
"68 21 CURVE",
"72 21 LINE"
);
}
);
width = 571;
},
{
background = {
paths = (
{
closed = 1;
nodes = (
"41 420 LINE",
"215 420 LINE",
"215 450 LINE",
"41 450 LINE"
);
},
{
closed = 1;
nodes = (
"559 450 LINE",
"425 450 LINE",
"351 153 LINE SMOOTH",
"338 100 OFFCURVE",
"335 86 OFFCURVE",
"335 70 CURVE SMOOTH",
"335 15 OFFCURVE",
"370 -11 OFFCURVE",
"422 -11 CURVE SMOOTH",
"513 -11 OFFCURVE",
"576 69 OFFCURVE",
"602 152 CURVE",
"577 161 LINE",
"540 69 OFFCURVE",
"499 41 OFFCURVE",
"479 41 CURVE SMOOTH",
"472 41 OFFCURVE",
"467 45 OFFCURVE",
"467 54 CURVE SMOOTH",
"467 58 OFFCURVE",
"468 70 OFFCURVE",
"472 87 CURVE SMOOTH"
);
},
{
closed = 1;
nodes = (
"370 220 LINE",
"339 108 OFFCURVE",
"239 35 OFFCURVE",
"203 35 CURVE SMOOTH",
"191 35 OFFCURVE",
"184 43 OFFCURVE",
"184 57 CURVE SMOOTH",
"184 67 OFFCURVE",
"187 86 OFFCURVE",
"189 95 CURVE SMOOTH",
"280 450 LINE",
"143 450 LINE",
"56 113 LINE SMOOTH",
"52 96 OFFCURVE",
"50 81 OFFCURVE",
"50 69 CURVE SMOOTH",
"50 13 OFFCURVE",
"99 -11 OFFCURVE",
"152 -11 CURVE SMOOTH",
"232 -11 OFFCURVE",
"292 43 OFFCURVE",
"332 98 CURVE",
"339 98 LINE"
);
}
);
};
layerId = "DD3DBCA6-CF88-4DA3-ACF4-A2FFC969FFEC";
paths = (
{
closed = 1;
nodes = (
"41 420 LINE",
"215 420 LINE",
"215 450 LINE",
"41 450 LINE"
);
},
{
closed = 1;
nodes = (
"559 450 LINE",
"425 450 LINE",
"351 153 LINE SMOOTH",
"338 100 OFFCURVE",
"335 86 OFFCURVE",
"335 70 CURVE SMOOTH",
"335 15 OFFCURVE",
"370 -11 OFFCURVE",
"422 -11 CURVE SMOOTH",
"513 -11 OFFCURVE",
"576 69 OFFCURVE",
"602 152 CURVE",
"577 161 LINE",
"540 69 OFFCURVE",
"499 41 OFFCURVE",
"479 41 CURVE SMOOTH",
"472 41 OFFCURVE",
"467 45 OFFCURVE",
"467 54 CURVE SMOOTH",
"467 58 OFFCURVE",
"468 70 OFFCURVE",
"472 87 CURVE SMOOTH"
);
},
{
closed = 1;
nodes = (
"370 220 LINE",
"339 108 OFFCURVE",
"239 35 OFFCURVE",
"203 35 CURVE SMOOTH",
"191 35 OFFCURVE",
"184 43 OFFCURVE",
"184 57 CURVE SMOOTH",
"184 67 OFFCURVE",
"187 86 OFFCURVE",
"189 95 CURVE SMOOTH",
"280 450 LINE",
"143 450 LINE",
"56 113 LINE SMOOTH",
"52 96 OFFCURVE",
"50 81 OFFCURVE",
"50 69 CURVE SMOOTH",
"50 13 OFFCURVE",
"99 -11 OFFCURVE",
"152 -11 CURVE SMOOTH",
"232 -11 OFFCURVE",
"292 43 OFFCURVE",
"332 98 CURVE",
"339 98 LINE"
);
},
{
closed = 1;
nodes = (
"54 104 LINE",
"13 -90 OFFCURVE",
"-49 -153 OFFCURVE",
"-49 -220 CURVE SMOOTH",
"-49 -252 OFFCURVE",
"-34 -277 OFFCURVE",
"5 -277 CURVE SMOOTH",
"48 -277 OFFCURVE",
"81 -246 OFFCURVE",
"81 -174 CURVE SMOOTH",
"81 -145 OFFCURVE",
"76 -108 OFFCURVE",
"76 -57 CURVE SMOOTH",
"76 -38 OFFCURVE",
"76 -17 OFFCURVE",
"78 8 CURVE",
"82 8 LINE"
);
}
);
width = 598;
}
);
unicode = 03BC;
},
{
glyphname = pi;
lastChange = "2016-08-16 11:12:44 +0000";
layers = (
{
layerId = "426C3F01-D24D-4224-A47E-56DA036E4742";
paths = (
{
closed = 1;
nodes = (
"567 496 LINE",
"550 472 OFFCURVE",
"534 465 OFFCURVE",
"489 465 CURVE SMOOTH",
"208 465 LINE SMOOTH",
"124 465 OFFCURVE",
"79 438 OFFCURVE",
"19 362 CURVE",
"36 340 LINE",
"80 369 OFFCURVE",
"105 377 OFFCURVE",
"168 377 CURVE",
"168 272 OFFCURVE",
"145 116 OFFCURVE",
"70 9 CURVE",
"78 -13 LINE",
"98 -12 OFFCURVE",
"126 -5 OFFCURVE",
"151 6 CURVE",
"168 29 OFFCURVE",
"220 117 OFFCURVE",
"220 365 CURVE SMOOTH",
"220 377 LINE",
"353 377 LINE",
"350 331 OFFCURVE",
"343 218 OFFCURVE",
"343 155 CURVE SMOOTH",
"343 40 OFFCURVE",
"366 -13 OFFCURVE",
"447 -13 CURVE SMOOTH",
"507 -13 OFFCURVE",
"544 16 OFFCURVE",
"572 62 CURVE",
"563 80 LINE",
"546 64 OFFCURVE",
"530 57 OFFCURVE",
"515 57 CURVE SMOOTH",
"483 57 OFFCURVE",
"471 89 OFFCURVE",
"471 214 CURVE SMOOTH",
"471 270 OFFCURVE",
"471 324 OFFCURVE",
"476 377 CURVE",
"531 377 LINE",
"582 490 LINE"
);
}
);
width = 602;
},
{
layerId = "DD3DBCA6-CF88-4DA3-ACF4-A2FFC969FFEC";
paths = (
{
closed = 1;
nodes = (
"599 509 LINE",
"579 476 OFFCURVE",
"566 474 OFFCURVE",
"518 474 CURVE SMOOTH",
"459 474 OFFCURVE",
"292 477 OFFCURVE",
"249 477 CURVE SMOOTH",
"133 477 OFFCURVE",
"101 455 OFFCURVE",
"29 361 CURVE",
"48 325 LINE",
"97 354 OFFCURVE",
"125 363 OFFCURVE",
"187 363 CURVE",
"187 266 OFFCURVE",
"160 118 OFFCURVE",
"84 12 CURVE",
"93 -14 LINE",
"116 -12 OFFCURVE",
"144 -6 OFFCURVE",
"174 6 CURVE",
"192 28 OFFCURVE",
"245 111 OFFCURVE",
"245 353 CURVE SMOOTH",
"245 363 LINE",
"372 363 LINE",
"366 295 OFFCURVE",
"362 206 OFFCURVE",
"362 163 CURVE SMOOTH",
"362 17 OFFCURVE",
"408 -14 OFFCURVE",
"472 -14 CURVE SMOOTH",
"542 -14 OFFCURVE",
"591 24 OFFCURVE",
"619 64 CURVE",
"605 96 LINE",
"588 83 OFFCURVE",
"576 77 OFFCURVE",
"561 77 CURVE SMOOTH",
"535 77 OFFCURVE",
"516 96 OFFCURVE",
"516 166 CURVE SMOOTH",
"516 239 OFFCURVE",
"516 295 OFFCURVE",
"522 363 CURVE",
"590 363 LINE",
"633 500 LINE"
);
}
);
width = 622;
}
);
unicode = 03C0;
},
{
glyphname = zero;
lastChange = "2016-08-16 11:12:44 +0000";
layers = (
{
layerId = "426C3F01-D24D-4224-A47E-56DA036E4742";
paths = (
{
closed = 1;
nodes = (
"268 -11 LINE SMOOTH",
"456 -11 OFFCURVE",
"602 249 OFFCURVE",
"602 445 CURVE SMOOTH",
"602 567 OFFCURVE",
"546 706 OFFCURVE",
"418 706 CURVE SMOOTH",
"254 706 OFFCURVE",
"78 476 OFFCURVE",
"78 248 CURVE SMOOTH",
"78 119 OFFCURVE",
"135 -11 OFFCURVE",
"268 -11 CURVE SMOOTH"
);
},
{
closed = 1;
nodes = (
"425 680 LINE SMOOTH",
"472 680 OFFCURVE",
"498 641 OFFCURVE",
"498 560 CURVE SMOOTH",
"498 416 OFFCURVE",
"416 14 OFFCURVE",
"257 14 CURVE SMOOTH",
"218 14 OFFCURVE",
"182 38 OFFCURVE",
"182 126 CURVE SMOOTH",
"182 266 OFFCURVE",
"272 680 OFFCURVE",
"425 680 CURVE SMOOTH"
);
}
);
width = 606;
},
{
layerId = "DD3DBCA6-CF88-4DA3-ACF4-A2FFC969FFEC";
paths = (
{
closed = 1;
nodes = (
"268 -11 LINE SMOOTH",
"472 -11 OFFCURVE",
"625 249 OFFCURVE",
"625 443 CURVE SMOOTH",
"625 567 OFFCURVE",
"562 706 OFFCURVE",
"424 706 CURVE SMOOTH",
"247 706 OFFCURVE",
"61 477 OFFCURVE",
"61 251 CURVE SMOOTH",
"61 118 OFFCURVE",
"125 -11 OFFCURVE",
"268 -11 CURVE SMOOTH"
);
},
{
closed = 1;
nodes = (
"422 675 LINE SMOOTH",
"459 675 OFFCURVE",
"481 646 OFFCURVE",
"481 566 CURVE SMOOTH",
"481 423 OFFCURVE",
"410 19 OFFCURVE",
"264 19 CURVE SMOOTH",
"236 19 OFFCURVE",
"205 34 OFFCURVE",
"205 123 CURVE SMOOTH",
"205 263 OFFCURVE",
"283 675 OFFCURVE",
"422 675 CURVE SMOOTH"
);
}
);
width = 626;
}
);
unicode = 0030;
},
{
glyphname = one;
lastChange = "2016-08-16 11:12:44 +0000";
layers = (
{
layerId = "426C3F01-D24D-4224-A47E-56DA036E4742";
paths = (
{
closed = 1;
nodes = (
"359 706 LINE",
"247 706 LINE",
"99 0 LINE",
"207 0 LINE"
);
},
{
closed = 1;
nodes = (
"123 681 LINE",
"352 681 LINE",
"352 706 LINE",
"123 706 LINE"
);
},
{
closed = 1;
nodes = (
"2 0 LINE",
"336 0 LINE",
"336 25 LINE",
"2 25 LINE"
);
}
);
width = 360;
},
{
layerId = "DD3DBCA6-CF88-4DA3-ACF4-A2FFC969FFEC";
paths = (
{
closed = 1;
nodes = (
"405 706 LINE",
"253 706 LINE",
"105 0 LINE",
"253 0 LINE"
);
},
{
closed = 1;
nodes = (
"109 671 LINE",
"378 671 LINE",
"378 706 LINE",
"109 706 LINE"
);
},
{
closed = 1;
nodes = (
"-12 0 LINE",
"392 0 LINE",
"392 35 LINE",
"-12 35 LINE"
);
}
);
width = 432;
}
);
unicode = 0031;
},
